G04 #@! TF.GenerationSoftware,KiCad,Pcbnew,8.0.5*
G04 #@! TF.CreationDate,2024-10-16T23:13:09+09:00*
G04 #@! TF.ProjectId,20240922_FV-1,32303234-3039-4323-925f-46562d312e6b,rev?*
G04 #@! TF.SameCoordinates,Original*
G04 #@! TF.FileFunction,Copper,L2,Bot*
G04 #@! TF.FilePolarity,Positive*
%FSLAX46Y46*%
G04 Gerber Fmt 4.6, Leading zero omitted, Abs format (unit mm)*
G04 Created by KiCad (PCBNEW 8.0.5) date 2024-10-16 23:13:09*
%MOMM*%
%LPD*%
G01*
G04 APERTURE LIST*
G04 Aperture macros list*
%AMRoundRect*
0 Rectangle with rounded corners*
0 $1 Rounding radius*
0 $2 $3 $4 $5 $6 $7 $8 $9 X,Y pos of 4 corners*
0 Add a 4 corners polygon primitive as box body*
4,1,4,$2,$3,$4,$5,$6,$7,$8,$9,$2,$3,0*
0 Add four circle primitives for the rounded corners*
1,1,$1+$1,$2,$3*
1,1,$1+$1,$4,$5*
1,1,$1+$1,$6,$7*
1,1,$1+$1,$8,$9*
0 Add four rect primitives between the rounded corners*
20,1,$1+$1,$2,$3,$4,$5,0*
20,1,$1+$1,$4,$5,$6,$7,0*
20,1,$1+$1,$6,$7,$8,$9,0*
20,1,$1+$1,$8,$9,$2,$3,0*%
G04 Aperture macros list end*
G04 #@! TA.AperFunction,ComponentPad*
%ADD10R,1.700000X1.700000*%
G04 #@! TD*
G04 #@! TA.AperFunction,ComponentPad*
%ADD11O,1.700000X1.700000*%
G04 #@! TD*
G04 #@! TA.AperFunction,ComponentPad*
%ADD12RoundRect,0.250000X0.550000X0.550000X-0.550000X0.550000X-0.550000X-0.550000X0.550000X-0.550000X0*%
G04 #@! TD*
G04 #@! TA.AperFunction,ComponentPad*
%ADD13R,2.400000X1.600000*%
G04 #@! TD*
G04 #@! TA.AperFunction,ComponentPad*
%ADD14O,2.400000X1.600000*%
G04 #@! TD*
G04 #@! TA.AperFunction,ComponentPad*
%ADD15RoundRect,0.250000X-0.550000X-0.550000X0.550000X-0.550000X0.550000X0.550000X-0.550000X0.550000X0*%
G04 #@! TD*
G04 #@! TA.AperFunction,ComponentPad*
%ADD16C,1.400000*%
G04 #@! TD*
G04 #@! TA.AperFunction,ComponentPad*
%ADD17O,1.400000X1.400000*%
G04 #@! TD*
G04 #@! TA.AperFunction,ComponentPad*
%ADD18C,1.120000*%
G04 #@! TD*
G04 #@! TA.AperFunction,ComponentPad*
%ADD19R,1.600000X2.400000*%
G04 #@! TD*
G04 #@! TA.AperFunction,ComponentPad*
%ADD20O,1.600000X2.400000*%
G04 #@! TD*
G04 #@! TA.AperFunction,SMDPad,CuDef*
%ADD21RoundRect,0.250000X0.337500X0.475000X-0.337500X0.475000X-0.337500X-0.475000X0.337500X-0.475000X0*%
G04 #@! TD*
G04 #@! TA.AperFunction,SMDPad,CuDef*
%ADD22RoundRect,0.250000X-0.337500X-0.475000X0.337500X-0.475000X0.337500X0.475000X-0.337500X0.475000X0*%
G04 #@! TD*
G04 #@! TA.AperFunction,ViaPad*
%ADD23C,0.600000*%
G04 #@! TD*
G04 #@! TA.AperFunction,Conductor*
%ADD24C,0.200000*%
G04 #@! TD*
G04 #@! TA.AperFunction,Conductor*
%ADD25C,0.300000*%
G04 #@! TD*
G04 APERTURE END LIST*
D10*
X113665000Y-87630000D03*
D11*
X116205000Y-87630000D03*
X118745000Y-87630000D03*
X121285000Y-87630000D03*
D12*
X176490000Y-94615000D03*
X173990000Y-94615000D03*
D13*
X188595000Y-94107000D03*
D14*
X188595000Y-96647000D03*
X188595000Y-99187000D03*
X188595000Y-101727000D03*
X196215000Y-101727000D03*
X196215000Y-99187000D03*
X196215000Y-96647000D03*
X196215000Y-94107000D03*
D15*
X156257200Y-86995000D03*
X158757200Y-86995000D03*
D16*
X180340000Y-101854000D03*
D17*
X185420000Y-101854000D03*
D10*
X130810000Y-81280000D03*
D11*
X133350000Y-81280000D03*
X135890000Y-81280000D03*
X138430000Y-81280000D03*
D10*
X172720000Y-81280000D03*
D11*
X175260000Y-81280000D03*
X177800000Y-81280000D03*
X180340000Y-81280000D03*
D15*
X156250000Y-94615000D03*
X158750000Y-94615000D03*
D10*
X144780000Y-108585000D03*
D11*
X147320000Y-108585000D03*
X149860000Y-108585000D03*
X152400000Y-108585000D03*
D10*
X113665000Y-81280000D03*
D11*
X116205000Y-81280000D03*
X118745000Y-81280000D03*
X121285000Y-81280000D03*
D10*
X158750000Y-108585000D03*
D11*
X161290000Y-108585000D03*
X163830000Y-108585000D03*
X166370000Y-108585000D03*
D16*
X180340000Y-98806000D03*
D17*
X185420000Y-98806000D03*
D12*
X165695000Y-86995000D03*
X163195000Y-86995000D03*
X176490000Y-102235000D03*
X173990000Y-102235000D03*
X196850000Y-87630000D03*
X194350000Y-87630000D03*
D10*
X170180000Y-86995000D03*
D11*
X172720000Y-86995000D03*
D10*
X172720000Y-108585000D03*
D11*
X175260000Y-108585000D03*
X177800000Y-108585000D03*
X180340000Y-108585000D03*
D18*
X162560000Y-93980000D03*
X165100000Y-91440000D03*
X167640000Y-93980000D03*
D10*
X113665000Y-102870000D03*
D11*
X116205000Y-102870000D03*
X118745000Y-102870000D03*
X121285000Y-102870000D03*
D10*
X144780000Y-81280000D03*
D11*
X147320000Y-81280000D03*
X149860000Y-81280000D03*
X152400000Y-81280000D03*
D10*
X177165000Y-89535000D03*
D11*
X177165000Y-86995000D03*
D16*
X170180000Y-91440000D03*
D17*
X170180000Y-96520000D03*
D16*
X180340000Y-95758000D03*
D17*
X185420000Y-95758000D03*
D15*
X156250000Y-102235000D03*
X158750000Y-102235000D03*
D10*
X158750000Y-81280000D03*
D11*
X161290000Y-81280000D03*
X163830000Y-81280000D03*
X166370000Y-81280000D03*
D18*
X180340000Y-90170000D03*
X182880000Y-87630000D03*
X185420000Y-90170000D03*
D10*
X130810000Y-108585000D03*
D11*
X133350000Y-108585000D03*
X135890000Y-108585000D03*
X138430000Y-108585000D03*
D19*
X113665000Y-99060000D03*
D20*
X116205000Y-99060000D03*
X118745000Y-99060000D03*
X121285000Y-99060000D03*
X121285000Y-91440000D03*
X118745000Y-91440000D03*
X116205000Y-91440000D03*
X113665000Y-91440000D03*
D12*
X191095000Y-89535000D03*
X188595000Y-89535000D03*
D19*
X151130000Y-87376000D03*
D20*
X148590000Y-87376000D03*
X146050000Y-87376000D03*
X143510000Y-87376000D03*
X140970000Y-87376000D03*
X138430000Y-87376000D03*
X135890000Y-87376000D03*
X133350000Y-87376000D03*
X130810000Y-87376000D03*
X130810000Y-102616000D03*
X133350000Y-102616000D03*
X135890000Y-102616000D03*
X138430000Y-102616000D03*
X140970000Y-102616000D03*
X143510000Y-102616000D03*
X146050000Y-102616000D03*
X148590000Y-102616000D03*
X151130000Y-102616000D03*
D10*
X163830000Y-103505000D03*
D11*
X163830000Y-100965000D03*
X166370000Y-103505000D03*
X166370000Y-100965000D03*
X168910000Y-103505000D03*
X168910000Y-100965000D03*
D10*
X113665000Y-108585000D03*
D11*
X116205000Y-108585000D03*
X118745000Y-108585000D03*
X121285000Y-108585000D03*
D10*
X145542000Y-99060000D03*
D11*
X145542000Y-96520000D03*
X145542000Y-93980000D03*
D21*
X193421000Y-99060000D03*
X191346000Y-99060000D03*
X148760000Y-90805000D03*
X146685000Y-90805000D03*
D10*
X130810000Y-91440000D03*
D11*
X130810000Y-93980000D03*
D10*
X135890000Y-99060000D03*
D11*
X135890000Y-96520000D03*
X135890000Y-93980000D03*
X135890000Y-91440000D03*
D22*
X191389000Y-96520000D03*
X193464000Y-96520000D03*
D10*
X140970000Y-91440000D03*
D11*
X140970000Y-93980000D03*
D23*
X173228000Y-90932000D03*
X173736000Y-98298000D03*
X175006000Y-86106000D03*
X191008000Y-85852000D03*
X189738000Y-87884000D03*
X194310000Y-91440000D03*
X198882000Y-86360000D03*
X198882000Y-91440000D03*
X198882000Y-100330000D03*
X193040000Y-103632000D03*
X198120000Y-103632000D03*
X188722000Y-103632000D03*
X182372000Y-103632000D03*
X178816000Y-103632000D03*
X177546000Y-100076000D03*
X171450000Y-101092000D03*
X171450000Y-103632000D03*
X168910000Y-98044000D03*
X171704000Y-93726000D03*
X161036000Y-89916000D03*
X161036000Y-86106000D03*
X157480000Y-89154000D03*
X160274000Y-103632000D03*
X159004000Y-98298000D03*
X160274000Y-100330000D03*
X157480000Y-100838000D03*
X157480000Y-103632000D03*
X152908000Y-100838000D03*
X152908000Y-103632000D03*
X148590000Y-97790000D03*
X152654000Y-90678000D03*
X147320000Y-92710000D03*
X144780000Y-89154000D03*
X142240000Y-89154000D03*
X142748000Y-92710000D03*
X142240000Y-96520000D03*
X139700000Y-96520000D03*
X149860000Y-100838000D03*
X142240000Y-100838000D03*
X139700000Y-100838000D03*
X186690000Y-86995000D03*
D24*
X151130000Y-87376000D02*
X151130000Y-91440000D01*
X154305000Y-94615000D02*
X156250000Y-94615000D01*
X151130000Y-91440000D02*
X154305000Y-94615000D01*
X163830000Y-100965000D02*
X165100000Y-102235000D01*
D25*
X143510000Y-91440000D02*
X143510000Y-92710000D01*
X143510000Y-92710000D02*
X142240000Y-93980000D01*
D24*
X193591000Y-96647000D02*
X193464000Y-96520000D01*
X196215000Y-96647000D02*
X193591000Y-96647000D01*
X170180000Y-91440000D02*
X170180000Y-93345000D01*
X191346000Y-99060000D02*
X191346000Y-98638000D01*
X172720000Y-90170000D02*
X171450000Y-91440000D01*
D25*
X142240000Y-93980000D02*
X140970000Y-93980000D01*
X143510000Y-87376000D02*
X143510000Y-90805000D01*
D24*
X169735500Y-93789500D02*
X165417500Y-98107500D01*
X165417500Y-98107500D02*
X163830000Y-99695000D01*
X170180000Y-93345000D02*
X169735500Y-93789500D01*
X191346000Y-98638000D02*
X193464000Y-96520000D01*
X188595000Y-89535000D02*
X188595000Y-88900000D01*
X167640000Y-102235000D02*
X168910000Y-103505000D01*
X172720000Y-86995000D02*
X172720000Y-90170000D01*
X171450000Y-91440000D02*
X170180000Y-91440000D01*
X163830000Y-99695000D02*
X163830000Y-100965000D01*
X188595000Y-89535000D02*
X188595000Y-94107000D01*
X146685000Y-90805000D02*
X143510000Y-90805000D01*
D25*
X143510000Y-90805000D02*
X143510000Y-91440000D01*
D24*
X193802000Y-96647000D02*
X193675000Y-96520000D01*
X188595000Y-88900000D02*
X186690000Y-86995000D01*
X165100000Y-102235000D02*
X167640000Y-102235000D01*
X191095000Y-94655000D02*
X189103000Y-96647000D01*
X191095000Y-89535000D02*
X191095000Y-94655000D01*
X190500000Y-90130000D02*
X191095000Y-89535000D01*
X189103000Y-96647000D02*
X188595000Y-96647000D01*
X191262000Y-96520000D02*
X191389000Y-96520000D01*
X188595000Y-99187000D02*
X191262000Y-96520000D01*
X196810000Y-93512000D02*
X196215000Y-94107000D01*
X196850000Y-91440000D02*
X196215000Y-92075000D01*
X196215000Y-92075000D02*
X196215000Y-94107000D01*
X196850000Y-87630000D02*
X196850000Y-91440000D01*
X185420000Y-98806000D02*
X184023000Y-97409000D01*
X184023000Y-97409000D02*
X181991000Y-97409000D01*
X185420000Y-101854000D02*
X185420000Y-98806000D01*
X181991000Y-97409000D02*
X180340000Y-95758000D01*
X185420000Y-101854000D02*
X188468000Y-101854000D01*
X188468000Y-101854000D02*
X188595000Y-101727000D01*
X186055000Y-90170000D02*
X185420000Y-90170000D01*
X194945000Y-100457000D02*
X187325000Y-100457000D01*
X186817000Y-99949000D02*
X186817000Y-90932000D01*
X196215000Y-101727000D02*
X194945000Y-100457000D01*
X182880000Y-87630000D02*
X185420000Y-90170000D01*
X196215000Y-101727000D02*
X196723000Y-101727000D01*
X186817000Y-90932000D02*
X186055000Y-90170000D01*
X187325000Y-100457000D02*
X186817000Y-99949000D01*
D25*
X196215000Y-99187000D02*
X193548000Y-99187000D01*
X140970000Y-87376000D02*
X140970000Y-91440000D01*
X140970000Y-91440000D02*
X139700000Y-91440000D01*
X139700000Y-91440000D02*
X138430000Y-92710000D01*
X193548000Y-99187000D02*
X193421000Y-99060000D01*
X138430000Y-92710000D02*
X138430000Y-102616000D01*
D24*
X145542000Y-96520000D02*
X143510000Y-98552000D01*
X143510000Y-98552000D02*
X143510000Y-102616000D01*
X135890000Y-93980000D02*
X137160000Y-95250000D01*
X137160000Y-95250000D02*
X137160000Y-101346000D01*
X137160000Y-101346000D02*
X135890000Y-102616000D01*
X133350000Y-97155000D02*
X133350000Y-102616000D01*
X135890000Y-96520000D02*
X133985000Y-96520000D01*
X133985000Y-96520000D02*
X133350000Y-97155000D01*
X127000000Y-94615000D02*
X130175000Y-91440000D01*
X121285000Y-93345000D02*
X122555000Y-94615000D01*
X130810000Y-91440000D02*
X130810000Y-87376000D01*
X122555000Y-94615000D02*
X127000000Y-94615000D01*
X121285000Y-91440000D02*
X121285000Y-93345000D01*
X130175000Y-91440000D02*
X130810000Y-91440000D01*
X128905000Y-95885000D02*
X130810000Y-93980000D01*
X118745000Y-93980000D02*
X120650000Y-95885000D01*
X118745000Y-91440000D02*
X118745000Y-93980000D01*
X133350000Y-91440000D02*
X133350000Y-87376000D01*
X120650000Y-95885000D02*
X128905000Y-95885000D01*
X130810000Y-93980000D02*
X133350000Y-91440000D01*
X145542000Y-93980000D02*
X147320000Y-95758000D01*
X147320000Y-100330000D02*
X146050000Y-101600000D01*
X147320000Y-95758000D02*
X147320000Y-100330000D01*
X146050000Y-101600000D02*
X146050000Y-102616000D01*
X135890000Y-87376000D02*
X135890000Y-91440000D01*
X148760000Y-90805000D02*
X148760000Y-87546000D01*
X148590000Y-91270000D02*
X148760000Y-91440000D01*
X148760000Y-87546000D02*
X148590000Y-87376000D01*
X167640000Y-93980000D02*
X167640000Y-90170000D01*
X167640000Y-90170000D02*
X166370000Y-88900000D01*
X164465000Y-88900000D02*
X163195000Y-87630000D01*
X163195000Y-87630000D02*
X163195000Y-86995000D01*
X166370000Y-88900000D02*
X164465000Y-88900000D01*
X163830000Y-103505000D02*
X162560000Y-102235000D01*
X162560000Y-93980000D02*
X162560000Y-92710000D01*
X162560000Y-102235000D02*
X162560000Y-93980000D01*
X162560000Y-92710000D02*
X163830000Y-91440000D01*
X163830000Y-91440000D02*
X165100000Y-91440000D01*
X166370000Y-100965000D02*
X166370000Y-98425000D01*
X166370000Y-98425000D02*
X170180000Y-94615000D01*
X170180000Y-94615000D02*
X173990000Y-94615000D01*
X185420000Y-93980000D02*
X185420000Y-95758000D01*
X181610000Y-90170000D02*
X185420000Y-93980000D01*
X180340000Y-90170000D02*
X181610000Y-90170000D01*
G04 #@! TA.AperFunction,Conductor*
G36*
X192506240Y-97430234D02*
G01*
X192532329Y-97460339D01*
X192534181Y-97463341D01*
X192534183Y-97463344D01*
X192658154Y-97587315D01*
X192798847Y-97674095D01*
X192845571Y-97726043D01*
X192856794Y-97795006D01*
X192828950Y-97859088D01*
X192772759Y-97897338D01*
X192764173Y-97900183D01*
X192764163Y-97900187D01*
X192614842Y-97992289D01*
X192490788Y-98116343D01*
X192490783Y-98116349D01*
X192488741Y-98119661D01*
X192486747Y-98121453D01*
X192486307Y-98122011D01*
X192486211Y-98121935D01*
X192436791Y-98166383D01*
X192367828Y-98177602D01*
X192303747Y-98149755D01*
X192277668Y-98119656D01*
X192275819Y-98116659D01*
X192275816Y-98116655D01*
X192151845Y-97992684D01*
X192011152Y-97905904D01*
X191964428Y-97853956D01*
X191953205Y-97784993D01*
X191981049Y-97720911D01*
X192037246Y-97682659D01*
X192045834Y-97679814D01*
X192195156Y-97587712D01*
X192319212Y-97463656D01*
X192321252Y-97460347D01*
X192323245Y-97458555D01*
X192323693Y-97457989D01*
X192323789Y-97458065D01*
X192373194Y-97413623D01*
X192442156Y-97402395D01*
X192506240Y-97430234D01*
G37*
G04 #@! TD.AperFunction*
G04 #@! TA.AperFunction,Conductor*
G36*
X188845000Y-90834999D02*
G01*
X189194972Y-90834999D01*
X189194986Y-90834998D01*
X189297697Y-90824505D01*
X189464119Y-90769358D01*
X189464124Y-90769356D01*
X189613345Y-90677315D01*
X189737318Y-90553342D01*
X189739165Y-90550348D01*
X189740969Y-90548724D01*
X189741798Y-90547677D01*
X189741976Y-90547818D01*
X189791110Y-90503621D01*
X189860073Y-90492396D01*
X189924156Y-90520236D01*
X189950243Y-90550341D01*
X189952288Y-90553656D01*
X190076344Y-90677712D01*
X190225666Y-90769814D01*
X190392203Y-90824999D01*
X190392209Y-90824999D01*
X190396448Y-90825907D01*
X190457884Y-90859185D01*
X190491576Y-90920394D01*
X190494500Y-90947162D01*
X190494500Y-93064381D01*
X190474815Y-93131420D01*
X190422011Y-93177175D01*
X190352853Y-93187119D01*
X190289297Y-93158094D01*
X190254318Y-93107714D01*
X190238354Y-93064913D01*
X190238350Y-93064906D01*
X190152190Y-92949812D01*
X190152187Y-92949809D01*
X190037093Y-92863649D01*
X190037086Y-92863645D01*
X189902379Y-92813403D01*
X189902372Y-92813401D01*
X189842844Y-92807000D01*
X188845000Y-92807000D01*
X188845000Y-93791314D01*
X188840606Y-93786920D01*
X188749394Y-93734259D01*
X188647661Y-93707000D01*
X188542339Y-93707000D01*
X188440606Y-93734259D01*
X188349394Y-93786920D01*
X188345000Y-93791314D01*
X188345000Y-92807000D01*
X187541500Y-92807000D01*
X187474461Y-92787315D01*
X187428706Y-92734511D01*
X187417500Y-92683000D01*
X187417500Y-91021060D01*
X187417501Y-91021047D01*
X187417501Y-90852944D01*
X187416169Y-90847972D01*
X187410396Y-90826427D01*
X187412059Y-90756579D01*
X187451221Y-90698717D01*
X187515449Y-90671212D01*
X187584352Y-90682798D01*
X187595268Y-90688797D01*
X187725869Y-90769353D01*
X187725880Y-90769358D01*
X187892302Y-90824505D01*
X187892309Y-90824506D01*
X187995019Y-90834999D01*
X188344999Y-90834999D01*
X188345000Y-90834998D01*
X188345000Y-89850686D01*
X188349394Y-89855080D01*
X188440606Y-89907741D01*
X188542339Y-89935000D01*
X188647661Y-89935000D01*
X188749394Y-89907741D01*
X188840606Y-89855080D01*
X188845000Y-89850686D01*
X188845000Y-90834999D01*
G37*
G04 #@! TD.AperFunction*
G04 #@! TA.AperFunction,Conductor*
G36*
X189705059Y-84474685D02*
G01*
X189745406Y-84516999D01*
X189810143Y-84629126D01*
X189810148Y-84629132D01*
X189810149Y-84629134D01*
X189971978Y-84840035D01*
X189971984Y-84840042D01*
X190159957Y-85028015D01*
X190159964Y-85028021D01*
X190179085Y-85042693D01*
X190370874Y-85189857D01*
X190370881Y-85189861D01*
X190601096Y-85322777D01*
X190601101Y-85322779D01*
X190601104Y-85322781D01*
X190846715Y-85424516D01*
X191103504Y-85493323D01*
X191367076Y-85528023D01*
X191426207Y-85528023D01*
X191430894Y-85528320D01*
X191436225Y-85528297D01*
X191436228Y-85528298D01*
X191500352Y-85528026D01*
X191500939Y-85528024D01*
X191501463Y-85528023D01*
X191571244Y-85528023D01*
X191575907Y-85527705D01*
X198000939Y-85500501D01*
X198001464Y-85500500D01*
X198934108Y-85500500D01*
X198993038Y-85500500D01*
X199006922Y-85501280D01*
X199097266Y-85511459D01*
X199124331Y-85517636D01*
X199203540Y-85545352D01*
X199228553Y-85557398D01*
X199299606Y-85602043D01*
X199321313Y-85619355D01*
X199380644Y-85678686D01*
X199397957Y-85700395D01*
X199442600Y-85771444D01*
X199454648Y-85796462D01*
X199482362Y-85875666D01*
X199488540Y-85902735D01*
X199497492Y-85982183D01*
X199498720Y-85993076D01*
X199499500Y-86006961D01*
X199499500Y-103993038D01*
X199498720Y-104006923D01*
X199488540Y-104097264D01*
X199482362Y-104124333D01*
X199454648Y-104203537D01*
X199442600Y-104228555D01*
X199397957Y-104299604D01*
X199380644Y-104321313D01*
X199321313Y-104380644D01*
X199299604Y-104397957D01*
X199228555Y-104442600D01*
X199203537Y-104454648D01*
X199124333Y-104482362D01*
X199097264Y-104488540D01*
X199017075Y-104497576D01*
X199006921Y-104498720D01*
X198993038Y-104499500D01*
X191368872Y-104499500D01*
X191137772Y-104529926D01*
X191108884Y-104533730D01*
X190960262Y-104573553D01*
X190855581Y-104601602D01*
X190855571Y-104601605D01*
X190613309Y-104701953D01*
X190613299Y-104701958D01*
X190386196Y-104833075D01*
X190178148Y-104992718D01*
X189992718Y-105178148D01*
X189852036Y-105361487D01*
X189795608Y-105402689D01*
X189753661Y-105410000D01*
X188661363Y-105410000D01*
X188594324Y-105390315D01*
X188558189Y-105354783D01*
X187325000Y-103505000D01*
X184150000Y-103505000D01*
X184149999Y-103505000D01*
X182452529Y-105202469D01*
X182391206Y-105235954D01*
X182321514Y-105230970D01*
X182265581Y-105189098D01*
X182264566Y-105187723D01*
X182144517Y-105022490D01*
X181977510Y-104855483D01*
X181786433Y-104716657D01*
X181757575Y-104701953D01*
X181575996Y-104609433D01*
X181351368Y-104536446D01*
X181118097Y-104499500D01*
X181118092Y-104499500D01*
X181065892Y-104499500D01*
X173065892Y-104499500D01*
X173000000Y-104499500D01*
X172881908Y-104499500D01*
X172881903Y-104499500D01*
X172648631Y-104536446D01*
X172424003Y-104609433D01*
X172213566Y-104716657D01*
X172128545Y-104778429D01*
X172022490Y-104855483D01*
X172022488Y-104855485D01*
X172022487Y-104855485D01*
X171855485Y-105022487D01*
X171855485Y-105022488D01*
X171855483Y-105022490D01*
X171795862Y-105104550D01*
X171716657Y-105213566D01*
X171705250Y-105235954D01*
X171653505Y-105337511D01*
X171651067Y-105342295D01*
X171603092Y-105393091D01*
X171540582Y-105410000D01*
X171460721Y-105410000D01*
X171393682Y-105390315D01*
X171347927Y-105337511D01*
X171347165Y-105335809D01*
X171324174Y-105283395D01*
X171188166Y-105075217D01*
X171139624Y-105022487D01*
X171019744Y-104892262D01*
X170823509Y-104739526D01*
X170823507Y-104739525D01*
X170823506Y-104739524D01*
X170604811Y-104621172D01*
X170604802Y-104621169D01*
X170369616Y-104540429D01*
X170124335Y-104499500D01*
X170099891Y-104499500D01*
X170032852Y-104479815D01*
X169987097Y-104427011D01*
X169977153Y-104357853D01*
X169998316Y-104304376D01*
X170083600Y-104182578D01*
X170183429Y-103968492D01*
X170183432Y-103968486D01*
X170240636Y-103755000D01*
X169343012Y-103755000D01*
X169375925Y-103697993D01*
X169410000Y-103570826D01*
X169410000Y-103439174D01*
X169375925Y-103312007D01*
X169343012Y-103255000D01*
X170240636Y-103255000D01*
X170240635Y-103254999D01*
X170183432Y-103041513D01*
X170183429Y-103041507D01*
X170083600Y-102827422D01*
X170083599Y-102827420D01*
X169948113Y-102633926D01*
X169948108Y-102633920D01*
X169781078Y-102466890D01*
X169595405Y-102336879D01*
X169551780Y-102282302D01*
X169544588Y-102212804D01*
X169576110Y-102150449D01*
X169595406Y-102133730D01*
X169595842Y-102133425D01*
X169781401Y-102003495D01*
X169948495Y-101836401D01*
X170084035Y-101642830D01*
X170087694Y-101634983D01*
X172689500Y-101634983D01*
X172689500Y-102835001D01*
X172689501Y-102835018D01*
X172700000Y-102937796D01*
X172700001Y-102937799D01*
X172755185Y-103104331D01*
X172755187Y-103104336D01*
X172763832Y-103118351D01*
X172847288Y-103253656D01*
X172971344Y-103377712D01*
X173120666Y-103469814D01*
X173287203Y-103524999D01*
X173389991Y-103535500D01*
X174590008Y-103535499D01*
X174692797Y-103524999D01*
X174859334Y-103469814D01*
X175008656Y-103377712D01*
X175132712Y-103253656D01*
X175134461Y-103250819D01*
X175136169Y-103249283D01*
X175137193Y-103247989D01*
X175137414Y-103248163D01*
X175186406Y-103204096D01*
X175255368Y-103192872D01*
X175319451Y-103220713D01*
X175345537Y-103250817D01*
X175347288Y-103253656D01*
X175471344Y-103377712D01*
X175620666Y-103469814D01*
X175787203Y-103524999D01*
X175889991Y-103535500D01*
X177090008Y-103535499D01*
X177192797Y-103524999D01*
X177359334Y-103469814D01*
X177508656Y-103377712D01*
X177632712Y-103253656D01*
X177724814Y-103104334D01*
X177779999Y-102937797D01*
X177790500Y-102835009D01*
X177790499Y-101853999D01*
X179134357Y-101853999D01*
X179134357Y-101854000D01*
X179154884Y-102075535D01*
X179154885Y-102075537D01*
X179215769Y-102289523D01*
X179215775Y-102289538D01*
X179314938Y-102488683D01*
X179314943Y-102488691D01*
X179449020Y-102666238D01*
X179613437Y-102816123D01*
X179613439Y-102816125D01*
X179802595Y-102933245D01*
X179802596Y-102933245D01*
X179802599Y-102933247D01*
X180010060Y-103013618D01*
X180228757Y-103054500D01*
X180228759Y-103054500D01*
X180451241Y-103054500D01*
X180451243Y-103054500D01*
X180669940Y-103013618D01*
X180877401Y-102933247D01*
X181066562Y-102816124D01*
X181230981Y-102666236D01*
X181365058Y-102488689D01*
X181464229Y-102289528D01*
X181525115Y-102075536D01*
X181545643Y-101854000D01*
X181525115Y-101632464D01*
X181464229Y-101418472D01*
X181464224Y-101418461D01*
X181365061Y-101219316D01*
X181365056Y-101219308D01*
X181230979Y-101041761D01*
X181066562Y-100891876D01*
X181066560Y-100891874D01*
X180877404Y-100774754D01*
X180877398Y-100774752D01*
X180669940Y-100694382D01*
X180451243Y-100653500D01*
X180228757Y-100653500D01*
X180010060Y-100694382D01*
X179880035Y-100744754D01*
X179802601Y-100774752D01*
X179802595Y-100774754D01*
X179613439Y-100891874D01*
X179613437Y-100891876D01*
X179449020Y-101041761D01*
X179314943Y-101219308D01*
X179314938Y-101219316D01*
X179215775Y-101418461D01*
X179215769Y-101418476D01*
X179154885Y-101632462D01*
X179154884Y-101632464D01*
X179134357Y-101853999D01*
X177790499Y-101853999D01*
X177790499Y-101634992D01*
X177790102Y-101631110D01*
X177779999Y-101532203D01*
X177779998Y-101532200D01*
X177748462Y-101437032D01*
X177724814Y-101365666D01*
X177632712Y-101216344D01*
X177508656Y-101092288D01*
X177409010Y-101030826D01*
X177359336Y-101000187D01*
X177359331Y-101000185D01*
X177357862Y-100999698D01*
X177192797Y-100945001D01*
X177192795Y-100945000D01*
X177090010Y-100934500D01*
X175889998Y-100934500D01*
X175889981Y-100934501D01*
X175787203Y-100945000D01*
X175787200Y-100945001D01*
X175620668Y-101000185D01*
X175620663Y-101000187D01*
X175471342Y-101092289D01*
X175347285Y-101216346D01*
X175345537Y-101219182D01*
X175343829Y-101220717D01*
X175342807Y-101222011D01*
X175342585Y-101221836D01*
X175293589Y-101265905D01*
X175224626Y-101277126D01*
X175160544Y-101249282D01*
X175134463Y-101219182D01*
X175132714Y-101216346D01*
X175008657Y-101092289D01*
X175008656Y-101092288D01*
X174909010Y-101030826D01*
X174859336Y-101000187D01*
X174859331Y-101000185D01*
X174857862Y-100999698D01*
X174692797Y-100945001D01*
X174692795Y-100945000D01*
X174590010Y-100934500D01*
X173389998Y-100934500D01*
X173389981Y-100934501D01*
X173287203Y-100945000D01*
X173287200Y-100945001D01*
X173120668Y-101000185D01*
X173120663Y-101000187D01*
X172971342Y-101092289D01*
X172847289Y-101216342D01*
X172755187Y-101365663D01*
X172755185Y-101365668D01*
X172754152Y-101368786D01*
X172700001Y-101532203D01*
X172700001Y-101532204D01*
X172700000Y-101532204D01*
X172689500Y-101634983D01*
X170087694Y-101634983D01*
X170183903Y-101428663D01*
X170245063Y-101200408D01*
X170265659Y-100965000D01*
X170245063Y-100729592D01*
X170183903Y-100501337D01*
X170084035Y-100287171D01*
X170078731Y-100279595D01*
X169948494Y-100093597D01*
X169781402Y-99926506D01*
X169781395Y-99926501D01*
X169765318Y-99915244D01*
X169700622Y-99869943D01*
X169587834Y-99790967D01*
X169587830Y-99790965D01*
X169582085Y-99788286D01*
X169373663Y-99691097D01*
X169373659Y-99691096D01*
X169373655Y-99691094D01*
X169145413Y-99629938D01*
X169145403Y-99629936D01*
X168910001Y-99609341D01*
X168909999Y-99609341D01*
X168674596Y-99629936D01*
X168674586Y-99629938D01*
X168446344Y-99691094D01*
X168446335Y-99691098D01*
X168232171Y-99790964D01*
X168232169Y-99790965D01*
X168038597Y-99926505D01*
X167871505Y-100093597D01*
X167741575Y-100279158D01*
X167686998Y-100322783D01*
X167617500Y-100329977D01*
X167555145Y-100298454D01*
X167538425Y-100279158D01*
X167408494Y-100093597D01*
X167241402Y-99926506D01*
X167241395Y-99926501D01*
X167225318Y-99915244D01*
X167160622Y-99869943D01*
X167047831Y-99790965D01*
X167047826Y-99790962D01*
X167042091Y-99788288D01*
X166989653Y-99742113D01*
X166970500Y-99675908D01*
X166970500Y-98805999D01*
X179134357Y-98805999D01*
X179134357Y-98806000D01*
X179154884Y-99027535D01*
X179154885Y-99027537D01*
X179215769Y-99241523D01*
X179215775Y-99241538D01*
X179314938Y-99440683D01*
X179314943Y-99440691D01*
X179449020Y-99618238D01*
X179613437Y-99768123D01*
X179613439Y-99768125D01*
X179802595Y-99885245D01*
X179802596Y-99885245D01*
X179802599Y-99885247D01*
X180010060Y-99965618D01*
X180228757Y-100006500D01*
X180228759Y-100006500D01*
X180451241Y-100006500D01*
X180451243Y-100006500D01*
X180669940Y-99965618D01*
X180877401Y-99885247D01*
X181066562Y-99768124D01*
X181206282Y-99640751D01*
X181230979Y-99618238D01*
X181256074Y-99585008D01*
X181365058Y-99440689D01*
X181464229Y-99241528D01*
X181525115Y-99027536D01*
X181545643Y-98806000D01*
X181525115Y-98584464D01*
X181464229Y-98370472D01*
X181448950Y-98339787D01*
X181365061Y-98171316D01*
X181365056Y-98171308D01*
X181230979Y-97993761D01*
X181066562Y-97843876D01*
X181066560Y-97843874D01*
X180877404Y-97726754D01*
X180877398Y-97726752D01*
X180875568Y-97726043D01*
X180669940Y-97646382D01*
X180451243Y-97605500D01*
X180228757Y-97605500D01*
X180010060Y-97646382D01*
X179917841Y-97682108D01*
X179802601Y-97726752D01*
X179802595Y-97726754D01*
X179613439Y-97843874D01*
X179613437Y-97843876D01*
X179449020Y-97993761D01*
X179314943Y-98171308D01*
X179314938Y-98171316D01*
X179215775Y-98370461D01*
X179215769Y-98370476D01*
X179154885Y-98584462D01*
X179154884Y-98584464D01*
X179134357Y-98805999D01*
X166970500Y-98805999D01*
X166970500Y-98725097D01*
X166990185Y-98658058D01*
X167006819Y-98637416D01*
X167912639Y-97731596D01*
X168825264Y-96818970D01*
X168886585Y-96785487D01*
X168956277Y-96790471D01*
X169012210Y-96832343D01*
X169032209Y-96872718D01*
X169055770Y-96955525D01*
X169055775Y-96955538D01*
X169154938Y-97154683D01*
X169154943Y-97154691D01*
X169289020Y-97332238D01*
X169453437Y-97482123D01*
X169453439Y-97482125D01*
X169642595Y-97599245D01*
X169642596Y-97599245D01*
X169642599Y-97599247D01*
X169850060Y-97679618D01*
X170068757Y-97720500D01*
X170068759Y-97720500D01*
X170291241Y-97720500D01*
X170291243Y-97720500D01*
X170509940Y-97679618D01*
X170717401Y-97599247D01*
X170906562Y-97482124D01*
X171070981Y-97332236D01*
X171205058Y-97154689D01*
X171304229Y-96955528D01*
X171365115Y-96741536D01*
X171385643Y-96520000D01*
X171383743Y-96499500D01*
X171365115Y-96298464D01*
X171365114Y-96298462D01*
X171365049Y-96298234D01*
X171304229Y-96084472D01*
X171290223Y-96056344D01*
X171205061Y-95885316D01*
X171205056Y-95885308D01*
X171070979Y-95707761D01*
X170906562Y-95557876D01*
X170906560Y-95557874D01*
X170724143Y-95444927D01*
X170677507Y-95392899D01*
X170666403Y-95323918D01*
X170694356Y-95259883D01*
X170752491Y-95221127D01*
X170789420Y-95215500D01*
X172577837Y-95215500D01*
X172644876Y-95235185D01*
X172690631Y-95287989D01*
X172699089Y-95313541D01*
X172699999Y-95317792D01*
X172755185Y-95484331D01*
X172755187Y-95484336D01*
X172781018Y-95526214D01*
X172847288Y-95633656D01*
X172971344Y-95757712D01*
X173120666Y-95849814D01*
X173287203Y-95904999D01*
X173389991Y-95915500D01*
X174590008Y-95915499D01*
X174692797Y-95904999D01*
X174859334Y-95849814D01*
X175008656Y-95757712D01*
X175132712Y-95633656D01*
X175134461Y-95630819D01*
X175136169Y-95629283D01*
X175137193Y-95627989D01*
X175137414Y-95628163D01*
X175186406Y-95584096D01*
X175255368Y-95572872D01*
X175319451Y-95600713D01*
X175345537Y-95630817D01*
X175347288Y-95633656D01*
X175471344Y-95757712D01*
X175620666Y-95849814D01*
X175787203Y-95904999D01*
X175889991Y-95915500D01*
X177090008Y-95915499D01*
X177192797Y-95904999D01*
X177359334Y-95849814D01*
X177508191Y-95757999D01*
X179134357Y-95757999D01*
X179134357Y-95758000D01*
X179154884Y-95979535D01*
X179154885Y-95979537D01*
X179215769Y-96193523D01*
X179215775Y-96193538D01*
X179314938Y-96392683D01*
X179314942Y-96392689D01*
X179449020Y-96570238D01*
X179563367Y-96674478D01*
X179608068Y-96715229D01*
X179613437Y-96720123D01*
X179613439Y-96720125D01*
X179802595Y-96837245D01*
X179802596Y-96837245D01*
X179802599Y-96837247D01*
X180010060Y-96917618D01*
X180228757Y-96958500D01*
X180228759Y-96958500D01*
X180451241Y-96958500D01*
X180451243Y-96958500D01*
X180589214Y-96932708D01*
X180658729Y-96939739D01*
X180699680Y-96966916D01*
X181622284Y-97889520D01*
X181622286Y-97889521D01*
X181622290Y-97889524D01*
X181699513Y-97934108D01*
X181759216Y-97968577D01*
X181911943Y-98009501D01*
X181911945Y-98009501D01*
X182077654Y-98009501D01*
X182077670Y-98009500D01*
X183722903Y-98009500D01*
X183789942Y-98029185D01*
X183810584Y-98045819D01*
X184208685Y-98443920D01*
X184242170Y-98505243D01*
X184240271Y-98565532D01*
X184234885Y-98584462D01*
X184214357Y-98805999D01*
X184214357Y-98806000D01*
X184234884Y-99027535D01*
X184234885Y-99027537D01*
X184295769Y-99241523D01*
X184295775Y-99241538D01*
X184394938Y-99440683D01*
X184394943Y-99440691D01*
X184529020Y-99618238D01*
X184693433Y-99768120D01*
X184693435Y-99768121D01*
X184693438Y-99768124D01*
X184760778Y-99809818D01*
X184807412Y-99861843D01*
X184819500Y-99915244D01*
X184819500Y-100744754D01*
X184799815Y-100811793D01*
X184760778Y-100850181D01*
X184693436Y-100891877D01*
X184529020Y-101041761D01*
X184394943Y-101219308D01*
X184394938Y-101219316D01*
X184295775Y-101418461D01*
X184295769Y-101418476D01*
X184234885Y-101632462D01*
X184234884Y-101632464D01*
X184214357Y-101853999D01*
X184214357Y-101854000D01*
X184234884Y-102075535D01*
X184234885Y-102075537D01*
X184295769Y-102289523D01*
X184295775Y-102289538D01*
X184394938Y-102488683D01*
X184394943Y-102488691D01*
X184529020Y-102666238D01*
X184693437Y-102816123D01*
X184693439Y-102816125D01*
X184882595Y-102933245D01*
X184882596Y-102933245D01*
X184882599Y-102933247D01*
X185090060Y-103013618D01*
X185308757Y-103054500D01*
X185308759Y-103054500D01*
X185531241Y-103054500D01*
X185531243Y-103054500D01*
X185749940Y-103013618D01*
X185957401Y-102933247D01*
X186146562Y-102816124D01*
X186310981Y-102666236D01*
X186433667Y-102503772D01*
X186489776Y-102462137D01*
X186532621Y-102454500D01*
X187052872Y-102454500D01*
X187119911Y-102474185D01*
X187153191Y-102505615D01*
X187203034Y-102574219D01*
X187347786Y-102718971D01*
X187486286Y-102819595D01*
X187513390Y-102839287D01*
X187629607Y-102898503D01*
X187695776Y-102932218D01*
X187695778Y-102932218D01*
X187695781Y-102932220D01*
X187800137Y-102966127D01*
X187890465Y-102995477D01*
X187991557Y-103011488D01*
X188092648Y-103027500D01*
X188092649Y-103027500D01*
X189097351Y-103027500D01*
X189097352Y-103027500D01*
X189299534Y-102995477D01*
X189494219Y-102932220D01*
X189676610Y-102839287D01*
X189769590Y-102771732D01*
X189842213Y-102718971D01*
X189842215Y-102718968D01*
X189842219Y-102718966D01*
X189986966Y-102574219D01*
X189986968Y-102574215D01*
X189986971Y-102574213D01*
X190059644Y-102474185D01*
X190107287Y-102408610D01*
X190200220Y-102226219D01*
X190263477Y-102031534D01*
X190295500Y-101829352D01*
X190295500Y-101624648D01*
X190291517Y-101599500D01*
X190263477Y-101422465D01*
X190216253Y-101277126D01*
X190200220Y-101227781D01*
X190200218Y-101227777D01*
X190198714Y-101223148D01*
X190200035Y-101222718D01*
X190193236Y-101159486D01*
X190224509Y-101097006D01*
X190284597Y-101061352D01*
X190315266Y-101057500D01*
X194494733Y-101057500D01*
X194561772Y-101077185D01*
X194607527Y-101129989D01*
X194617471Y-101199147D01*
X194610920Y-101223029D01*
X194611285Y-101223148D01*
X194546523Y-101422461D01*
X194546523Y-101422464D01*
X194518483Y-101599500D01*
X194514500Y-101624648D01*
X194514500Y-101829352D01*
X194515617Y-101836402D01*
X194546522Y-102031534D01*
X194609781Y-102226223D01*
X194702715Y-102408613D01*
X194823028Y-102574213D01*
X194967786Y-102718971D01*
X195106286Y-102819595D01*
X195133390Y-102839287D01*
X195249607Y-102898503D01*
X195315776Y-102932218D01*
X195315778Y-102932218D01*
X195315781Y-102932220D01*
X195420137Y-102966127D01*
X195510465Y-102995477D01*
X195611557Y-103011488D01*
X195712648Y-103027500D01*
X195712649Y-103027500D01*
X196717351Y-103027500D01*
X196717352Y-103027500D01*
X196919534Y-102995477D01*
X197114219Y-102932220D01*
X197296610Y-102839287D01*
X197389590Y-102771732D01*
X197462213Y-102718971D01*
X197462215Y-102718968D01*
X197462219Y-102718966D01*
X197606966Y-102574219D01*
X197606968Y-102574215D01*
X197606971Y-102574213D01*
X197679644Y-102474185D01*
X197727287Y-102408610D01*
X197820220Y-102226219D01*
X197883477Y-102031534D01*
X197915500Y-101829352D01*
X197915500Y-101624648D01*
X197911517Y-101599500D01*
X197883477Y-101422465D01*
X197832607Y-101265905D01*
X197820220Y-101227781D01*
X197820218Y-101227778D01*
X197820218Y-101227776D01*
X197770392Y-101129989D01*
X197727287Y-101045390D01*
X197708053Y-101018916D01*
X197606971Y-100879786D01*
X197462213Y-100735028D01*
X197296614Y-100614715D01*
X197290006Y-100611348D01*
X197203917Y-100567483D01*
X197153123Y-100519511D01*
X197136328Y-100451690D01*
X197158865Y-100385555D01*
X197203917Y-100346516D01*
X197296610Y-100299287D01*
X197341560Y-100266629D01*
X197462213Y-100178971D01*
X197462215Y-100178968D01*
X197462219Y-100178966D01*
X197606966Y-100034219D01*
X197606968Y-100034215D01*
X197606971Y-100034213D01*
X197662436Y-99957870D01*
X197727287Y-99868610D01*
X197820220Y-99686219D01*
X197883477Y-99491534D01*
X197915500Y-99289352D01*
X197915500Y-99084648D01*
X197883477Y-98882466D01*
X197820220Y-98687781D01*
X197820218Y-98687778D01*
X197820218Y-98687776D01*
X197767576Y-98584462D01*
X197727287Y-98505390D01*
X197682627Y-98443920D01*
X197606971Y-98339786D01*
X197462213Y-98195028D01*
X197296611Y-98074713D01*
X197203369Y-98027203D01*
X197152574Y-97979229D01*
X197135779Y-97911407D01*
X197158317Y-97845273D01*
X197203371Y-97806234D01*
X197296347Y-97758861D01*
X197461894Y-97638582D01*
X197461895Y-97638582D01*
X197606582Y-97493895D01*
X197606582Y-97493894D01*
X197726859Y-97328349D01*
X197819755Y-97146029D01*
X197882990Y-96951413D01*
X197891609Y-96897000D01*
X196530686Y-96897000D01*
X196535080Y-96892606D01*
X196587741Y-96801394D01*
X196615000Y-96699661D01*
X196615000Y-96594339D01*
X196587741Y-96492606D01*
X196535080Y-96401394D01*
X196530686Y-96397000D01*
X197891609Y-96397000D01*
X197882990Y-96342586D01*
X197819755Y-96147970D01*
X197726859Y-95965650D01*
X197606582Y-95800105D01*
X197606582Y-95800104D01*
X197461895Y-95655417D01*
X197296349Y-95535140D01*
X197203370Y-95487765D01*
X197152574Y-95439790D01*
X197135779Y-95371969D01*
X197158316Y-95305835D01*
X197203370Y-95266795D01*
X197212500Y-95262143D01*
X197296610Y-95219287D01*
X197358150Y-95174576D01*
X197462213Y-95098971D01*
X197462215Y-95098968D01*
X197462219Y-95098966D01*
X197606966Y-94954219D01*
X197606968Y-94954215D01*
X197606971Y-94954213D01*
X197708394Y-94814614D01*
X197727287Y-94788610D01*
X197820220Y-94606219D01*
X197883477Y-94411534D01*
X197915500Y-94209352D01*
X197915500Y-94004648D01*
X197900858Y-93912203D01*
X197883477Y-93802465D01*
X197821358Y-93611284D01*
X197820220Y-93607781D01*
X197820218Y-93607778D01*
X197820218Y-93607776D01*
X197776330Y-93521642D01*
X197727287Y-93425390D01*
X197701986Y-93390566D01*
X197606971Y-93259786D01*
X197462213Y-93115028D01*
X197296613Y-92994715D01*
X197296612Y-92994714D01*
X197296610Y-92994713D01*
X197114219Y-92901780D01*
X196919534Y-92838523D01*
X196919531Y-92838522D01*
X196914794Y-92837385D01*
X196915070Y-92836233D01*
X196856950Y-92808667D01*
X196820030Y-92749349D01*
X196815500Y-92716139D01*
X196815500Y-92375097D01*
X196835185Y-92308058D01*
X196851819Y-92287416D01*
X197064813Y-92074422D01*
X197330520Y-91808716D01*
X197409577Y-91671784D01*
X197450501Y-91519057D01*
X197450501Y-91360942D01*
X197450501Y-91353339D01*
X197450500Y-91353329D01*
X197450500Y-89042162D01*
X197470185Y-88975123D01*
X197522989Y-88929368D01*
X197548552Y-88920907D01*
X197552788Y-88919999D01*
X197552797Y-88919999D01*
X197719334Y-88864814D01*
X197868656Y-88772712D01*
X197992712Y-88648656D01*
X198084814Y-88499334D01*
X198139999Y-88332797D01*
X198150500Y-88230009D01*
X198150499Y-87029992D01*
X198149732Y-87022488D01*
X198139999Y-86927203D01*
X198139998Y-86927200D01*
X198129442Y-86895344D01*
X198084814Y-86760666D01*
X197992712Y-86611344D01*
X197868656Y-86487288D01*
X197719334Y-86395186D01*
X197552797Y-86340001D01*
X197552795Y-86340000D01*
X197450010Y-86329500D01*
X196249998Y-86329500D01*
X196249981Y-86329501D01*
X196147203Y-86340000D01*
X196147200Y-86340001D01*
X195980668Y-86395185D01*
X195980663Y-86395187D01*
X195831342Y-86487289D01*
X195707285Y-86611346D01*
X195705537Y-86614182D01*
X195703829Y-86615717D01*
X195702807Y-86617011D01*
X195702585Y-86616836D01*
X195653589Y-86660905D01*
X195584626Y-86672126D01*
X195520544Y-86644282D01*
X195494463Y-86614182D01*
X195492714Y-86611346D01*
X195368657Y-86487289D01*
X195368656Y-86487288D01*
X195219334Y-86395186D01*
X195052797Y-86340001D01*
X195052795Y-86340000D01*
X194950010Y-86329500D01*
X193749998Y-86329500D01*
X193749981Y-86329501D01*
X193647203Y-86340000D01*
X193647200Y-86340001D01*
X193480668Y-86395185D01*
X193480663Y-86395187D01*
X193331342Y-86487289D01*
X193207289Y-86611342D01*
X193115187Y-86760663D01*
X193115186Y-86760666D01*
X193060001Y-86927203D01*
X193060001Y-86927204D01*
X193060000Y-86927204D01*
X193049500Y-87029983D01*
X193049500Y-88230001D01*
X193049501Y-88230018D01*
X193060000Y-88332796D01*
X193060001Y-88332799D01*
X193115185Y-88499331D01*
X193115187Y-88499336D01*
X193127724Y-88519661D01*
X193207288Y-88648656D01*
X193331344Y-88772712D01*
X193480666Y-88864814D01*
X193647203Y-88919999D01*
X193749991Y-88930500D01*
X194950008Y-88930499D01*
X194950498Y-88930449D01*
X194967895Y-88928671D01*
X195052797Y-88919999D01*
X195219334Y-88864814D01*
X195368656Y-88772712D01*
X195492712Y-88648656D01*
X195494461Y-88645819D01*
X195496169Y-88644283D01*
X195497193Y-88642989D01*
X195497414Y-88643163D01*
X195546406Y-88599096D01*
X195615368Y-88587872D01*
X195679451Y-88615713D01*
X195705537Y-88645817D01*
X195707288Y-88648656D01*
X195831344Y-88772712D01*
X195980666Y-88864814D01*
X196147203Y-88919999D01*
X196147209Y-88919999D01*
X196151448Y-88920907D01*
X196212884Y-88954185D01*
X196246576Y-89015394D01*
X196249500Y-89042162D01*
X196249500Y-91139902D01*
X196229815Y-91206941D01*
X196213181Y-91227583D01*
X195734481Y-91706282D01*
X195734481Y-91706283D01*
X195734480Y-91706284D01*
X195710017Y-91748656D01*
X195655423Y-91843215D01*
X195614499Y-91995943D01*
X195614499Y-91995945D01*
X195614499Y-92164046D01*
X195614500Y-92164059D01*
X195614500Y-92716139D01*
X195594815Y-92783178D01*
X195542011Y-92828933D01*
X195515123Y-92837040D01*
X195515206Y-92837385D01*
X195510468Y-92838522D01*
X195315778Y-92901781D01*
X195133386Y-92994715D01*
X194967786Y-93115028D01*
X194823028Y-93259786D01*
X194702715Y-93425386D01*
X194609781Y-93607776D01*
X194546522Y-93802465D01*
X194518737Y-93977898D01*
X194514500Y-94004648D01*
X194514500Y-94209352D01*
X194515459Y-94215408D01*
X194546522Y-94411534D01*
X194609781Y-94606223D01*
X194702715Y-94788613D01*
X194823028Y-94954213D01*
X194967786Y-95098971D01*
X195071851Y-95174577D01*
X195133390Y-95219287D01*
X195190098Y-95248181D01*
X195226629Y-95266795D01*
X195277425Y-95314770D01*
X195294220Y-95382591D01*
X195271682Y-95448726D01*
X195226629Y-95487765D01*
X195133650Y-95535140D01*
X194968105Y-95655417D01*
X194968104Y-95655417D01*
X194823417Y-95800104D01*
X194823417Y-95800105D01*
X194750505Y-95900459D01*
X194695175Y-95943124D01*
X194625561Y-95949103D01*
X194563766Y-95916497D01*
X194532481Y-95866577D01*
X194485858Y-95725880D01*
X194485856Y-95725875D01*
X194393815Y-95576654D01*
X194269845Y-95452684D01*
X194120624Y-95360643D01*
X194120619Y-95360641D01*
X193954197Y-95305494D01*
X193954190Y-95305493D01*
X193851486Y-95295000D01*
X193714000Y-95295000D01*
X193714000Y-96270000D01*
X194470500Y-96270000D01*
X194537539Y-96289685D01*
X194583294Y-96342489D01*
X194594500Y-96394000D01*
X194594500Y-96397000D01*
X195899314Y-96397000D01*
X195894920Y-96401394D01*
X195842259Y-96492606D01*
X195815000Y-96594339D01*
X195815000Y-96699661D01*
X195842259Y-96801394D01*
X195894920Y-96892606D01*
X195899314Y-96897000D01*
X194596000Y-96897000D01*
X194528961Y-96877315D01*
X194483206Y-96824511D01*
X194472000Y-96773000D01*
X194472000Y-96770000D01*
X193338000Y-96770000D01*
X193270961Y-96750315D01*
X193225206Y-96697511D01*
X193214000Y-96646000D01*
X193214000Y-95295000D01*
X193076527Y-95295000D01*
X193076512Y-95295001D01*
X192973802Y-95305494D01*
X192807380Y-95360641D01*
X192807375Y-95360643D01*
X192658154Y-95452684D01*
X192534183Y-95576655D01*
X192534179Y-95576660D01*
X192532326Y-95579665D01*
X192530518Y-95581290D01*
X192529702Y-95582323D01*
X192529525Y-95582183D01*
X192480374Y-95626385D01*
X192411411Y-95637601D01*
X192347331Y-95609752D01*
X192321253Y-95579653D01*
X192321237Y-95579628D01*
X192319212Y-95576344D01*
X192195156Y-95452288D01*
X192070625Y-95375477D01*
X192045836Y-95360187D01*
X192045831Y-95360185D01*
X192044362Y-95359698D01*
X191879297Y-95305001D01*
X191879295Y-95305000D01*
X191776516Y-95294500D01*
X191776509Y-95294500D01*
X191604098Y-95294500D01*
X191537059Y-95274815D01*
X191491304Y-95222011D01*
X191481360Y-95152853D01*
X191510385Y-95089297D01*
X191516417Y-95082819D01*
X191526417Y-95072819D01*
X191575520Y-95023716D01*
X191654577Y-94886784D01*
X191695500Y-94734057D01*
X191695500Y-90947162D01*
X191715185Y-90880123D01*
X191767989Y-90834368D01*
X191793552Y-90825907D01*
X191797788Y-90824999D01*
X191797797Y-90824999D01*
X191964334Y-90769814D01*
X192113656Y-90677712D01*
X192237712Y-90553656D01*
X192329814Y-90404334D01*
X192384999Y-90237797D01*
X192395500Y-90135009D01*
X192395499Y-88934992D01*
X192395351Y-88933547D01*
X192384999Y-88832203D01*
X192384998Y-88832200D01*
X192369876Y-88786566D01*
X192329814Y-88665666D01*
X192237712Y-88516344D01*
X192113656Y-88392288D01*
X192008543Y-88327454D01*
X191964336Y-88300187D01*
X191964331Y-88300185D01*
X191954052Y-88296779D01*
X191797797Y-88245001D01*
X191797795Y-88245000D01*
X191695010Y-88234500D01*
X190494998Y-88234500D01*
X190494981Y-88234501D01*
X190392203Y-88245000D01*
X190392200Y-88245001D01*
X190225668Y-88300185D01*
X190225663Y-88300187D01*
X190076342Y-88392289D01*
X189952288Y-88516343D01*
X189952283Y-88516349D01*
X189950241Y-88519661D01*
X189948247Y-88521453D01*
X189947807Y-88522011D01*
X189947711Y-88521935D01*
X189898291Y-88566383D01*
X189829328Y-88577602D01*
X189765247Y-88549755D01*
X189739168Y-88519656D01*
X189737319Y-88516659D01*
X189737316Y-88516655D01*
X189613345Y-88392684D01*
X189464124Y-88300643D01*
X189464119Y-88300641D01*
X189297697Y-88245494D01*
X189297690Y-88245493D01*
X189194986Y-88235000D01*
X188845000Y-88235000D01*
X188845000Y-89219314D01*
X188840606Y-89214920D01*
X188749394Y-89162259D01*
X188647661Y-89135000D01*
X188542339Y-89135000D01*
X188440606Y-89162259D01*
X188349394Y-89214920D01*
X188345000Y-89219314D01*
X188345000Y-88235000D01*
X187995028Y-88235000D01*
X187995012Y-88235001D01*
X187892302Y-88245494D01*
X187725880Y-88300641D01*
X187725875Y-88300643D01*
X187576654Y-88392684D01*
X187452684Y-88516654D01*
X187360643Y-88665875D01*
X187360641Y-88665880D01*
X187305494Y-88832302D01*
X187305493Y-88832309D01*
X187295000Y-88935013D01*
X187295000Y-89285000D01*
X188279314Y-89285000D01*
X188274920Y-89289394D01*
X188222259Y-89380606D01*
X188195000Y-89482339D01*
X188195000Y-89587661D01*
X188222259Y-89689394D01*
X188274920Y-89780606D01*
X188279314Y-89785000D01*
X187295001Y-89785000D01*
X187295001Y-90134986D01*
X187305494Y-90237697D01*
X187306232Y-90239924D01*
X187306282Y-90241380D01*
X187306911Y-90244319D01*
X187306387Y-90244431D01*
X187308634Y-90309752D01*
X187272902Y-90369794D01*
X187210382Y-90400987D01*
X187140922Y-90393426D01*
X187100845Y-90366609D01*
X186542590Y-89808355D01*
X186542588Y-89808352D01*
X186423717Y-89689481D01*
X186423716Y-89689480D01*
X186370390Y-89658692D01*
X186323032Y-89609758D01*
X186322237Y-89608271D01*
X186306040Y-89577967D01*
X186306038Y-89577965D01*
X186306038Y-89577964D01*
X186173515Y-89416484D01*
X186012034Y-89283960D01*
X186012027Y-89283956D01*
X185827806Y-89185488D01*
X185827803Y-89185487D01*
X185827802Y-89185486D01*
X185827799Y-89185485D01*
X185627894Y-89124845D01*
X185627892Y-89124844D01*
X185627894Y-89124844D01*
X185438639Y-89106204D01*
X185420000Y-89104369D01*
X185419999Y-89104369D01*
X185281369Y-89118022D01*
X185212723Y-89105003D01*
X185181535Y-89082300D01*
X183967698Y-87868463D01*
X183934213Y-87807140D01*
X183931976Y-87768632D01*
X183945631Y-87630000D01*
X183925155Y-87422106D01*
X183864515Y-87222201D01*
X183859900Y-87213566D01*
X183766043Y-87037972D01*
X183766039Y-87037965D01*
X183633515Y-86876484D01*
X183472034Y-86743960D01*
X183472027Y-86743956D01*
X183287806Y-86645488D01*
X183287803Y-86645487D01*
X183287802Y-86645486D01*
X183287799Y-86645485D01*
X183087894Y-86584845D01*
X183087892Y-86584844D01*
X183087894Y-86584844D01*
X182880000Y-86564369D01*
X182672107Y-86584844D01*
X182566645Y-86616836D01*
X182472201Y-86645485D01*
X182472198Y-86645486D01*
X182472196Y-86645487D01*
X182472193Y-86645488D01*
X182287972Y-86743956D01*
X182287965Y-86743960D01*
X182126484Y-86876484D01*
X181993960Y-87037965D01*
X181993956Y-87037972D01*
X181895488Y-87222193D01*
X181895487Y-87222196D01*
X181834844Y-87422107D01*
X181814369Y-87630000D01*
X181834844Y-87837892D01*
X181851523Y-87892876D01*
X181895485Y-88037799D01*
X181895486Y-88037802D01*
X181895487Y-88037803D01*
X181895488Y-88037806D01*
X181993956Y-88222027D01*
X181993960Y-88222034D01*
X182126484Y-88383515D01*
X182287965Y-88516039D01*
X182287972Y-88516043D01*
X182472193Y-88614511D01*
X182472194Y-88614511D01*
X182472201Y-88614515D01*
X182672106Y-88675155D01*
X182672105Y-88675155D01*
X182683000Y-88676228D01*
X182880000Y-88695631D01*
X183018629Y-88681976D01*
X183087273Y-88694994D01*
X183118463Y-88717698D01*
X184332300Y-89931535D01*
X184365785Y-89992858D01*
X184368022Y-90031369D01*
X184356712Y-90146206D01*
X184354369Y-90170000D01*
X184355088Y-90177302D01*
X184374844Y-90377892D01*
X184391523Y-90432876D01*
X184435485Y-90577799D01*
X184435486Y-90577802D01*
X184435487Y-90577803D01*
X184435488Y-90577806D01*
X184533956Y-90762027D01*
X184533960Y-90762034D01*
X184666484Y-90923515D01*
X184827965Y-91056039D01*
X184827972Y-91056043D01*
X185012193Y-91154511D01*
X185012194Y-91154511D01*
X185012201Y-91154515D01*
X185212106Y-91215155D01*
X185212105Y-91215155D01*
X185230745Y-91216990D01*
X185420000Y-91235631D01*
X185627894Y-91215155D01*
X185827799Y-91154515D01*
X185982917Y-91071602D01*
X186051313Y-91057362D01*
X186116557Y-91082361D01*
X186129046Y-91093281D01*
X186180181Y-91144416D01*
X186213666Y-91205739D01*
X186216500Y-91232097D01*
X186216500Y-93696808D01*
X186196815Y-93763847D01*
X186144011Y-93809602D01*
X186074853Y-93819546D01*
X186011297Y-93790521D01*
X185985210Y-93754347D01*
X185983641Y-93755254D01*
X185900524Y-93611290D01*
X185900518Y-93611282D01*
X182097590Y-89808355D01*
X182097588Y-89808352D01*
X181978717Y-89689481D01*
X181978716Y-89689480D01*
X181877468Y-89631025D01*
X181877467Y-89631024D01*
X181841783Y-89610422D01*
X181756837Y-89587661D01*
X181689057Y-89569499D01*
X181530943Y-89569499D01*
X181523347Y-89569499D01*
X181523331Y-89569500D01*
X181277739Y-89569500D01*
X181210700Y-89549815D01*
X181181886Y-89524165D01*
X181093515Y-89416484D01*
X180932034Y-89283960D01*
X180932027Y-89283956D01*
X180747806Y-89185488D01*
X180747803Y-89185487D01*
X180747802Y-89185486D01*
X180747799Y-89185485D01*
X180547894Y-89124845D01*
X180547892Y-89124844D01*
X180547894Y-89124844D01*
X180340000Y-89104369D01*
X180132107Y-89124844D01*
X180014075Y-89160648D01*
X179932201Y-89185485D01*
X179932198Y-89185486D01*
X179932196Y-89185487D01*
X179932193Y-89185488D01*
X179747972Y-89283956D01*
X179747965Y-89283960D01*
X179586484Y-89416484D01*
X179453960Y-89577965D01*
X179453956Y-89577972D01*
X179355488Y-89762193D01*
X179355487Y-89762196D01*
X179355486Y-89762198D01*
X179355485Y-89762201D01*
X179330648Y-89844075D01*
X179294844Y-89962107D01*
X179274369Y-90170000D01*
X179294844Y-90377892D01*
X179311523Y-90432876D01*
X179355485Y-90577799D01*
X179355486Y-90577802D01*
X179355487Y-90577803D01*
X179355488Y-90577806D01*
X179453956Y-90762027D01*
X179453960Y-90762034D01*
X179586484Y-90923515D01*
X179747965Y-91056039D01*
X179747972Y-91056043D01*
X179932193Y-91154511D01*
X179932194Y-91154511D01*
X179932201Y-91154515D01*
X180132106Y-91215155D01*
X180132105Y-91215155D01*
X180150745Y-91216990D01*
X180340000Y-91235631D01*
X180547894Y-91215155D01*
X180747799Y-91154515D01*
X180932033Y-91056040D01*
X181093515Y-90923515D01*
X181151432Y-90852943D01*
X181181886Y-90815835D01*
X181239631Y-90776501D01*
X181277739Y-90770500D01*
X181309903Y-90770500D01*
X181376942Y-90790185D01*
X181397584Y-90806819D01*
X184783181Y-94192416D01*
X184816666Y-94253739D01*
X184819500Y-94280097D01*
X184819500Y-94648754D01*
X184799815Y-94715793D01*
X184760778Y-94754181D01*
X184693436Y-94795877D01*
X184529020Y-94945761D01*
X184394943Y-95123308D01*
X184394938Y-95123316D01*
X184295775Y-95322461D01*
X184295769Y-95322476D01*
X184234885Y-95536462D01*
X184234884Y-95536464D01*
X184214357Y-95757999D01*
X184214357Y-95758000D01*
X184234884Y-95979535D01*
X184234885Y-95979537D01*
X184295769Y-96193523D01*
X184295775Y-96193538D01*
X184394938Y-96392683D01*
X184394942Y-96392689D01*
X184529020Y-96570238D01*
X184643367Y-96674478D01*
X184688068Y-96715229D01*
X184693437Y-96720123D01*
X184693439Y-96720125D01*
X184882595Y-96837245D01*
X184882596Y-96837245D01*
X184882599Y-96837247D01*
X185090060Y-96917618D01*
X185308757Y-96958500D01*
X185308759Y-96958500D01*
X185531241Y-96958500D01*
X185531243Y-96958500D01*
X185749940Y-96917618D01*
X185957401Y-96837247D01*
X186027224Y-96794014D01*
X186094583Y-96775459D01*
X186161282Y-96796267D01*
X186206144Y-96849832D01*
X186216500Y-96899442D01*
X186216500Y-97664557D01*
X186196815Y-97731596D01*
X186144011Y-97777351D01*
X186074853Y-97787295D01*
X186027223Y-97769984D01*
X185957404Y-97726755D01*
X185957405Y-97726755D01*
X185957401Y-97726753D01*
X185749940Y-97646382D01*
X185531243Y-97605500D01*
X185308757Y-97605500D01*
X185238734Y-97618589D01*
X185170783Y-97631291D01*
X185101268Y-97624259D01*
X185060318Y-97597083D01*
X184510590Y-97047355D01*
X184510588Y-97047352D01*
X184391717Y-96928481D01*
X184391716Y-96928480D01*
X184304904Y-96878360D01*
X184304904Y-96878359D01*
X184304900Y-96878358D01*
X184254785Y-96849423D01*
X184102057Y-96808499D01*
X183943943Y-96808499D01*
X183936347Y-96808499D01*
X183936331Y-96808500D01*
X182291098Y-96808500D01*
X182224059Y-96788815D01*
X182203417Y-96772181D01*
X181916736Y-96485500D01*
X181551313Y-96120078D01*
X181517829Y-96058756D01*
X181519730Y-95998460D01*
X181520717Y-95994992D01*
X181525115Y-95979536D01*
X181545643Y-95758000D01*
X181535933Y-95653216D01*
X181525115Y-95536464D01*
X181525114Y-95536462D01*
X181524616Y-95534713D01*
X181464229Y-95322472D01*
X181464224Y-95322461D01*
X181365061Y-95123316D01*
X181365056Y-95123308D01*
X181230979Y-94945761D01*
X181066562Y-94795876D01*
X181066560Y-94795874D01*
X180877404Y-94678754D01*
X180877398Y-94678752D01*
X180669940Y-94598382D01*
X180451243Y-94557500D01*
X180228757Y-94557500D01*
X180010060Y-94598382D01*
X179880035Y-94648754D01*
X179802601Y-94678752D01*
X179802595Y-94678754D01*
X179613439Y-94795874D01*
X179613437Y-94795876D01*
X179449020Y-94945761D01*
X179314943Y-95123308D01*
X179314938Y-95123316D01*
X179215775Y-95322461D01*
X179215769Y-95322476D01*
X179154885Y-95536462D01*
X179154884Y-95536464D01*
X179134357Y-95757999D01*
X177508191Y-95757999D01*
X177508656Y-95757712D01*
X177632712Y-95633656D01*
X177724814Y-95484334D01*
X177779999Y-95317797D01*
X177790500Y-95215009D01*
X177790499Y-94014992D01*
X177786924Y-93979999D01*
X177779999Y-93912203D01*
X177779998Y-93912200D01*
X177772807Y-93890500D01*
X177724814Y-93745666D01*
X177632712Y-93596344D01*
X177508656Y-93472288D01*
X177359334Y-93380186D01*
X177192797Y-93325001D01*
X177192795Y-93325000D01*
X177090010Y-93314500D01*
X175889998Y-93314500D01*
X175889981Y-93314501D01*
X175787203Y-93325000D01*
X175787200Y-93325001D01*
X175620668Y-93380185D01*
X175620663Y-93380187D01*
X175471342Y-93472289D01*
X175347285Y-93596346D01*
X175345537Y-93599182D01*
X175343829Y-93600717D01*
X175342807Y-93602011D01*
X175342585Y-93601836D01*
X175293589Y-93645905D01*
X175224626Y-93657126D01*
X175160544Y-93629282D01*
X175134463Y-93599182D01*
X175132714Y-93596346D01*
X175008657Y-93472289D01*
X175008656Y-93472288D01*
X174859334Y-93380186D01*
X174692797Y-93325001D01*
X174692795Y-93325000D01*
X174590010Y-93314500D01*
X173389998Y-93314500D01*
X173389981Y-93314501D01*
X173287203Y-93325000D01*
X173287200Y-93325001D01*
X173120668Y-93380185D01*
X173120663Y-93380187D01*
X172971342Y-93472289D01*
X172847289Y-93596342D01*
X172755187Y-93745663D01*
X172755185Y-93745668D01*
X172700000Y-93912204D01*
X172699088Y-93916467D01*
X172665801Y-93977898D01*
X172604586Y-94011581D01*
X172577837Y-94014500D01*
X170266670Y-94014500D01*
X170266654Y-94014499D01*
X170259058Y-94014499D01*
X170100943Y-94014499D01*
X170024579Y-94034961D01*
X169948214Y-94055423D01*
X169948209Y-94055426D01*
X169811290Y-94134475D01*
X169811282Y-94134481D01*
X165889479Y-98056284D01*
X165878840Y-98074713D01*
X165865425Y-98097949D01*
X165810423Y-98193215D01*
X165769499Y-98345943D01*
X165769499Y-98345945D01*
X165769499Y-98514046D01*
X165769500Y-98514059D01*
X165769500Y-99675908D01*
X165749815Y-99742947D01*
X165697914Y-99788286D01*
X165692173Y-99790963D01*
X165692169Y-99790965D01*
X165498597Y-99926505D01*
X165331508Y-100093594D01*
X165201269Y-100279595D01*
X165146692Y-100323219D01*
X165077193Y-100330412D01*
X165014839Y-100298890D01*
X164998119Y-100279594D01*
X164868113Y-100093926D01*
X164868108Y-100093920D01*
X164701082Y-99926894D01*
X164507578Y-99791399D01*
X164293492Y-99691570D01*
X164293486Y-99691567D01*
X164080000Y-99634364D01*
X164080000Y-100531988D01*
X164022993Y-100499075D01*
X163895826Y-100465000D01*
X163764174Y-100465000D01*
X163637007Y-100499075D01*
X163580000Y-100531988D01*
X163580000Y-99634364D01*
X163579999Y-99634364D01*
X163366513Y-99691567D01*
X163366506Y-99691570D01*
X163336903Y-99705374D01*
X163267825Y-99715865D01*
X163204042Y-99687344D01*
X163165803Y-99628867D01*
X163160500Y-99592991D01*
X163160500Y-94917738D01*
X163180185Y-94850699D01*
X163205833Y-94821886D01*
X163313515Y-94733515D01*
X163446040Y-94572033D01*
X163544515Y-94387799D01*
X163605155Y-94187894D01*
X163625631Y-93980000D01*
X163605155Y-93772106D01*
X163544515Y-93572201D01*
X163544511Y-93572193D01*
X163446043Y-93387972D01*
X163446039Y-93387965D01*
X163313515Y-93226484D01*
X163205835Y-93138113D01*
X163166501Y-93080367D01*
X163160500Y-93042260D01*
X163160500Y-93010097D01*
X163180185Y-92943058D01*
X163196819Y-92922416D01*
X164042416Y-92076819D01*
X164103739Y-92043334D01*
X164130097Y-92040500D01*
X164162261Y-92040500D01*
X164229300Y-92060185D01*
X164258114Y-92085835D01*
X164346484Y-92193515D01*
X164507965Y-92326039D01*
X164507972Y-92326043D01*
X164692193Y-92424511D01*
X164692194Y-92424511D01*
X164692201Y-92424515D01*
X164892106Y-92485155D01*
X164892105Y-92485155D01*
X164910745Y-92486990D01*
X165100000Y-92505631D01*
X165307894Y-92485155D01*
X165507799Y-92424515D01*
X165692033Y-92326040D01*
X165853515Y-92193515D01*
X165986040Y-92032033D01*
X166084515Y-91847799D01*
X166145155Y-91647894D01*
X166165631Y-91440000D01*
X166145155Y-91232106D01*
X166084515Y-91032201D01*
X166078553Y-91021047D01*
X165986043Y-90847972D01*
X165986039Y-90847965D01*
X165853515Y-90686484D01*
X165692034Y-90553960D01*
X165692027Y-90553956D01*
X165507806Y-90455488D01*
X165507803Y-90455487D01*
X165507802Y-90455486D01*
X165507799Y-90455485D01*
X165307894Y-90394845D01*
X165307892Y-90394844D01*
X165307894Y-90394844D01*
X165100000Y-90374369D01*
X164892107Y-90394844D01*
X164774075Y-90430648D01*
X164692201Y-90455485D01*
X164692198Y-90455486D01*
X164692196Y-90455487D01*
X164692193Y-90455488D01*
X164507972Y-90553956D01*
X164507965Y-90553960D01*
X164346484Y-90686484D01*
X164258114Y-90794165D01*
X164200369Y-90833499D01*
X164162261Y-90839500D01*
X163750942Y-90839500D01*
X163598214Y-90880423D01*
X163562532Y-90901025D01*
X163562531Y-90901025D01*
X163461287Y-90959477D01*
X163461282Y-90959481D01*
X162079481Y-92341282D01*
X162079480Y-92341284D01*
X162031430Y-92424511D01*
X162031428Y-92424514D01*
X162031426Y-92424516D01*
X162000425Y-92478209D01*
X162000424Y-92478210D01*
X161989158Y-92520255D01*
X161959499Y-92630943D01*
X161959499Y-92630945D01*
X161959499Y-92799046D01*
X161959500Y-92799059D01*
X161959500Y-93042260D01*
X161939815Y-93109299D01*
X161914165Y-93138113D01*
X161806484Y-93226484D01*
X161673960Y-93387965D01*
X161673956Y-93387972D01*
X161575488Y-93572193D01*
X161575487Y-93572196D01*
X161575486Y-93572198D01*
X161575485Y-93572201D01*
X161563628Y-93611290D01*
X161514844Y-93772107D01*
X161494369Y-93980000D01*
X161514844Y-94187892D01*
X161528528Y-94233000D01*
X161575485Y-94387799D01*
X161575486Y-94387802D01*
X161575487Y-94387803D01*
X161575488Y-94387806D01*
X161673956Y-94572027D01*
X161673960Y-94572034D01*
X161791941Y-94715793D01*
X161806485Y-94733515D01*
X161914165Y-94821885D01*
X161953499Y-94879630D01*
X161959500Y-94917738D01*
X161959500Y-102148330D01*
X161959499Y-102148348D01*
X161959499Y-102314054D01*
X161959498Y-102314054D01*
X162000424Y-102466789D01*
X162000425Y-102466790D01*
X162019310Y-102499499D01*
X162019311Y-102499500D01*
X162079477Y-102603712D01*
X162079481Y-102603717D01*
X162198349Y-102722585D01*
X162198355Y-102722590D01*
X162443181Y-102967416D01*
X162476666Y-103028739D01*
X162479500Y-103055097D01*
X162479501Y-104375500D01*
X162459816Y-104442539D01*
X162407013Y-104488294D01*
X162355501Y-104499500D01*
X158881903Y-104499500D01*
X158648631Y-104536446D01*
X158424003Y-104609433D01*
X158213566Y-104716657D01*
X158128545Y-104778429D01*
X158022490Y-104855483D01*
X158022488Y-104855485D01*
X158022487Y-104855485D01*
X157855485Y-105022487D01*
X157855485Y-105022488D01*
X157855483Y-105022490D01*
X157795862Y-105104550D01*
X157716657Y-105213566D01*
X157705250Y-105235954D01*
X157653505Y-105337511D01*
X157651067Y-105342295D01*
X157603092Y-105393091D01*
X157540582Y-105410000D01*
X157460721Y-105410000D01*
X157393682Y-105390315D01*
X157347927Y-105337511D01*
X157347165Y-105335809D01*
X157324174Y-105283395D01*
X157188166Y-105075217D01*
X157139624Y-105022487D01*
X157019744Y-104892262D01*
X156823509Y-104739526D01*
X156823507Y-104739525D01*
X156823506Y-104739524D01*
X156604811Y-104621172D01*
X156604802Y-104621169D01*
X156369616Y-104540429D01*
X156124335Y-104499500D01*
X155875665Y-104499500D01*
X155630383Y-104540429D01*
X155395197Y-104621169D01*
X155395188Y-104621172D01*
X155176493Y-104739524D01*
X154980257Y-104892261D01*
X154811833Y-105075217D01*
X154675825Y-105283395D01*
X154652835Y-105335809D01*
X154607880Y-105389295D01*
X154541144Y-105409986D01*
X154539279Y-105410000D01*
X154459418Y-105410000D01*
X154392379Y-105390315D01*
X154348933Y-105342295D01*
X154283343Y-105213567D01*
X154144517Y-105022490D01*
X153977510Y-104855483D01*
X153786433Y-104716657D01*
X153757575Y-104701953D01*
X153575996Y-104609433D01*
X153351368Y-104536446D01*
X153118097Y-104499500D01*
X153118092Y-104499500D01*
X153065892Y-104499500D01*
X151555667Y-104499500D01*
X151488628Y-104479815D01*
X151442873Y-104427011D01*
X151432929Y-104357853D01*
X151461954Y-104294297D01*
X151517348Y-104257569D01*
X151629219Y-104221220D01*
X151811610Y-104128287D01*
X151904590Y-104060732D01*
X151977213Y-104007971D01*
X151977215Y-104007968D01*
X151977219Y-104007966D01*
X152121966Y-103863219D01*
X152121968Y-103863215D01*
X152121971Y-103863213D01*
X152200591Y-103755000D01*
X152242287Y-103697610D01*
X152335220Y-103515219D01*
X152398477Y-103320534D01*
X152430500Y-103118352D01*
X152430500Y-102113648D01*
X152410324Y-101986265D01*
X152398477Y-101911465D01*
X152335218Y-101716776D01*
X152293542Y-101634983D01*
X154949500Y-101634983D01*
X154949500Y-102835001D01*
X154949501Y-102835018D01*
X154960000Y-102937796D01*
X154960001Y-102937799D01*
X155015185Y-103104331D01*
X155015187Y-103104336D01*
X155023832Y-103118351D01*
X155107288Y-103253656D01*
X155231344Y-103377712D01*
X155380666Y-103469814D01*
X155547203Y-103524999D01*
X155649991Y-103535500D01*
X156850008Y-103535499D01*
X156952797Y-103524999D01*
X157119334Y-103469814D01*
X157268656Y-103377712D01*
X157392712Y-103253656D01*
X157394461Y-103250819D01*
X157396169Y-103249283D01*
X157397193Y-103247989D01*
X157397414Y-103248163D01*
X157446406Y-103204096D01*
X157515368Y-103192872D01*
X157579451Y-103220713D01*
X157605537Y-103250817D01*
X157607288Y-103253656D01*
X157731344Y-103377712D01*
X157880666Y-103469814D01*
X158047203Y-103524999D01*
X158149991Y-103535500D01*
X159350008Y-103535499D01*
X159452797Y-103524999D01*
X159619334Y-103469814D01*
X159768656Y-103377712D01*
X159892712Y-103253656D01*
X159984814Y-103104334D01*
X160039999Y-102937797D01*
X160050500Y-102835009D01*
X160050499Y-101634992D01*
X160050102Y-101631110D01*
X160039999Y-101532203D01*
X160039998Y-101532200D01*
X160008462Y-101437032D01*
X159984814Y-101365666D01*
X159892712Y-101216344D01*
X159768656Y-101092288D01*
X159669010Y-101030826D01*
X159619336Y-101000187D01*
X159619331Y-101000185D01*
X159617862Y-100999698D01*
X159452797Y-100945001D01*
X159452795Y-100945000D01*
X159350010Y-100934500D01*
X158149998Y-100934500D01*
X158149981Y-100934501D01*
X158047203Y-100945000D01*
X158047200Y-100945001D01*
X157880668Y-101000185D01*
X157880663Y-101000187D01*
X157731342Y-101092289D01*
X157607285Y-101216346D01*
X157605537Y-101219182D01*
X157603829Y-101220717D01*
X157602807Y-101222011D01*
X157602585Y-101221836D01*
X157553589Y-101265905D01*
X157484626Y-101277126D01*
X157420544Y-101249282D01*
X157394463Y-101219182D01*
X157392714Y-101216346D01*
X157268657Y-101092289D01*
X157268656Y-101092288D01*
X157169010Y-101030826D01*
X157119336Y-101000187D01*
X157119331Y-101000185D01*
X157117862Y-100999698D01*
X156952797Y-100945001D01*
X156952795Y-100945000D01*
X156850010Y-100934500D01*
X155649998Y-100934500D01*
X155649981Y-100934501D01*
X155547203Y-100945000D01*
X155547200Y-100945001D01*
X155380668Y-101000185D01*
X155380663Y-101000187D01*
X155231342Y-101092289D01*
X155107289Y-101216342D01*
X155015187Y-101365663D01*
X155015185Y-101365668D01*
X155014152Y-101368786D01*
X154960001Y-101532203D01*
X154960001Y-101532204D01*
X154960000Y-101532204D01*
X154949500Y-101634983D01*
X152293542Y-101634983D01*
X152292257Y-101632462D01*
X152242287Y-101534390D01*
X152191873Y-101465000D01*
X152121971Y-101368786D01*
X151977213Y-101224028D01*
X151811613Y-101103715D01*
X151811612Y-101103714D01*
X151811610Y-101103713D01*
X151731542Y-101062916D01*
X151629223Y-101010781D01*
X151434534Y-100947522D01*
X151259995Y-100919878D01*
X151232352Y-100915500D01*
X151027648Y-100915500D01*
X151003329Y-100919351D01*
X150825465Y-100947522D01*
X150630776Y-101010781D01*
X150448386Y-101103715D01*
X150282786Y-101224028D01*
X150138028Y-101368786D01*
X150017715Y-101534386D01*
X149970485Y-101627080D01*
X149922510Y-101677876D01*
X149854689Y-101694671D01*
X149788554Y-101672134D01*
X149749515Y-101627080D01*
X149739172Y-101606781D01*
X149702287Y-101534390D01*
X149651873Y-101465000D01*
X149581971Y-101368786D01*
X149437213Y-101224028D01*
X149271613Y-101103715D01*
X149271612Y-101103714D01*
X149271610Y-101103713D01*
X149191542Y-101062916D01*
X149089223Y-101010781D01*
X148894534Y-100947522D01*
X148719995Y-100919878D01*
X148692352Y-100915500D01*
X148487648Y-100915500D01*
X148463329Y-100919351D01*
X148285465Y-100947522D01*
X148090776Y-101010781D01*
X147908386Y-101103715D01*
X147742786Y-101224028D01*
X147598028Y-101368786D01*
X147477715Y-101534386D01*
X147430485Y-101627080D01*
X147382510Y-101677876D01*
X147314689Y-101694671D01*
X147248554Y-101672134D01*
X147209515Y-101627080D01*
X147195462Y-101599500D01*
X147162287Y-101534390D01*
X147141450Y-101505710D01*
X147117971Y-101439904D01*
X147133797Y-101371850D01*
X147154084Y-101345149D01*
X147688713Y-100810521D01*
X147688716Y-100810520D01*
X147800520Y-100698716D01*
X147850639Y-100611904D01*
X147879577Y-100561785D01*
X147920500Y-100409058D01*
X147920500Y-100250943D01*
X147920500Y-95847060D01*
X147920501Y-95847047D01*
X147920501Y-95678944D01*
X147912370Y-95648599D01*
X147879577Y-95526216D01*
X147855395Y-95484331D01*
X147800524Y-95389290D01*
X147800518Y-95389282D01*
X147356997Y-94945761D01*
X146874765Y-94463530D01*
X146841281Y-94402208D01*
X146842672Y-94343757D01*
X146857878Y-94287007D01*
X146877063Y-94215408D01*
X146897659Y-93980000D01*
X146877063Y-93744592D01*
X146823956Y-93546393D01*
X146815905Y-93516344D01*
X146815904Y-93516343D01*
X146815903Y-93516337D01*
X146716035Y-93302171D01*
X146686354Y-93259781D01*
X146580494Y-93108597D01*
X146413402Y-92941506D01*
X146413395Y-92941501D01*
X146219834Y-92805967D01*
X146219830Y-92805965D01*
X146204992Y-92799046D01*
X146005663Y-92706097D01*
X146005659Y-92706096D01*
X146005655Y-92706094D01*
X145777413Y-92644938D01*
X145777403Y-92644936D01*
X145542001Y-92624341D01*
X145541999Y-92624341D01*
X145306596Y-92644936D01*
X145306586Y-92644938D01*
X145078344Y-92706094D01*
X145078335Y-92706098D01*
X144864171Y-92805964D01*
X144864169Y-92805965D01*
X144670597Y-92941505D01*
X144503505Y-93108597D01*
X144367965Y-93302169D01*
X144367964Y-93302171D01*
X144268098Y-93516335D01*
X144268094Y-93516344D01*
X144206938Y-93744586D01*
X144206936Y-93744596D01*
X144186341Y-93979999D01*
X144186341Y-93980000D01*
X144206936Y-94215403D01*
X144206938Y-94215413D01*
X144268094Y-94443655D01*
X144268096Y-94443659D01*
X144268097Y-94443663D01*
X144327957Y-94572033D01*
X144367965Y-94657830D01*
X144367967Y-94657834D01*
X144464626Y-94795876D01*
X144503013Y-94850699D01*
X144503501Y-94851395D01*
X144503506Y-94851402D01*
X144670597Y-95018493D01*
X144670603Y-95018498D01*
X144856158Y-95148425D01*
X144899783Y-95203002D01*
X144906977Y-95272500D01*
X144875454Y-95334855D01*
X144856158Y-95351575D01*
X144670597Y-95481505D01*
X144503505Y-95648597D01*
X144367965Y-95842169D01*
X144367964Y-95842171D01*
X144268098Y-96056335D01*
X144268094Y-96056344D01*
X144206938Y-96284586D01*
X144206936Y-96284596D01*
X144186341Y-96519999D01*
X144186341Y-96520000D01*
X144206936Y-96755403D01*
X144206938Y-96755413D01*
X144241327Y-96883756D01*
X144239664Y-96953606D01*
X144209233Y-97003530D01*
X143141286Y-98071478D01*
X143029482Y-98183281D01*
X143029480Y-98183283D01*
X143022700Y-98195028D01*
X143016654Y-98205500D01*
X142950423Y-98320215D01*
X142909499Y-98472943D01*
X142909499Y-98472945D01*
X142909499Y-98641046D01*
X142909500Y-98641059D01*
X142909500Y-100986397D01*
X142889815Y-101053436D01*
X142841800Y-101096879D01*
X142828389Y-101103712D01*
X142662786Y-101224028D01*
X142518028Y-101368786D01*
X142397715Y-101534386D01*
X142350485Y-101627080D01*
X142302510Y-101677876D01*
X142234689Y-101694671D01*
X142168554Y-101672134D01*
X142129515Y-101627080D01*
X142119172Y-101606781D01*
X142082287Y-101534390D01*
X142031873Y-101465000D01*
X141961971Y-101368786D01*
X141817213Y-101224028D01*
X141651613Y-101103715D01*
X141651612Y-101103714D01*
X141651610Y-101103713D01*
X141571542Y-101062916D01*
X141469223Y-101010781D01*
X141274534Y-100947522D01*
X141099995Y-100919878D01*
X141072352Y-100915500D01*
X140867648Y-100915500D01*
X140843329Y-100919351D01*
X140665465Y-100947522D01*
X140470776Y-101010781D01*
X140288386Y-101103715D01*
X140122786Y-101224028D01*
X139978028Y-101368786D01*
X139857715Y-101534386D01*
X139810485Y-101627080D01*
X139762510Y-101677876D01*
X139694689Y-101694671D01*
X139628554Y-101672134D01*
X139589515Y-101627080D01*
X139579172Y-101606781D01*
X139542287Y-101534390D01*
X139491873Y-101465000D01*
X139421971Y-101368786D01*
X139277217Y-101224032D01*
X139277212Y-101224028D01*
X139131615Y-101118246D01*
X139088949Y-101062916D01*
X139080500Y-101017928D01*
X139080500Y-93030806D01*
X139100185Y-92963767D01*
X139116815Y-92943129D01*
X139511403Y-92548540D01*
X139572724Y-92515057D01*
X139642415Y-92520041D01*
X139698347Y-92561910D01*
X139762454Y-92647546D01*
X139783101Y-92663002D01*
X139877664Y-92733793D01*
X139877671Y-92733797D01*
X139919369Y-92749349D01*
X140009598Y-92783002D01*
X140065531Y-92824873D01*
X140089949Y-92890337D01*
X140075098Y-92958610D01*
X140053947Y-92986865D01*
X139931886Y-93108926D01*
X139796400Y-93302420D01*
X139796399Y-93302422D01*
X139696570Y-93516507D01*
X139696567Y-93516513D01*
X139639364Y-93729999D01*
X139639364Y-93730000D01*
X140536988Y-93730000D01*
X140504075Y-93787007D01*
X140470000Y-93914174D01*
X140470000Y-94045826D01*
X140504075Y-94172993D01*
X140536988Y-94230000D01*
X139639364Y-94230000D01*
X139696567Y-94443486D01*
X139696570Y-94443492D01*
X139796399Y-94657578D01*
X139931894Y-94851082D01*
X140098917Y-95018105D01*
X140292421Y-95153600D01*
X140506507Y-95253429D01*
X140506516Y-95253433D01*
X140720000Y-95310634D01*
X140720000Y-94413012D01*
X140777007Y-94445925D01*
X140904174Y-94480000D01*
X141035826Y-94480000D01*
X141162993Y-94445925D01*
X141220000Y-94413012D01*
X141220000Y-95310633D01*
X141433483Y-95253433D01*
X141433492Y-95253429D01*
X141647578Y-95153600D01*
X141841082Y-95018105D01*
X142008105Y-94851082D01*
X142143600Y-94657578D01*
X142243429Y-94443492D01*
X142243432Y-94443486D01*
X142300636Y-94230000D01*
X141403012Y-94230000D01*
X141435925Y-94172993D01*
X141470000Y-94045826D01*
X141470000Y-93914174D01*
X141435925Y-93787007D01*
X141403012Y-93730000D01*
X142300636Y-93730000D01*
X142300635Y-93729999D01*
X142243432Y-93516513D01*
X142243429Y-93516507D01*
X142143600Y-93302422D01*
X142143599Y-93302420D01*
X142008113Y-93108926D01*
X142008108Y-93108920D01*
X141886053Y-92986865D01*
X141852568Y-92925542D01*
X141857552Y-92855850D01*
X141899424Y-92799917D01*
X141930400Y-92783002D01*
X142062331Y-92733796D01*
X142177546Y-92647546D01*
X142263796Y-92532331D01*
X142314091Y-92397483D01*
X142320500Y-92337873D01*
X142320499Y-91329986D01*
X145597501Y-91329986D01*
X145607994Y-91432697D01*
X145663141Y-91599119D01*
X145663143Y-91599124D01*
X145755184Y-91748345D01*
X145879154Y-91872315D01*
X146028375Y-91964356D01*
X146028380Y-91964358D01*
X146194802Y-92019505D01*
X146194809Y-92019506D01*
X146297519Y-92029999D01*
X146434999Y-92029999D01*
X146435000Y-92029998D01*
X146435000Y-91055000D01*
X145597501Y-91055000D01*
X145597501Y-91329986D01*
X142320499Y-91329986D01*
X142320499Y-90542128D01*
X142314091Y-90482517D01*
X142304009Y-90455487D01*
X142263797Y-90347671D01*
X142263793Y-90347664D01*
X142213149Y-90280013D01*
X145597500Y-90280013D01*
X145597500Y-90555000D01*
X146435000Y-90555000D01*
X146435000Y-89580000D01*
X146297527Y-89580000D01*
X146297512Y-89580001D01*
X146194802Y-89590494D01*
X146028380Y-89645641D01*
X146028375Y-89645643D01*
X145879154Y-89737684D01*
X145755184Y-89861654D01*
X145663143Y-90010875D01*
X145663141Y-90010880D01*
X145607994Y-90177302D01*
X145607993Y-90177309D01*
X145597500Y-90280013D01*
X142213149Y-90280013D01*
X142177547Y-90232455D01*
X142177544Y-90232452D01*
X142062335Y-90146206D01*
X142062328Y-90146202D01*
X141927482Y-90095908D01*
X141927483Y-90095908D01*
X141867883Y-90089501D01*
X141867881Y-90089500D01*
X141867873Y-90089500D01*
X141867865Y-90089500D01*
X141744500Y-90089500D01*
X141677461Y-90069815D01*
X141631706Y-90017011D01*
X141620500Y-89965500D01*
X141620500Y-88974070D01*
X141640185Y-88907031D01*
X141671613Y-88873753D01*
X141817219Y-88767966D01*
X141961966Y-88623219D01*
X141961968Y-88623215D01*
X141961971Y-88623213D01*
X142082284Y-88457614D01*
X142082286Y-88457611D01*
X142082287Y-88457610D01*
X142129795Y-88364369D01*
X142177770Y-88313574D01*
X142245591Y-88296779D01*
X142311725Y-88319316D01*
X142350765Y-88364370D01*
X142398140Y-88457349D01*
X142518417Y-88622894D01*
X142518417Y-88622895D01*
X142663104Y-88767582D01*
X142828650Y-88887859D01*
X143010968Y-88980754D01*
X143205578Y-89043988D01*
X143260000Y-89052607D01*
X143260000Y-87691686D01*
X143264394Y-87696080D01*
X143355606Y-87748741D01*
X143457339Y-87776000D01*
X143562661Y-87776000D01*
X143664394Y-87748741D01*
X143755606Y-87696080D01*
X143760000Y-87691686D01*
X143760000Y-89052606D01*
X143814421Y-89043988D01*
X144009031Y-88980754D01*
X144191349Y-88887859D01*
X144356894Y-88767582D01*
X144356895Y-88767582D01*
X144501582Y-88622895D01*
X144501582Y-88622894D01*
X144621861Y-88457347D01*
X144669234Y-88364371D01*
X144717208Y-88313575D01*
X144785028Y-88296779D01*
X144851164Y-88319316D01*
X144890203Y-88364369D01*
X144937713Y-88457611D01*
X145058028Y-88623213D01*
X145202786Y-88767971D01*
X145336079Y-88864812D01*
X145368390Y-88888287D01*
X145460095Y-88935013D01*
X145550776Y-88981218D01*
X145550778Y-88981218D01*
X145550781Y-88981220D01*
X145619500Y-89003548D01*
X145745465Y-89044477D01*
X145846557Y-89060488D01*
X145947648Y-89076500D01*
X145947649Y-89076500D01*
X146152351Y-89076500D01*
X146152352Y-89076500D01*
X146354534Y-89044477D01*
X146549219Y-88981220D01*
X146731610Y-88888287D01*
X146827901Y-88818328D01*
X146897213Y-88767971D01*
X146897215Y-88767968D01*
X146897219Y-88767966D01*
X147041966Y-88623219D01*
X147041968Y-88623215D01*
X147041971Y-88623213D01*
X147162284Y-88457614D01*
X147162286Y-88457611D01*
X147162287Y-88457610D01*
X147209516Y-88364917D01*
X147257489Y-88314123D01*
X147325310Y-88297328D01*
X147391445Y-88319865D01*
X147430483Y-88364917D01*
X147448614Y-88400500D01*
X147477715Y-88457614D01*
X147598028Y-88623213D01*
X147742786Y-88767971D01*
X147908385Y-88888284D01*
X147908387Y-88888285D01*
X147908390Y-88888287D01*
X148090781Y-88981220D01*
X148090784Y-88981221D01*
X148091795Y-88981736D01*
X148142591Y-89029710D01*
X148159500Y-89092221D01*
X148159500Y-89541232D01*
X148139815Y-89608271D01*
X148100598Y-89646769D01*
X148031493Y-89689394D01*
X147953842Y-89737289D01*
X147829790Y-89861342D01*
X147829783Y-89861349D01*
X147827741Y-89864661D01*
X147825747Y-89866453D01*
X147825307Y-89867011D01*
X147825211Y-89866935D01*
X147775791Y-89911383D01*
X147706828Y-89922602D01*
X147642747Y-89894755D01*
X147616668Y-89864656D01*
X147614819Y-89861659D01*
X147614816Y-89861655D01*
X147490845Y-89737684D01*
X147341624Y-89645643D01*
X147341619Y-89645641D01*
X147175197Y-89590494D01*
X147175190Y-89590493D01*
X147072486Y-89580000D01*
X146935000Y-89580000D01*
X146935000Y-92029999D01*
X147072472Y-92029999D01*
X147072486Y-92029998D01*
X147175197Y-92019505D01*
X147341619Y-91964358D01*
X147341624Y-91964356D01*
X147490845Y-91872315D01*
X147614818Y-91748342D01*
X147616665Y-91745348D01*
X147618469Y-91743724D01*
X147619298Y-91742677D01*
X147619476Y-91742818D01*
X147668610Y-91698621D01*
X147737573Y-91687396D01*
X147801656Y-91715236D01*
X147827743Y-91745341D01*
X147829788Y-91748656D01*
X147953844Y-91872712D01*
X148103166Y-91964814D01*
X148269703Y-92019999D01*
X148372491Y-92030500D01*
X148627295Y-92030499D01*
X148659390Y-92034725D01*
X148669926Y-92037548D01*
X148680942Y-92040500D01*
X148680943Y-92040500D01*
X148839056Y-92040500D01*
X148839057Y-92040500D01*
X148848114Y-92038072D01*
X148860615Y-92034724D01*
X148892707Y-92030499D01*
X149147502Y-92030499D01*
X149147508Y-92030499D01*
X149250297Y-92019999D01*
X149416834Y-91964814D01*
X149566156Y-91872712D01*
X149690212Y-91748656D01*
X149782314Y-91599334D01*
X149837499Y-91432797D01*
X149848000Y-91330009D01*
X149847999Y-90279992D01*
X149846292Y-90263286D01*
X149837499Y-90177203D01*
X149837498Y-90177200D01*
X149828786Y-90150908D01*
X149782314Y-90010666D01*
X149690212Y-89861344D01*
X149566156Y-89737288D01*
X149419402Y-89646770D01*
X149372679Y-89594823D01*
X149360500Y-89541232D01*
X149360500Y-88886886D01*
X149380185Y-88819847D01*
X149411618Y-88786566D01*
X149437212Y-88767971D01*
X149437210Y-88767971D01*
X149437219Y-88767966D01*
X149581966Y-88623219D01*
X149608330Y-88586930D01*
X149663658Y-88544265D01*
X149733271Y-88538284D01*
X149795067Y-88570889D01*
X149829426Y-88631726D01*
X149831938Y-88646559D01*
X149835907Y-88683480D01*
X149886202Y-88818328D01*
X149886206Y-88818335D01*
X149972452Y-88933544D01*
X149972455Y-88933547D01*
X150087664Y-89019793D01*
X150087671Y-89019797D01*
X150114250Y-89029710D01*
X150222517Y-89070091D01*
X150282127Y-89076500D01*
X150405500Y-89076499D01*
X150472539Y-89096183D01*
X150518294Y-89148987D01*
X150529500Y-89200499D01*
X150529500Y-91353330D01*
X150529499Y-91353348D01*
X150529499Y-91519054D01*
X150529498Y-91519054D01*
X150570424Y-91671789D01*
X150570425Y-91671790D01*
X150590340Y-91706283D01*
X150590341Y-91706284D01*
X150649477Y-91808712D01*
X150649481Y-91808717D01*
X150768349Y-91927585D01*
X150768355Y-91927590D01*
X153820139Y-94979374D01*
X153820149Y-94979385D01*
X153824479Y-94983715D01*
X153824480Y-94983716D01*
X153936284Y-95095520D01*
X153936286Y-95095521D01*
X153936290Y-95095524D01*
X154005562Y-95135518D01*
X154005566Y-95135519D01*
X154005567Y-95135520D01*
X154027919Y-95148425D01*
X154073212Y-95174576D01*
X154073214Y-95174576D01*
X154073215Y-95174577D01*
X154225943Y-95215500D01*
X154384057Y-95215500D01*
X154837837Y-95215500D01*
X154904876Y-95235185D01*
X154950631Y-95287989D01*
X154959089Y-95313541D01*
X154959999Y-95317792D01*
X155015185Y-95484331D01*
X155015187Y-95484336D01*
X155041018Y-95526214D01*
X155107288Y-95633656D01*
X155231344Y-95757712D01*
X155380666Y-95849814D01*
X155547203Y-95904999D01*
X155649991Y-95915500D01*
X156850008Y-95915499D01*
X156952797Y-95904999D01*
X157119334Y-95849814D01*
X157268656Y-95757712D01*
X157392712Y-95633656D01*
X157394461Y-95630819D01*
X157396169Y-95629283D01*
X157397193Y-95627989D01*
X157397414Y-95628163D01*
X157446406Y-95584096D01*
X157515368Y-95572872D01*
X157579451Y-95600713D01*
X157605537Y-95630817D01*
X157607288Y-95633656D01*
X157731344Y-95757712D01*
X157880666Y-95849814D01*
X158047203Y-95904999D01*
X158149991Y-95915500D01*
X159350008Y-95915499D01*
X159452797Y-95904999D01*
X159619334Y-95849814D01*
X159768656Y-95757712D01*
X159892712Y-95633656D01*
X159984814Y-95484334D01*
X160039999Y-95317797D01*
X160050500Y-95215009D01*
X160050499Y-94014992D01*
X160046924Y-93979999D01*
X160039999Y-93912203D01*
X160039998Y-93912200D01*
X160032807Y-93890500D01*
X159984814Y-93745666D01*
X159892712Y-93596344D01*
X159768656Y-93472288D01*
X159619334Y-93380186D01*
X159452797Y-93325001D01*
X159452795Y-93325000D01*
X159350010Y-93314500D01*
X158149998Y-93314500D01*
X158149981Y-93314501D01*
X158047203Y-93325000D01*
X158047200Y-93325001D01*
X157880668Y-93380185D01*
X157880663Y-93380187D01*
X157731342Y-93472289D01*
X157607285Y-93596346D01*
X157605537Y-93599182D01*
X157603829Y-93600717D01*
X157602807Y-93602011D01*
X157602585Y-93601836D01*
X157553589Y-93645905D01*
X157484626Y-93657126D01*
X157420544Y-93629282D01*
X157394463Y-93599182D01*
X157392714Y-93596346D01*
X157268657Y-93472289D01*
X157268656Y-93472288D01*
X157119334Y-93380186D01*
X156952797Y-93325001D01*
X156952795Y-93325000D01*
X156850010Y-93314500D01*
X155649998Y-93314500D01*
X155649981Y-93314501D01*
X155547203Y-93325000D01*
X155547200Y-93325001D01*
X155380668Y-93380185D01*
X155380663Y-93380187D01*
X155231342Y-93472289D01*
X155107289Y-93596342D01*
X155015187Y-93745663D01*
X155015185Y-93745668D01*
X154960000Y-93912204D01*
X154959088Y-93916467D01*
X154925801Y-93977898D01*
X154864586Y-94011581D01*
X154837837Y-94014500D01*
X154605097Y-94014500D01*
X154538058Y-93994815D01*
X154517416Y-93978181D01*
X151766819Y-91227584D01*
X151733334Y-91166261D01*
X151730500Y-91139903D01*
X151730500Y-89200499D01*
X151750185Y-89133460D01*
X151802989Y-89087705D01*
X151854500Y-89076499D01*
X151977871Y-89076499D01*
X151977872Y-89076499D01*
X152037483Y-89070091D01*
X152172331Y-89019796D01*
X152287546Y-88933546D01*
X152373796Y-88818331D01*
X152424091Y-88683483D01*
X152430500Y-88623873D01*
X152430499Y-86128128D01*
X152424091Y-86068517D01*
X152395953Y-85993076D01*
X152373797Y-85933671D01*
X152373793Y-85933664D01*
X152287547Y-85818455D01*
X152287544Y-85818452D01*
X152165231Y-85726888D01*
X152166396Y-85725331D01*
X152124991Y-85683923D01*
X152110141Y-85615649D01*
X152134561Y-85550186D01*
X152190496Y-85508317D01*
X152233825Y-85500500D01*
X153118097Y-85500500D01*
X153351368Y-85463553D01*
X153363968Y-85459459D01*
X153575992Y-85390568D01*
X153786433Y-85283343D01*
X153977510Y-85144517D01*
X154144517Y-84977510D01*
X154283343Y-84786433D01*
X154390568Y-84575992D01*
X154390568Y-84575989D01*
X154391848Y-84573479D01*
X154439822Y-84522683D01*
X154507643Y-84505888D01*
X154573778Y-84528425D01*
X154615889Y-84579963D01*
X154675827Y-84716608D01*
X154811833Y-84924782D01*
X154811836Y-84924785D01*
X154980256Y-85107738D01*
X155176491Y-85260474D01*
X155395190Y-85378828D01*
X155489324Y-85411144D01*
X155630058Y-85459459D01*
X155687073Y-85499844D01*
X155713204Y-85564644D01*
X155700153Y-85633284D01*
X155652064Y-85683972D01*
X155602397Y-85700098D01*
X155554402Y-85705001D01*
X155554400Y-85705001D01*
X155387868Y-85760185D01*
X155387863Y-85760187D01*
X155238542Y-85852289D01*
X155114489Y-85976342D01*
X155022387Y-86125663D01*
X155022385Y-86125668D01*
X155021246Y-86129105D01*
X154967201Y-86292203D01*
X154967201Y-86292204D01*
X154967200Y-86292204D01*
X154956700Y-86394983D01*
X154956700Y-87595001D01*
X154956701Y-87595018D01*
X154967200Y-87697796D01*
X154967201Y-87697799D01*
X155022385Y-87864331D01*
X155022387Y-87864336D01*
X155031032Y-87878351D01*
X155114488Y-88013656D01*
X155238544Y-88137712D01*
X155387866Y-88229814D01*
X155554403Y-88284999D01*
X155657191Y-88295500D01*
X156857208Y-88295499D01*
X156959997Y-88284999D01*
X157126534Y-88229814D01*
X157275856Y-88137712D01*
X157399912Y-88013656D01*
X157401952Y-88010347D01*
X157403945Y-88008555D01*
X157404393Y-88007989D01*
X157404489Y-88008065D01*
X157453894Y-87963623D01*
X157522856Y-87952395D01*
X157586940Y-87980234D01*
X157613029Y-88010339D01*
X157614881Y-88013341D01*
X157614883Y-88013344D01*
X157738854Y-88137315D01*
X157888075Y-88229356D01*
X157888080Y-88229358D01*
X158054502Y-88284505D01*
X158054509Y-88284506D01*
X158157219Y-88294999D01*
X158507199Y-88294999D01*
X158507200Y-88294998D01*
X158507200Y-87310686D01*
X158511594Y-87315080D01*
X158602806Y-87367741D01*
X158704539Y-87395000D01*
X158809861Y-87395000D01*
X158911594Y-87367741D01*
X159002806Y-87315080D01*
X159007200Y-87310686D01*
X159007200Y-88294999D01*
X159357172Y-88294999D01*
X159357186Y-88294998D01*
X159459897Y-88284505D01*
X159626319Y-88229358D01*
X159626324Y-88229356D01*
X159775545Y-88137315D01*
X159899515Y-88013345D01*
X159991556Y-87864124D01*
X159991558Y-87864119D01*
X160046705Y-87697697D01*
X160046706Y-87697690D01*
X160057199Y-87594986D01*
X160057200Y-87594973D01*
X160057200Y-87245000D01*
X159072886Y-87245000D01*
X159077280Y-87240606D01*
X159129941Y-87149394D01*
X159157200Y-87047661D01*
X159157200Y-86942339D01*
X159129941Y-86840606D01*
X159077280Y-86749394D01*
X159072886Y-86745000D01*
X160057199Y-86745000D01*
X160057199Y-86395028D01*
X160057198Y-86395013D01*
X160046705Y-86292302D01*
X159991558Y-86125880D01*
X159991556Y-86125875D01*
X159899515Y-85976654D01*
X159775545Y-85852684D01*
X159626324Y-85760643D01*
X159626319Y-85760641D01*
X159570684Y-85742206D01*
X159513239Y-85702434D01*
X159486416Y-85637918D01*
X159498731Y-85569142D01*
X159546274Y-85517942D01*
X159609688Y-85500500D01*
X162340923Y-85500500D01*
X162407962Y-85520185D01*
X162453717Y-85572989D01*
X162463661Y-85642147D01*
X162434636Y-85705703D01*
X162379928Y-85742205D01*
X162352356Y-85751341D01*
X162325668Y-85760185D01*
X162325663Y-85760187D01*
X162176342Y-85852289D01*
X162052289Y-85976342D01*
X161960187Y-86125663D01*
X161960185Y-86125668D01*
X161959046Y-86129105D01*
X161905001Y-86292203D01*
X161905001Y-86292204D01*
X161905000Y-86292204D01*
X161894500Y-86394983D01*
X161894500Y-87595001D01*
X161894501Y-87595018D01*
X161905000Y-87697796D01*
X161905001Y-87697799D01*
X161960185Y-87864331D01*
X161960187Y-87864336D01*
X161968832Y-87878351D01*
X162052288Y-88013656D01*
X162176344Y-88137712D01*
X162325666Y-88229814D01*
X162492203Y-88284999D01*
X162594991Y-88295500D01*
X162959902Y-88295499D01*
X163026941Y-88315183D01*
X163047583Y-88331818D01*
X163980139Y-89264374D01*
X163980149Y-89264385D01*
X163984479Y-89268715D01*
X163984480Y-89268716D01*
X164096284Y-89380520D01*
X164096286Y-89380521D01*
X164096287Y-89380522D01*
X164111280Y-89389177D01*
X164158578Y-89416485D01*
X164233215Y-89459577D01*
X164385942Y-89500500D01*
X164385943Y-89500500D01*
X166069903Y-89500500D01*
X166136942Y-89520185D01*
X166157584Y-89536819D01*
X167003181Y-90382416D01*
X167036666Y-90443739D01*
X167039500Y-90470097D01*
X167039500Y-93042260D01*
X167019815Y-93109299D01*
X166994165Y-93138113D01*
X166886484Y-93226484D01*
X166753960Y-93387965D01*
X166753956Y-93387972D01*
X166655488Y-93572193D01*
X166655487Y-93572196D01*
X166655486Y-93572198D01*
X166655485Y-93572201D01*
X166643628Y-93611290D01*
X166594844Y-93772107D01*
X166574369Y-93980000D01*
X166594844Y-94187892D01*
X166608528Y-94233000D01*
X166655485Y-94387799D01*
X166655486Y-94387802D01*
X166655487Y-94387803D01*
X166655488Y-94387806D01*
X166753956Y-94572027D01*
X166753960Y-94572034D01*
X166886484Y-94733515D01*
X167047965Y-94866039D01*
X167047972Y-94866043D01*
X167232193Y-94964511D01*
X167232194Y-94964511D01*
X167232201Y-94964515D01*
X167432106Y-95025155D01*
X167432105Y-95025155D01*
X167450745Y-95026990D01*
X167640000Y-95045631D01*
X167847894Y-95025155D01*
X168047799Y-94964515D01*
X168232033Y-94866040D01*
X168393515Y-94733515D01*
X168526040Y-94572033D01*
X168624515Y-94387799D01*
X168685155Y-94187894D01*
X168705631Y-93980000D01*
X168685155Y-93772106D01*
X168624515Y-93572201D01*
X168624511Y-93572193D01*
X168526043Y-93387972D01*
X168526039Y-93387965D01*
X168393515Y-93226484D01*
X168285835Y-93138113D01*
X168246501Y-93080367D01*
X168240500Y-93042260D01*
X168240500Y-92446879D01*
X169526672Y-92446879D01*
X169526672Y-92446880D01*
X169642821Y-92518797D01*
X169642822Y-92518798D01*
X169850195Y-92599134D01*
X170068807Y-92640000D01*
X170291193Y-92640000D01*
X170509809Y-92599133D01*
X170717168Y-92518801D01*
X170717181Y-92518795D01*
X170833326Y-92446879D01*
X170180001Y-91793553D01*
X170180000Y-91793553D01*
X169526672Y-92446879D01*
X168240500Y-92446879D01*
X168240500Y-91439999D01*
X168974859Y-91439999D01*
X168974859Y-91440000D01*
X168995378Y-91661439D01*
X169056240Y-91875350D01*
X169155369Y-92074428D01*
X169171137Y-92095308D01*
X169171138Y-92095308D01*
X169826447Y-91440000D01*
X169780369Y-91393922D01*
X169830000Y-91393922D01*
X169830000Y-91486078D01*
X169853852Y-91575095D01*
X169899930Y-91654905D01*
X169965095Y-91720070D01*
X170044905Y-91766148D01*
X170133922Y-91790000D01*
X170226078Y-91790000D01*
X170315095Y-91766148D01*
X170394905Y-91720070D01*
X170460070Y-91654905D01*
X170506148Y-91575095D01*
X170530000Y-91486078D01*
X170530000Y-91439999D01*
X170533553Y-91439999D01*
X170533553Y-91440000D01*
X171188861Y-92095308D01*
X171204631Y-92074425D01*
X171204633Y-92074422D01*
X171303759Y-91875350D01*
X171364621Y-91661439D01*
X171385141Y-91440000D01*
X171385141Y-91439999D01*
X171364621Y-91218560D01*
X171303759Y-91004649D01*
X171204635Y-90805580D01*
X171204630Y-90805572D01*
X171188860Y-90784690D01*
X170533553Y-91439999D01*
X170530000Y-91439999D01*
X170530000Y-91393922D01*
X170506148Y-91304905D01*
X170460070Y-91225095D01*
X170394905Y-91159930D01*
X170315095Y-91113852D01*
X170226078Y-91090000D01*
X170133922Y-91090000D01*
X170044905Y-91113852D01*
X169965095Y-91159930D01*
X169899930Y-91225095D01*
X169853852Y-91304905D01*
X169830000Y-91393922D01*
X169780369Y-91393922D01*
X169171138Y-90784691D01*
X169171137Y-90784691D01*
X169155368Y-90805574D01*
X169056240Y-91004649D01*
X168995378Y-91218560D01*
X168974859Y-91439999D01*
X168240500Y-91439999D01*
X168240500Y-90433119D01*
X169526671Y-90433119D01*
X170180000Y-91086447D01*
X170180001Y-91086447D01*
X170833327Y-90433119D01*
X170717178Y-90361202D01*
X170717177Y-90361201D01*
X170509804Y-90280865D01*
X170291193Y-90240000D01*
X170068807Y-90240000D01*
X169850195Y-90280865D01*
X169642824Y-90361200D01*
X169642823Y-90361201D01*
X169526671Y-90433119D01*
X168240500Y-90433119D01*
X168240500Y-90090941D01*
X168240121Y-90089525D01*
X168240121Y-90089526D01*
X168224851Y-90032539D01*
X168199577Y-89938215D01*
X168155195Y-89861344D01*
X168155195Y-89861342D01*
X168120524Y-89801290D01*
X168120521Y-89801286D01*
X168120520Y-89801284D01*
X168008716Y-89689480D01*
X168008715Y-89689479D01*
X168004385Y-89685149D01*
X168004374Y-89685139D01*
X166857590Y-88538355D01*
X166857588Y-88538352D01*
X166738717Y-88419481D01*
X166738716Y-88419480D01*
X166669722Y-88379647D01*
X166621506Y-88329080D01*
X166608282Y-88260473D01*
X166634250Y-88195608D01*
X166666621Y-88166722D01*
X166713656Y-88137712D01*
X166837712Y-88013656D01*
X166929814Y-87864334D01*
X166984999Y-87697797D01*
X166995500Y-87595009D01*
X166995499Y-86394992D01*
X166984999Y-86292203D01*
X166929814Y-86125666D01*
X166837712Y-85976344D01*
X166713656Y-85852288D01*
X166608543Y-85787454D01*
X166564336Y-85760187D01*
X166564331Y-85760185D01*
X166563428Y-85759885D01*
X166510072Y-85742205D01*
X166452628Y-85702433D01*
X166425805Y-85637917D01*
X166438120Y-85569142D01*
X166485663Y-85517942D01*
X166549077Y-85500500D01*
X167118097Y-85500500D01*
X167351368Y-85463553D01*
X167363968Y-85459459D01*
X167575992Y-85390568D01*
X167786433Y-85283343D01*
X167977510Y-85144517D01*
X168144517Y-84977510D01*
X168283343Y-84786433D01*
X168390568Y-84575992D01*
X168390568Y-84575989D01*
X168391848Y-84573479D01*
X168439822Y-84522683D01*
X168507643Y-84505888D01*
X168573778Y-84528425D01*
X168615889Y-84579963D01*
X168675827Y-84716608D01*
X168811833Y-84924782D01*
X168811836Y-84924785D01*
X168980256Y-85107738D01*
X169176491Y-85260474D01*
X169395190Y-85378828D01*
X169466240Y-85403219D01*
X169523254Y-85443604D01*
X169549385Y-85508403D01*
X169536334Y-85577043D01*
X169488245Y-85627731D01*
X169425977Y-85644500D01*
X169282130Y-85644500D01*
X169282123Y-85644501D01*
X169222516Y-85650908D01*
X169087671Y-85701202D01*
X169087664Y-85701206D01*
X168972455Y-85787452D01*
X168972452Y-85787455D01*
X168886206Y-85902664D01*
X168886202Y-85902671D01*
X168835908Y-86037517D01*
X168829501Y-86097116D01*
X168829500Y-86097135D01*
X168829500Y-87892870D01*
X168829501Y-87892876D01*
X168835908Y-87952483D01*
X168886202Y-88087328D01*
X168886206Y-88087335D01*
X168972452Y-88202544D01*
X168972455Y-88202547D01*
X169087664Y-88288793D01*
X169087671Y-88288797D01*
X169222517Y-88339091D01*
X169222516Y-88339091D01*
X169229444Y-88339835D01*
X169282127Y-88345500D01*
X171077872Y-88345499D01*
X171137483Y-88339091D01*
X171272331Y-88288796D01*
X171387546Y-88202546D01*
X171473796Y-88087331D01*
X171474792Y-88084662D01*
X171501274Y-88013659D01*
X171523002Y-87955401D01*
X171564872Y-87899468D01*
X171630337Y-87875050D01*
X171698610Y-87889901D01*
X171726865Y-87911053D01*
X171848917Y-88033105D01*
X172042421Y-88168600D01*
X172256507Y-88268429D01*
X172256516Y-88268433D01*
X172470000Y-88325634D01*
X172470000Y-87428012D01*
X172527007Y-87460925D01*
X172654174Y-87495000D01*
X172785826Y-87495000D01*
X172912993Y-87460925D01*
X172970000Y-87428012D01*
X172970000Y-88325633D01*
X173183483Y-88268433D01*
X173183492Y-88268429D01*
X173397578Y-88168600D01*
X173591082Y-88033105D01*
X173758105Y-87866082D01*
X173893600Y-87672578D01*
X173993429Y-87458492D01*
X173993432Y-87458486D01*
X174050636Y-87245000D01*
X173153012Y-87245000D01*
X173185925Y-87187993D01*
X173220000Y-87060826D01*
X173220000Y-86929174D01*
X173185925Y-86802007D01*
X173153012Y-86745000D01*
X174050636Y-86745000D01*
X174050635Y-86744999D01*
X173993432Y-86531513D01*
X173993429Y-86531507D01*
X173893600Y-86317422D01*
X173893599Y-86317420D01*
X173758113Y-86123926D01*
X173758108Y-86123920D01*
X173591082Y-85956894D01*
X173397578Y-85821399D01*
X173216329Y-85736882D01*
X173163890Y-85690710D01*
X173144738Y-85623516D01*
X173164954Y-85556635D01*
X173218119Y-85511301D01*
X173268734Y-85500500D01*
X176616266Y-85500500D01*
X176683305Y-85520185D01*
X176729060Y-85572989D01*
X176739004Y-85642147D01*
X176709979Y-85705703D01*
X176668671Y-85736882D01*
X176487422Y-85821399D01*
X176487420Y-85821400D01*
X176293926Y-85956886D01*
X176293920Y-85956891D01*
X176126891Y-86123920D01*
X176126886Y-86123926D01*
X175991400Y-86317420D01*
X175991399Y-86317422D01*
X175891570Y-86531507D01*
X175891567Y-86531513D01*
X175834364Y-86744999D01*
X175834364Y-86745000D01*
X176731988Y-86745000D01*
X176699075Y-86802007D01*
X176665000Y-86929174D01*
X176665000Y-87060826D01*
X176699075Y-87187993D01*
X176731988Y-87245000D01*
X175834364Y-87245000D01*
X175891567Y-87458486D01*
X175891570Y-87458492D01*
X175991399Y-87672578D01*
X176126894Y-87866082D01*
X176248946Y-87988134D01*
X176282431Y-88049457D01*
X176277447Y-88119149D01*
X176235575Y-88175082D01*
X176204598Y-88191997D01*
X176072671Y-88241202D01*
X176072664Y-88241206D01*
X175957455Y-88327452D01*
X175957452Y-88327455D01*
X175871206Y-88442664D01*
X175871202Y-88442671D01*
X175820908Y-88577517D01*
X175814501Y-88637116D01*
X175814501Y-88637123D01*
X175814500Y-88637135D01*
X175814500Y-90432870D01*
X175814501Y-90432876D01*
X175820908Y-90492483D01*
X175871202Y-90627328D01*
X175871206Y-90627335D01*
X175957452Y-90742544D01*
X175957455Y-90742547D01*
X176072664Y-90828793D01*
X176072671Y-90828797D01*
X176207517Y-90879091D01*
X176207516Y-90879091D01*
X176214444Y-90879835D01*
X176267127Y-90885500D01*
X178062872Y-90885499D01*
X178122483Y-90879091D01*
X178257331Y-90828796D01*
X178372546Y-90742546D01*
X178458796Y-90627331D01*
X178509091Y-90492483D01*
X178515500Y-90432873D01*
X178515499Y-88637128D01*
X178509091Y-88577517D01*
X178504938Y-88566383D01*
X178458797Y-88442671D01*
X178458793Y-88442664D01*
X178372547Y-88327455D01*
X178372544Y-88327452D01*
X178257335Y-88241206D01*
X178257328Y-88241202D01*
X178125401Y-88191997D01*
X178069467Y-88150126D01*
X178045050Y-88084662D01*
X178059902Y-88016389D01*
X178081053Y-87988133D01*
X178203108Y-87866078D01*
X178338600Y-87672578D01*
X178438429Y-87458492D01*
X178438432Y-87458486D01*
X178495636Y-87245000D01*
X177598012Y-87245000D01*
X177630925Y-87187993D01*
X177665000Y-87060826D01*
X177665000Y-86929174D01*
X177630925Y-86802007D01*
X177598012Y-86745000D01*
X178495636Y-86745000D01*
X178495635Y-86744999D01*
X178438432Y-86531513D01*
X178438429Y-86531507D01*
X178338600Y-86317422D01*
X178338599Y-86317420D01*
X178203113Y-86123926D01*
X178203108Y-86123920D01*
X178036082Y-85956894D01*
X177842578Y-85821399D01*
X177661329Y-85736882D01*
X177608890Y-85690710D01*
X177589738Y-85623516D01*
X177609954Y-85556635D01*
X177663119Y-85511301D01*
X177713734Y-85500500D01*
X181118097Y-85500500D01*
X181351368Y-85463553D01*
X181363968Y-85459459D01*
X181575992Y-85390568D01*
X181786433Y-85283343D01*
X181977510Y-85144517D01*
X182050835Y-85071191D01*
X182112154Y-85037709D01*
X182181846Y-85042693D01*
X182226196Y-85071196D01*
X182244995Y-85089996D01*
X182244997Y-85089998D01*
X182245000Y-85090000D01*
X184150000Y-86360000D01*
X187324999Y-86360000D01*
X187325000Y-86360000D01*
X188420596Y-84716606D01*
X188558189Y-84510217D01*
X188611754Y-84465356D01*
X188661363Y-84455000D01*
X189638020Y-84455000D01*
X189705059Y-84474685D01*
G37*
G04 #@! TD.AperFunction*
G04 #@! TA.AperFunction,Conductor*
G36*
X167724855Y-101631546D02*
G01*
X167741575Y-101650842D01*
X167871500Y-101836395D01*
X167871505Y-101836401D01*
X168038599Y-102003495D01*
X168218238Y-102129280D01*
X168224594Y-102133730D01*
X168268219Y-102188307D01*
X168275413Y-102257805D01*
X168243890Y-102320160D01*
X168224595Y-102336880D01*
X168038922Y-102466890D01*
X168038920Y-102466891D01*
X167871891Y-102633920D01*
X167871890Y-102633922D01*
X167741880Y-102819595D01*
X167687303Y-102863219D01*
X167617804Y-102870412D01*
X167555450Y-102838890D01*
X167538730Y-102819594D01*
X167408494Y-102633597D01*
X167241402Y-102466506D01*
X167241396Y-102466501D01*
X167055842Y-102336575D01*
X167012217Y-102281998D01*
X167005023Y-102212500D01*
X167036546Y-102150145D01*
X167055842Y-102133425D01*
X167201357Y-102031534D01*
X167241401Y-102003495D01*
X167408495Y-101836401D01*
X167538425Y-101650842D01*
X167593002Y-101607217D01*
X167662500Y-101600023D01*
X167724855Y-101631546D01*
G37*
G04 #@! TD.AperFunction*
G04 #@! TA.AperFunction,Conductor*
G36*
X165184549Y-101631110D02*
G01*
X165201269Y-101650405D01*
X165331505Y-101836401D01*
X165331506Y-101836402D01*
X165498597Y-102003493D01*
X165498603Y-102003498D01*
X165684158Y-102133425D01*
X165727783Y-102188002D01*
X165734977Y-102257500D01*
X165703454Y-102319855D01*
X165684158Y-102336575D01*
X165498600Y-102466503D01*
X165376673Y-102588430D01*
X165315350Y-102621914D01*
X165245658Y-102616930D01*
X165189725Y-102575058D01*
X165172810Y-102544081D01*
X165123797Y-102412671D01*
X165123793Y-102412664D01*
X165037547Y-102297455D01*
X165037544Y-102297452D01*
X164922335Y-102211206D01*
X164922328Y-102211202D01*
X164790401Y-102161997D01*
X164734467Y-102120126D01*
X164710050Y-102054662D01*
X164724902Y-101986389D01*
X164746053Y-101958133D01*
X164868108Y-101836078D01*
X164998119Y-101650405D01*
X165052696Y-101606781D01*
X165122195Y-101599588D01*
X165184549Y-101631110D01*
G37*
G04 #@! TD.AperFunction*
G04 #@! TA.AperFunction,Conductor*
G36*
X143563130Y-84524462D02*
G01*
X143608151Y-84573479D01*
X143636505Y-84629126D01*
X143716657Y-84786433D01*
X143855483Y-84977510D01*
X144022490Y-85144517D01*
X144213567Y-85283343D01*
X144312991Y-85334002D01*
X144424003Y-85390566D01*
X144424005Y-85390566D01*
X144424008Y-85390568D01*
X144528483Y-85424514D01*
X144648631Y-85463553D01*
X144881903Y-85500500D01*
X145599712Y-85500500D01*
X145666751Y-85520185D01*
X145712506Y-85572989D01*
X145722450Y-85642147D01*
X145693425Y-85705703D01*
X145638031Y-85742430D01*
X145613268Y-85750476D01*
X145550776Y-85770781D01*
X145368386Y-85863715D01*
X145202786Y-85984028D01*
X145058028Y-86128786D01*
X144937713Y-86294388D01*
X144890203Y-86387630D01*
X144842228Y-86438426D01*
X144774407Y-86455220D01*
X144708272Y-86432682D01*
X144669234Y-86387628D01*
X144621861Y-86294652D01*
X144501582Y-86129105D01*
X144501582Y-86129104D01*
X144356895Y-85984417D01*
X144191349Y-85864140D01*
X144009029Y-85771244D01*
X143814413Y-85708009D01*
X143760000Y-85699390D01*
X143760000Y-87060314D01*
X143755606Y-87055920D01*
X143664394Y-87003259D01*
X143562661Y-86976000D01*
X143457339Y-86976000D01*
X143355606Y-87003259D01*
X143264394Y-87055920D01*
X143260000Y-87060314D01*
X143260000Y-85699390D01*
X143205586Y-85708009D01*
X143010970Y-85771244D01*
X142828650Y-85864140D01*
X142663105Y-85984417D01*
X142663104Y-85984417D01*
X142518417Y-86129104D01*
X142518417Y-86129105D01*
X142398140Y-86294650D01*
X142350765Y-86387629D01*
X142302790Y-86438425D01*
X142234969Y-86455220D01*
X142168834Y-86432682D01*
X142129795Y-86387629D01*
X142105526Y-86340000D01*
X142082287Y-86294390D01*
X142020858Y-86209839D01*
X141961971Y-86128786D01*
X141817213Y-85984028D01*
X141651613Y-85863715D01*
X141651612Y-85863714D01*
X141651610Y-85863713D01*
X141594653Y-85834691D01*
X141469223Y-85770781D01*
X141274534Y-85707522D01*
X141083003Y-85677187D01*
X141072352Y-85675500D01*
X140867648Y-85675500D01*
X140856997Y-85677187D01*
X140665465Y-85707522D01*
X140470776Y-85770781D01*
X140288386Y-85863715D01*
X140122786Y-85984028D01*
X139978028Y-86128786D01*
X139857715Y-86294386D01*
X139810485Y-86387080D01*
X139762510Y-86437876D01*
X139694689Y-86454671D01*
X139628554Y-86432134D01*
X139589515Y-86387080D01*
X139565526Y-86340000D01*
X139542287Y-86294390D01*
X139480858Y-86209839D01*
X139421971Y-86128786D01*
X139277213Y-85984028D01*
X139111613Y-85863715D01*
X139111612Y-85863714D01*
X139111610Y-85863713D01*
X139054653Y-85834691D01*
X138929223Y-85770781D01*
X138881435Y-85755254D01*
X138841968Y-85742430D01*
X138784294Y-85702993D01*
X138757096Y-85638634D01*
X138769011Y-85569788D01*
X138816255Y-85518312D01*
X138880288Y-85500500D01*
X139118097Y-85500500D01*
X139351368Y-85463553D01*
X139363968Y-85459459D01*
X139575992Y-85390568D01*
X139786433Y-85283343D01*
X139977510Y-85144517D01*
X140144517Y-84977510D01*
X140283343Y-84786433D01*
X140390568Y-84575992D01*
X140390568Y-84575989D01*
X140391848Y-84573479D01*
X140439822Y-84522683D01*
X140507643Y-84505888D01*
X140573778Y-84528425D01*
X140615889Y-84579963D01*
X140675827Y-84716608D01*
X140811833Y-84924782D01*
X140811836Y-84924785D01*
X140980256Y-85107738D01*
X141176491Y-85260474D01*
X141395190Y-85378828D01*
X141630386Y-85459571D01*
X141875665Y-85500500D01*
X142124335Y-85500500D01*
X142369614Y-85459571D01*
X142604810Y-85378828D01*
X142823509Y-85260474D01*
X143019744Y-85107738D01*
X143188164Y-84924785D01*
X143324173Y-84716607D01*
X143384110Y-84579963D01*
X143429066Y-84526478D01*
X143495802Y-84505788D01*
X143563130Y-84524462D01*
G37*
G04 #@! TD.AperFunction*
M02*
