G04 #@! TF.GenerationSoftware,KiCad,Pcbnew,8.0.5*
G04 #@! TF.CreationDate,2024-10-16T23:13:09+09:00*
G04 #@! TF.ProjectId,20240922_FV-1,32303234-3039-4323-925f-46562d312e6b,rev?*
G04 #@! TF.SameCoordinates,Original*
G04 #@! TF.FileFunction,Soldermask,Bot*
G04 #@! TF.FilePolarity,Negative*
%FSLAX46Y46*%
G04 Gerber Fmt 4.6, Leading zero omitted, Abs format (unit mm)*
G04 Created by KiCad (PCBNEW 8.0.5) date 2024-10-16 23:13:09*
%MOMM*%
%LPD*%
G01*
G04 APERTURE LIST*
G04 Aperture macros list*
%AMRoundRect*
0 Rectangle with rounded corners*
0 $1 Rounding radius*
0 $2 $3 $4 $5 $6 $7 $8 $9 X,Y pos of 4 corners*
0 Add a 4 corners polygon primitive as box body*
4,1,4,$2,$3,$4,$5,$6,$7,$8,$9,$2,$3,0*
0 Add four circle primitives for the rounded corners*
1,1,$1+$1,$2,$3*
1,1,$1+$1,$4,$5*
1,1,$1+$1,$6,$7*
1,1,$1+$1,$8,$9*
0 Add four rect primitives between the rounded corners*
20,1,$1+$1,$2,$3,$4,$5,0*
20,1,$1+$1,$4,$5,$6,$7,0*
20,1,$1+$1,$6,$7,$8,$9,0*
20,1,$1+$1,$8,$9,$2,$3,0*%
G04 Aperture macros list end*
%ADD10C,3.400000*%
%ADD11RoundRect,0.100000X0.850000X-0.850000X0.850000X0.850000X-0.850000X0.850000X-0.850000X-0.850000X0*%
%ADD12O,1.900000X1.900000*%
%ADD13RoundRect,0.281250X0.618750X0.618750X-0.618750X0.618750X-0.618750X-0.618750X0.618750X-0.618750X0*%
%ADD14RoundRect,0.100000X-1.200000X-0.800000X1.200000X-0.800000X1.200000X0.800000X-1.200000X0.800000X0*%
%ADD15O,2.600000X1.800000*%
%ADD16RoundRect,0.281250X-0.618750X-0.618750X0.618750X-0.618750X0.618750X0.618750X-0.618750X0.618750X0*%
%ADD17C,1.600000*%
%ADD18O,1.600000X1.600000*%
%ADD19C,1.320000*%
%ADD20RoundRect,0.100000X0.850000X0.850000X-0.850000X0.850000X-0.850000X-0.850000X0.850000X-0.850000X0*%
%ADD21RoundRect,0.100000X0.800000X-1.200000X0.800000X1.200000X-0.800000X1.200000X-0.800000X-1.200000X0*%
%ADD22O,1.800000X2.600000*%
%ADD23RoundRect,0.100000X-0.800000X1.200000X-0.800000X-1.200000X0.800000X-1.200000X0.800000X1.200000X0*%
%ADD24RoundRect,0.100000X-0.850000X-0.850000X0.850000X-0.850000X0.850000X0.850000X-0.850000X0.850000X0*%
%ADD25RoundRect,0.292553X0.394947X0.532447X-0.394947X0.532447X-0.394947X-0.532447X0.394947X-0.532447X0*%
%ADD26RoundRect,0.292553X-0.394947X-0.532447X0.394947X-0.532447X0.394947X0.532447X-0.394947X0.532447X0*%
G04 APERTURE END LIST*
D10*
X185500000Y-106500000D03*
D11*
X113665000Y-87630000D03*
D12*
X116205000Y-87630000D03*
X118745000Y-87630000D03*
X121285000Y-87630000D03*
D10*
X125500000Y-83500000D03*
D13*
X176490000Y-94615000D03*
X173990000Y-94615000D03*
D14*
X188595000Y-94107000D03*
D15*
X188595000Y-96647000D03*
X188595000Y-99187000D03*
X188595000Y-101727000D03*
X196215000Y-101727000D03*
X196215000Y-99187000D03*
X196215000Y-96647000D03*
X196215000Y-94107000D03*
D16*
X156257200Y-86995000D03*
X158757200Y-86995000D03*
D17*
X180340000Y-101854000D03*
D18*
X185420000Y-101854000D03*
D11*
X130810000Y-81280000D03*
D12*
X133350000Y-81280000D03*
X135890000Y-81280000D03*
X138430000Y-81280000D03*
D11*
X172720000Y-81280000D03*
D12*
X175260000Y-81280000D03*
X177800000Y-81280000D03*
X180340000Y-81280000D03*
D16*
X156250000Y-94615000D03*
X158750000Y-94615000D03*
D11*
X144780000Y-108585000D03*
D12*
X147320000Y-108585000D03*
X149860000Y-108585000D03*
X152400000Y-108585000D03*
D11*
X113665000Y-81280000D03*
D12*
X116205000Y-81280000D03*
X118745000Y-81280000D03*
X121285000Y-81280000D03*
D11*
X158750000Y-108585000D03*
D12*
X161290000Y-108585000D03*
X163830000Y-108585000D03*
X166370000Y-108585000D03*
D17*
X180340000Y-98806000D03*
D18*
X185420000Y-98806000D03*
D13*
X165695000Y-86995000D03*
X163195000Y-86995000D03*
X176490000Y-102235000D03*
X173990000Y-102235000D03*
X196850000Y-87630000D03*
X194350000Y-87630000D03*
D11*
X170180000Y-86995000D03*
D12*
X172720000Y-86995000D03*
D11*
X172720000Y-108585000D03*
D12*
X175260000Y-108585000D03*
X177800000Y-108585000D03*
X180340000Y-108585000D03*
D19*
X162560000Y-93980000D03*
X165100000Y-91440000D03*
X167640000Y-93980000D03*
D11*
X113665000Y-102870000D03*
D12*
X116205000Y-102870000D03*
X118745000Y-102870000D03*
X121285000Y-102870000D03*
D10*
X125500000Y-106500000D03*
D11*
X144780000Y-81280000D03*
D12*
X147320000Y-81280000D03*
X149860000Y-81280000D03*
X152400000Y-81280000D03*
D20*
X177165000Y-89535000D03*
D12*
X177165000Y-86995000D03*
D17*
X170180000Y-91440000D03*
D18*
X170180000Y-96520000D03*
D17*
X180340000Y-95758000D03*
D18*
X185420000Y-95758000D03*
D16*
X156250000Y-102235000D03*
X158750000Y-102235000D03*
D11*
X158750000Y-81280000D03*
D12*
X161290000Y-81280000D03*
X163830000Y-81280000D03*
X166370000Y-81280000D03*
D19*
X180340000Y-90170000D03*
X182880000Y-87630000D03*
X185420000Y-90170000D03*
D10*
X185500000Y-83500000D03*
D11*
X130810000Y-108585000D03*
D12*
X133350000Y-108585000D03*
X135890000Y-108585000D03*
X138430000Y-108585000D03*
D21*
X113665000Y-99060000D03*
D22*
X116205000Y-99060000D03*
X118745000Y-99060000D03*
X121285000Y-99060000D03*
X121285000Y-91440000D03*
X118745000Y-91440000D03*
X116205000Y-91440000D03*
X113665000Y-91440000D03*
D13*
X191095000Y-89535000D03*
X188595000Y-89535000D03*
D23*
X151130000Y-87376000D03*
D22*
X148590000Y-87376000D03*
X146050000Y-87376000D03*
X143510000Y-87376000D03*
X140970000Y-87376000D03*
X138430000Y-87376000D03*
X135890000Y-87376000D03*
X133350000Y-87376000D03*
X130810000Y-87376000D03*
X130810000Y-102616000D03*
X133350000Y-102616000D03*
X135890000Y-102616000D03*
X138430000Y-102616000D03*
X140970000Y-102616000D03*
X143510000Y-102616000D03*
X146050000Y-102616000D03*
X148590000Y-102616000D03*
X151130000Y-102616000D03*
D11*
X163830000Y-103505000D03*
D12*
X163830000Y-100965000D03*
X166370000Y-103505000D03*
X166370000Y-100965000D03*
X168910000Y-103505000D03*
X168910000Y-100965000D03*
D11*
X113665000Y-108585000D03*
D12*
X116205000Y-108585000D03*
X118745000Y-108585000D03*
X121285000Y-108585000D03*
D24*
X145542000Y-99060000D03*
D12*
X145542000Y-96520000D03*
X145542000Y-93980000D03*
D25*
X193421000Y-99060000D03*
X191346000Y-99060000D03*
X148760000Y-90805000D03*
X146685000Y-90805000D03*
D20*
X130810000Y-91440000D03*
D12*
X130810000Y-93980000D03*
D24*
X135890000Y-99060000D03*
D12*
X135890000Y-96520000D03*
X135890000Y-93980000D03*
X135890000Y-91440000D03*
D26*
X191389000Y-96520000D03*
X193464000Y-96520000D03*
D20*
X140970000Y-91440000D03*
D12*
X140970000Y-93980000D03*
M02*
