G04 #@! TF.GenerationSoftware,KiCad,Pcbnew,8.0.5*
G04 #@! TF.CreationDate,2024-10-16T23:13:09+09:00*
G04 #@! TF.ProjectId,20240922_FV-1,32303234-3039-4323-925f-46562d312e6b,rev?*
G04 #@! TF.SameCoordinates,Original*
G04 #@! TF.FileFunction,Profile,NP*
%FSLAX46Y46*%
G04 Gerber Fmt 4.6, Leading zero omitted, Abs format (unit mm)*
G04 Created by KiCad (PCBNEW 8.0.5) date 2024-10-16 23:13:09*
%MOMM*%
%LPD*%
G01*
G04 APERTURE LIST*
G04 #@! TA.AperFunction,Profile*
%ADD10C,0.050000*%
G04 #@! TD*
G04 APERTURE END LIST*
D10*
X159000000Y-107000000D02*
X167000000Y-107000000D01*
X157000000Y-106000000D02*
G75*
G02*
X155000000Y-106000000I-1000000J0D01*
G01*
X155000000Y-106000000D02*
G75*
G02*
X157000000Y-106000000I1000000J0D01*
G01*
X120000000Y-83000000D02*
X112000000Y-83000000D01*
X173000000Y-107000000D02*
G75*
G02*
X173000000Y-105000000I0J1000000D01*
G01*
X173000000Y-107000000D02*
X181000000Y-107000000D01*
X200000000Y-104000000D02*
X200000000Y-86000000D01*
X126500000Y-102000000D02*
X126500000Y-98000000D01*
X181000000Y-83000000D02*
G75*
G02*
X181000000Y-85000000I0J-1000000D01*
G01*
X181000000Y-83000000D02*
X173000000Y-83000000D01*
X112000000Y-85000000D02*
G75*
G02*
X112000000Y-83000000I0J1000000D01*
G01*
X185500000Y-79027523D02*
X185000000Y-79000000D01*
X120000000Y-105000000D02*
X112000000Y-105000000D01*
X124500000Y-88000000D02*
X124500000Y-92000000D01*
X112000000Y-107000000D02*
X120000000Y-107000000D01*
X167000000Y-83000000D02*
X159000000Y-83000000D01*
X110000000Y-111000000D02*
X185000000Y-111000000D01*
X190000000Y-106500000D02*
G75*
G02*
X185500000Y-111000000I-4500000J0D01*
G01*
X199000000Y-85000000D02*
G75*
G02*
X200000000Y-86000000I0J-1000000D01*
G01*
X153000000Y-105000000D02*
G75*
G02*
X153000000Y-107000000I0J-1000000D01*
G01*
X159000000Y-107000000D02*
G75*
G02*
X159000000Y-105000000I0J1000000D01*
G01*
X191500000Y-105000000D02*
X199000000Y-105000000D01*
X185500000Y-111000000D02*
X185000000Y-111000000D01*
X120000000Y-83000000D02*
G75*
G02*
X120000000Y-85000000I0J-1000000D01*
G01*
X131000000Y-107000000D02*
G75*
G02*
X131000000Y-105000000I0J1000000D01*
G01*
X124500000Y-98000000D02*
X124500000Y-102000000D01*
X181000000Y-105000000D02*
G75*
G02*
X181000000Y-107000000I0J-1000000D01*
G01*
X153000000Y-105000000D02*
X145000000Y-105000000D01*
X145000000Y-107000000D02*
X153000000Y-107000000D01*
X139000000Y-83000000D02*
G75*
G02*
X139000000Y-85000000I0J-1000000D01*
G01*
X120000000Y-105000000D02*
G75*
G02*
X120000000Y-107000000I0J-1000000D01*
G01*
X112000000Y-107000000D02*
G75*
G02*
X112000000Y-105000000I0J1000000D01*
G01*
X198000000Y-85000000D02*
X199000000Y-85000000D01*
X143000000Y-84000000D02*
G75*
G02*
X141000000Y-84000000I-1000000J0D01*
G01*
X141000000Y-84000000D02*
G75*
G02*
X143000000Y-84000000I1000000J0D01*
G01*
X139000000Y-83000000D02*
X131000000Y-83000000D01*
X145000000Y-85000000D02*
G75*
G02*
X145000000Y-83000000I0J1000000D01*
G01*
X190000000Y-106500000D02*
G75*
G02*
X191500000Y-105000000I1500000J0D01*
G01*
X139000000Y-105000000D02*
X131000000Y-105000000D01*
X145000000Y-85000000D02*
X153000000Y-85000000D01*
X124500000Y-98000000D02*
G75*
G02*
X126500000Y-98000000I1000000J0D01*
G01*
X181000000Y-105000000D02*
X173000000Y-105000000D01*
X131000000Y-85000000D02*
G75*
G02*
X131000000Y-83000000I0J1000000D01*
G01*
X159000000Y-85000000D02*
G75*
G02*
X159000000Y-83000000I0J1000000D01*
G01*
X153000000Y-83000000D02*
X145000000Y-83000000D01*
X167000000Y-83000000D02*
G75*
G02*
X167000000Y-85000000I0J-1000000D01*
G01*
X167000000Y-105000000D02*
X159000000Y-105000000D01*
X173000000Y-85000000D02*
G75*
G02*
X173000000Y-83000000I0J1000000D01*
G01*
X143000000Y-106000000D02*
G75*
G02*
X141000000Y-106000000I-1000000J0D01*
G01*
X141000000Y-106000000D02*
G75*
G02*
X143000000Y-106000000I1000000J0D01*
G01*
X112000000Y-85000000D02*
X120000000Y-85000000D01*
X126500000Y-92000000D02*
G75*
G02*
X124500000Y-92000000I-1000000J0D01*
G01*
X153000000Y-83000000D02*
G75*
G02*
X153000000Y-85000000I0J-1000000D01*
G01*
X185500000Y-79027523D02*
G75*
G02*
X189972477Y-83500000I0J-4472477D01*
G01*
X198000000Y-85000000D02*
X191500000Y-85027523D01*
X167000000Y-105000000D02*
G75*
G02*
X167000000Y-107000000I0J-1000000D01*
G01*
X185000000Y-79000000D02*
X110000000Y-79000000D01*
X200000000Y-104000000D02*
G75*
G02*
X199000000Y-105000000I-1000000J0D01*
G01*
X159000000Y-85000000D02*
X167000000Y-85000000D01*
X124500000Y-88000000D02*
G75*
G02*
X126500000Y-88000000I1000000J0D01*
G01*
X145000000Y-107000000D02*
G75*
G02*
X145000000Y-105000000I0J1000000D01*
G01*
X157000000Y-84000000D02*
G75*
G02*
X155000000Y-84000000I-1000000J0D01*
G01*
X155000000Y-84000000D02*
G75*
G02*
X157000000Y-84000000I1000000J0D01*
G01*
X126500000Y-102000000D02*
G75*
G02*
X124500000Y-102000000I-1000000J0D01*
G01*
X191500000Y-85027523D02*
G75*
G02*
X189972477Y-83500000I0J1527523D01*
G01*
X110000000Y-79000000D02*
X110000000Y-111000000D01*
X171000000Y-84000000D02*
G75*
G02*
X169000000Y-84000000I-1000000J0D01*
G01*
X169000000Y-84000000D02*
G75*
G02*
X171000000Y-84000000I1000000J0D01*
G01*
X139000000Y-105000000D02*
G75*
G02*
X139000000Y-107000000I0J-1000000D01*
G01*
X131000000Y-107000000D02*
X139000000Y-107000000D01*
X173000000Y-85000000D02*
X181000000Y-85000000D01*
X126500000Y-92000000D02*
X126500000Y-88000000D01*
X171000000Y-106000000D02*
G75*
G02*
X169000000Y-106000000I-1000000J0D01*
G01*
X169000000Y-106000000D02*
G75*
G02*
X171000000Y-106000000I1000000J0D01*
G01*
X131000000Y-85000000D02*
X139000000Y-85000000D01*
M02*
