%TF.GenerationSoftware,KiCad,Pcbnew,8.0.5*%
%TF.CreationDate,2024-10-16T23:13:20+09:00*%
%TF.ProjectId,20240922_FV-1,32303234-3039-4323-925f-46562d312e6b,rev?*%
%TF.SameCoordinates,Original*%
%TF.FileFunction,Drillmap*%
%TF.FilePolarity,Positive*%
%FSLAX45Y45*%
G04 Gerber Fmt 4.5, Leading zero omitted, Abs format (unit mm)*
G04 Created by KiCad (PCBNEW 8.0.5) date 2024-10-16 23:13:20*
%MOMM*%
%LPD*%
G01*
G04 APERTURE LIST*
%ADD10C,0.050000*%
%ADD11C,0.200000*%
%ADD12C,0.100000*%
G04 APERTURE END LIST*
D10*
X15900000Y-10700000D02*
X16700000Y-10700000D01*
X15700000Y-10600000D02*
G75*
G02*
X15500000Y-10600000I-100000J0D01*
G01*
X15500000Y-10600000D02*
G75*
G02*
X15700000Y-10600000I100000J0D01*
G01*
X12000000Y-8300000D02*
X11200000Y-8300000D01*
X17300000Y-10700000D02*
G75*
G02*
X17300000Y-10500000I0J100000D01*
G01*
X17300000Y-10700000D02*
X18100000Y-10700000D01*
X20000000Y-10400000D02*
X20000000Y-8600000D01*
X12650000Y-10200000D02*
X12650000Y-9800000D01*
X18100000Y-8300000D02*
G75*
G02*
X18100000Y-8500000I0J-100000D01*
G01*
X18100000Y-8300000D02*
X17300000Y-8300000D01*
X11200000Y-8500000D02*
G75*
G02*
X11200000Y-8300000I0J100000D01*
G01*
X18550000Y-7902752D02*
X18500000Y-7900000D01*
X12000000Y-10500000D02*
X11200000Y-10500000D01*
X12450000Y-8800000D02*
X12450000Y-9200000D01*
X11200000Y-10700000D02*
X12000000Y-10700000D01*
X16700000Y-8300000D02*
X15900000Y-8300000D01*
X11000000Y-11100000D02*
X18500000Y-11100000D01*
X19000000Y-10650000D02*
G75*
G02*
X18550000Y-11100000I-450000J0D01*
G01*
X19900000Y-8500000D02*
G75*
G02*
X20000000Y-8600000I0J-100000D01*
G01*
X15300000Y-10500000D02*
G75*
G02*
X15300000Y-10700000I0J-100000D01*
G01*
X15900000Y-10700000D02*
G75*
G02*
X15900000Y-10500000I0J100000D01*
G01*
X19150000Y-10500000D02*
X19900000Y-10500000D01*
X18550000Y-11100000D02*
X18500000Y-11100000D01*
X12000000Y-8300000D02*
G75*
G02*
X12000000Y-8500000I0J-100000D01*
G01*
X13100000Y-10700000D02*
G75*
G02*
X13100000Y-10500000I0J100000D01*
G01*
X12450000Y-9800000D02*
X12450000Y-10200000D01*
X18100000Y-10500000D02*
G75*
G02*
X18100000Y-10700000I0J-100000D01*
G01*
X15300000Y-10500000D02*
X14500000Y-10500000D01*
X14500000Y-10700000D02*
X15300000Y-10700000D01*
X13900000Y-8300000D02*
G75*
G02*
X13900000Y-8500000I0J-100000D01*
G01*
X12000000Y-10500000D02*
G75*
G02*
X12000000Y-10700000I0J-100000D01*
G01*
X11200000Y-10700000D02*
G75*
G02*
X11200000Y-10500000I0J100000D01*
G01*
X19800000Y-8500000D02*
X19900000Y-8500000D01*
X14300000Y-8400000D02*
G75*
G02*
X14100000Y-8400000I-100000J0D01*
G01*
X14100000Y-8400000D02*
G75*
G02*
X14300000Y-8400000I100000J0D01*
G01*
X13900000Y-8300000D02*
X13100000Y-8300000D01*
X14500000Y-8500000D02*
G75*
G02*
X14500000Y-8300000I0J100000D01*
G01*
X19000000Y-10650000D02*
G75*
G02*
X19150000Y-10500000I150000J0D01*
G01*
X13900000Y-10500000D02*
X13100000Y-10500000D01*
X14500000Y-8500000D02*
X15300000Y-8500000D01*
X12450000Y-9800000D02*
G75*
G02*
X12650000Y-9800000I100000J0D01*
G01*
X18100000Y-10500000D02*
X17300000Y-10500000D01*
X13100000Y-8500000D02*
G75*
G02*
X13100000Y-8300000I0J100000D01*
G01*
X15900000Y-8500000D02*
G75*
G02*
X15900000Y-8300000I0J100000D01*
G01*
X15300000Y-8300000D02*
X14500000Y-8300000D01*
X16700000Y-8300000D02*
G75*
G02*
X16700000Y-8500000I0J-100000D01*
G01*
X16700000Y-10500000D02*
X15900000Y-10500000D01*
X17300000Y-8500000D02*
G75*
G02*
X17300000Y-8300000I0J100000D01*
G01*
X14300000Y-10600000D02*
G75*
G02*
X14100000Y-10600000I-100000J0D01*
G01*
X14100000Y-10600000D02*
G75*
G02*
X14300000Y-10600000I100000J0D01*
G01*
X11200000Y-8500000D02*
X12000000Y-8500000D01*
X12650000Y-9200000D02*
G75*
G02*
X12450000Y-9200000I-100000J0D01*
G01*
X15300000Y-8300000D02*
G75*
G02*
X15300000Y-8500000I0J-100000D01*
G01*
X18550000Y-7902752D02*
G75*
G02*
X18997248Y-8350000I0J-447248D01*
G01*
X19800000Y-8500000D02*
X19150000Y-8502752D01*
X16700000Y-10500000D02*
G75*
G02*
X16700000Y-10700000I0J-100000D01*
G01*
X18500000Y-7900000D02*
X11000000Y-7900000D01*
X20000000Y-10400000D02*
G75*
G02*
X19900000Y-10500000I-100000J0D01*
G01*
X15900000Y-8500000D02*
X16700000Y-8500000D01*
X12450000Y-8800000D02*
G75*
G02*
X12650000Y-8800000I100000J0D01*
G01*
X14500000Y-10700000D02*
G75*
G02*
X14500000Y-10500000I0J100000D01*
G01*
X15700000Y-8400000D02*
G75*
G02*
X15500000Y-8400000I-100000J0D01*
G01*
X15500000Y-8400000D02*
G75*
G02*
X15700000Y-8400000I100000J0D01*
G01*
X12650000Y-10200000D02*
G75*
G02*
X12450000Y-10200000I-100000J0D01*
G01*
X19150000Y-8502752D02*
G75*
G02*
X18997248Y-8350000I0J152752D01*
G01*
X11000000Y-7900000D02*
X11000000Y-11100000D01*
X17100000Y-8400000D02*
G75*
G02*
X16900000Y-8400000I-100000J0D01*
G01*
X16900000Y-8400000D02*
G75*
G02*
X17100000Y-8400000I100000J0D01*
G01*
X13900000Y-10500000D02*
G75*
G02*
X13900000Y-10700000I0J-100000D01*
G01*
X13100000Y-10700000D02*
X13900000Y-10700000D01*
X17300000Y-8500000D02*
X18100000Y-8500000D01*
X12650000Y-9200000D02*
X12650000Y-8800000D01*
X17100000Y-10600000D02*
G75*
G02*
X16900000Y-10600000I-100000J0D01*
G01*
X16900000Y-10600000D02*
G75*
G02*
X17100000Y-10600000I100000J0D01*
G01*
X13100000Y-8500000D02*
X13900000Y-8500000D01*
D11*
D12*
X13955000Y-9637000D02*
X13985000Y-9667000D01*
X13985000Y-9637000D02*
X13955000Y-9667000D01*
X13955000Y-10068800D02*
X13985000Y-10098800D01*
X13985000Y-10068800D02*
X13955000Y-10098800D01*
X14209000Y-8900400D02*
X14239000Y-8930400D01*
X14239000Y-8900400D02*
X14209000Y-8930400D01*
X14209000Y-9637000D02*
X14239000Y-9667000D01*
X14239000Y-9637000D02*
X14209000Y-9667000D01*
X14209000Y-10068800D02*
X14239000Y-10098800D01*
X14239000Y-10068800D02*
X14209000Y-10098800D01*
X14259800Y-9256000D02*
X14289800Y-9286000D01*
X14289800Y-9256000D02*
X14259800Y-9286000D01*
X14463000Y-8900400D02*
X14493000Y-8930400D01*
X14493000Y-8900400D02*
X14463000Y-8930400D01*
X14717000Y-9256000D02*
X14747000Y-9286000D01*
X14747000Y-9256000D02*
X14717000Y-9286000D01*
X14844000Y-9764000D02*
X14874000Y-9794000D01*
X14874000Y-9764000D02*
X14844000Y-9794000D01*
X14971000Y-10068800D02*
X15001000Y-10098800D01*
X15001000Y-10068800D02*
X14971000Y-10098800D01*
X15250400Y-9052800D02*
X15280400Y-9082800D01*
X15280400Y-9052800D02*
X15250400Y-9082800D01*
X15275800Y-10068800D02*
X15305800Y-10098800D01*
X15305800Y-10068800D02*
X15275800Y-10098800D01*
X15275800Y-10348200D02*
X15305800Y-10378200D01*
X15305800Y-10348200D02*
X15275800Y-10378200D01*
X15733000Y-8900400D02*
X15763000Y-8930400D01*
X15763000Y-8900400D02*
X15733000Y-8930400D01*
X15733000Y-10068800D02*
X15763000Y-10098800D01*
X15763000Y-10068800D02*
X15733000Y-10098800D01*
X15733000Y-10348200D02*
X15763000Y-10378200D01*
X15763000Y-10348200D02*
X15733000Y-10378200D01*
X15885400Y-9814800D02*
X15915400Y-9844800D01*
X15915400Y-9814800D02*
X15885400Y-9844800D01*
X16012400Y-10018000D02*
X16042400Y-10048000D01*
X16042400Y-10018000D02*
X16012400Y-10048000D01*
X16012400Y-10348200D02*
X16042400Y-10378200D01*
X16042400Y-10348200D02*
X16012400Y-10378200D01*
X16088600Y-8595600D02*
X16118600Y-8625600D01*
X16118600Y-8595600D02*
X16088600Y-8625600D01*
X16088600Y-8976600D02*
X16118600Y-9006600D01*
X16118600Y-8976600D02*
X16088600Y-9006600D01*
X16876000Y-9789400D02*
X16906000Y-9819400D01*
X16906000Y-9789400D02*
X16876000Y-9819400D01*
X17130000Y-10094200D02*
X17160000Y-10124200D01*
X17160000Y-10094200D02*
X17130000Y-10124200D01*
X17130000Y-10348200D02*
X17160000Y-10378200D01*
X17160000Y-10348200D02*
X17130000Y-10378200D01*
X17155400Y-9357600D02*
X17185400Y-9387600D01*
X17185400Y-9357600D02*
X17155400Y-9387600D01*
X17307800Y-9078200D02*
X17337800Y-9108200D01*
X17337800Y-9078200D02*
X17307800Y-9108200D01*
X17358600Y-9814800D02*
X17388600Y-9844800D01*
X17388600Y-9814800D02*
X17358600Y-9844800D01*
X17485600Y-8595600D02*
X17515600Y-8625600D01*
X17515600Y-8595600D02*
X17485600Y-8625600D01*
X17739600Y-9992600D02*
X17769600Y-10022600D01*
X17769600Y-9992600D02*
X17739600Y-10022600D01*
X17866600Y-10348200D02*
X17896600Y-10378200D01*
X17896600Y-10348200D02*
X17866600Y-10378200D01*
X18222200Y-10348200D02*
X18252200Y-10378200D01*
X18252200Y-10348200D02*
X18222200Y-10378200D01*
X18654000Y-8684500D02*
X18684000Y-8714500D01*
X18684000Y-8684500D02*
X18654000Y-8714500D01*
X18857200Y-10348200D02*
X18887200Y-10378200D01*
X18887200Y-10348200D02*
X18857200Y-10378200D01*
X18958800Y-8773400D02*
X18988800Y-8803400D01*
X18988800Y-8773400D02*
X18958800Y-8803400D01*
X19085800Y-8570200D02*
X19115800Y-8600200D01*
X19115800Y-8570200D02*
X19085800Y-8600200D01*
X19289000Y-10348200D02*
X19319000Y-10378200D01*
X19319000Y-10348200D02*
X19289000Y-10378200D01*
X19416000Y-9129000D02*
X19446000Y-9159000D01*
X19446000Y-9129000D02*
X19416000Y-9159000D01*
X19797000Y-10348200D02*
X19827000Y-10378200D01*
X19827000Y-10348200D02*
X19797000Y-10378200D01*
X19873200Y-8621000D02*
X19903200Y-8651000D01*
X19903200Y-8621000D02*
X19873200Y-8651000D01*
X19873200Y-9129000D02*
X19903200Y-9159000D01*
X19903200Y-9129000D02*
X19873200Y-9159000D01*
X19873200Y-10018000D02*
X19903200Y-10048000D01*
X19903200Y-10018000D02*
X19873200Y-10048000D01*
X16290500Y-9398000D02*
G75*
G02*
X16221500Y-9398000I-34500J0D01*
G01*
X16221500Y-9398000D02*
G75*
G02*
X16290500Y-9398000I34500J0D01*
G01*
X16544500Y-9144000D02*
G75*
G02*
X16475500Y-9144000I-34500J0D01*
G01*
X16475500Y-9144000D02*
G75*
G02*
X16544500Y-9144000I34500J0D01*
G01*
X16798500Y-9398000D02*
G75*
G02*
X16729500Y-9398000I-34500J0D01*
G01*
X16729500Y-9398000D02*
G75*
G02*
X16798500Y-9398000I34500J0D01*
G01*
X18068500Y-9017000D02*
G75*
G02*
X17999500Y-9017000I-34500J0D01*
G01*
X17999500Y-9017000D02*
G75*
G02*
X18068500Y-9017000I34500J0D01*
G01*
X18322500Y-8763000D02*
G75*
G02*
X18253500Y-8763000I-34500J0D01*
G01*
X18253500Y-8763000D02*
G75*
G02*
X18322500Y-8763000I34500J0D01*
G01*
X18576500Y-9017000D02*
G75*
G02*
X18507500Y-9017000I-34500J0D01*
G01*
X18507500Y-9017000D02*
G75*
G02*
X18576500Y-9017000I34500J0D01*
G01*
X17018000Y-9109000D02*
X17018000Y-9179000D01*
X16983000Y-9144000D02*
X17053000Y-9144000D01*
X17018000Y-9617000D02*
X17018000Y-9687000D01*
X16983000Y-9652000D02*
X17053000Y-9652000D01*
X18034000Y-9540800D02*
X18034000Y-9610800D01*
X17999000Y-9575800D02*
X18069000Y-9575800D01*
X18034000Y-9845600D02*
X18034000Y-9915600D01*
X17999000Y-9880600D02*
X18069000Y-9880600D01*
X18034000Y-10150400D02*
X18034000Y-10220400D01*
X17999000Y-10185400D02*
X18069000Y-10185400D01*
X18542000Y-9540800D02*
X18542000Y-9610800D01*
X18507000Y-9575800D02*
X18577000Y-9575800D01*
X18542000Y-9845600D02*
X18542000Y-9915600D01*
X18507000Y-9880600D02*
X18577000Y-9880600D01*
X18542000Y-10150400D02*
X18542000Y-10220400D01*
X18507000Y-10185400D02*
X18577000Y-10185400D01*
X11394784Y-9172285D02*
X11394784Y-9115716D01*
X11338215Y-9115716D01*
X11338215Y-9172285D01*
X11394784Y-9172285D01*
X11394784Y-9934285D02*
X11394784Y-9877716D01*
X11338215Y-9877716D01*
X11338215Y-9934285D01*
X11394784Y-9934285D01*
X11648784Y-9172285D02*
X11648784Y-9115716D01*
X11592215Y-9115716D01*
X11592215Y-9172285D01*
X11648784Y-9172285D01*
X11648784Y-9934285D02*
X11648784Y-9877716D01*
X11592215Y-9877716D01*
X11592215Y-9934285D01*
X11648784Y-9934285D01*
X11902784Y-9172285D02*
X11902784Y-9115716D01*
X11846215Y-9115716D01*
X11846215Y-9172285D01*
X11902784Y-9172285D01*
X11902784Y-9934285D02*
X11902784Y-9877716D01*
X11846215Y-9877716D01*
X11846215Y-9934285D01*
X11902784Y-9934285D01*
X12156784Y-9172285D02*
X12156784Y-9115716D01*
X12100215Y-9115716D01*
X12100215Y-9172285D01*
X12156784Y-9172285D01*
X12156784Y-9934285D02*
X12156784Y-9877716D01*
X12100215Y-9877716D01*
X12100215Y-9934285D01*
X12156784Y-9934285D01*
X13109284Y-8765885D02*
X13109284Y-8709316D01*
X13052715Y-8709316D01*
X13052715Y-8765885D01*
X13109284Y-8765885D01*
X13109284Y-10289885D02*
X13109284Y-10233316D01*
X13052715Y-10233316D01*
X13052715Y-10289885D01*
X13109284Y-10289885D01*
X13363284Y-8765885D02*
X13363284Y-8709316D01*
X13306715Y-8709316D01*
X13306715Y-8765885D01*
X13363284Y-8765885D01*
X13363284Y-10289885D02*
X13363284Y-10233316D01*
X13306715Y-10233316D01*
X13306715Y-10289885D01*
X13363284Y-10289885D01*
X13617284Y-8765885D02*
X13617284Y-8709316D01*
X13560715Y-8709316D01*
X13560715Y-8765885D01*
X13617284Y-8765885D01*
X13617284Y-10289885D02*
X13617284Y-10233316D01*
X13560715Y-10233316D01*
X13560715Y-10289885D01*
X13617284Y-10289885D01*
X13871284Y-8765885D02*
X13871284Y-8709316D01*
X13814715Y-8709316D01*
X13814715Y-8765885D01*
X13871284Y-8765885D01*
X13871284Y-10289885D02*
X13871284Y-10233316D01*
X13814715Y-10233316D01*
X13814715Y-10289885D01*
X13871284Y-10289885D01*
X14125284Y-8765885D02*
X14125284Y-8709316D01*
X14068715Y-8709316D01*
X14068715Y-8765885D01*
X14125284Y-8765885D01*
X14125284Y-10289885D02*
X14125284Y-10233316D01*
X14068715Y-10233316D01*
X14068715Y-10289885D01*
X14125284Y-10289885D01*
X14379284Y-8765885D02*
X14379284Y-8709316D01*
X14322715Y-8709316D01*
X14322715Y-8765885D01*
X14379284Y-8765885D01*
X14379284Y-10289885D02*
X14379284Y-10233316D01*
X14322715Y-10233316D01*
X14322715Y-10289885D01*
X14379284Y-10289885D01*
X14633284Y-8765885D02*
X14633284Y-8709316D01*
X14576715Y-8709316D01*
X14576715Y-8765885D01*
X14633284Y-8765885D01*
X14633284Y-10289885D02*
X14633284Y-10233316D01*
X14576715Y-10233316D01*
X14576715Y-10289885D01*
X14633284Y-10289885D01*
X14887284Y-8765885D02*
X14887284Y-8709316D01*
X14830715Y-8709316D01*
X14830715Y-8765885D01*
X14887284Y-8765885D01*
X14887284Y-10289885D02*
X14887284Y-10233316D01*
X14830715Y-10233316D01*
X14830715Y-10289885D01*
X14887284Y-10289885D01*
X15141284Y-8765885D02*
X15141284Y-8709316D01*
X15084715Y-8709316D01*
X15084715Y-8765885D01*
X15141284Y-8765885D01*
X15141284Y-10289885D02*
X15141284Y-10233316D01*
X15084715Y-10233316D01*
X15084715Y-10289885D01*
X15141284Y-10289885D01*
X15653284Y-9489785D02*
X15653284Y-9433216D01*
X15596715Y-9433216D01*
X15596715Y-9489785D01*
X15653284Y-9489785D01*
X15653284Y-10251785D02*
X15653284Y-10195216D01*
X15596715Y-10195216D01*
X15596715Y-10251785D01*
X15653284Y-10251785D01*
X15654004Y-8727785D02*
X15654004Y-8671216D01*
X15597435Y-8671216D01*
X15597435Y-8727785D01*
X15654004Y-8727785D01*
X15903284Y-9489785D02*
X15903284Y-9433216D01*
X15846715Y-9433216D01*
X15846715Y-9489785D01*
X15903284Y-9489785D01*
X15903284Y-10251785D02*
X15903284Y-10195216D01*
X15846715Y-10195216D01*
X15846715Y-10251785D01*
X15903284Y-10251785D01*
X15904004Y-8727785D02*
X15904004Y-8671216D01*
X15847435Y-8671216D01*
X15847435Y-8727785D01*
X15904004Y-8727785D01*
X16347784Y-8727785D02*
X16347784Y-8671216D01*
X16291215Y-8671216D01*
X16291215Y-8727785D01*
X16347784Y-8727785D01*
X16597784Y-8727785D02*
X16597784Y-8671216D01*
X16541215Y-8671216D01*
X16541215Y-8727785D01*
X16597784Y-8727785D01*
X17427285Y-9489785D02*
X17427285Y-9433216D01*
X17370716Y-9433216D01*
X17370716Y-9489785D01*
X17427285Y-9489785D01*
X17427285Y-10251785D02*
X17427285Y-10195216D01*
X17370716Y-10195216D01*
X17370716Y-10251785D01*
X17427285Y-10251785D01*
X17677285Y-9489785D02*
X17677285Y-9433216D01*
X17620716Y-9433216D01*
X17620716Y-9489785D01*
X17677285Y-9489785D01*
X17677285Y-10251785D02*
X17677285Y-10195216D01*
X17620716Y-10195216D01*
X17620716Y-10251785D01*
X17677285Y-10251785D01*
X18887785Y-8981785D02*
X18887785Y-8925216D01*
X18831216Y-8925216D01*
X18831216Y-8981785D01*
X18887785Y-8981785D01*
X18887785Y-9438985D02*
X18887785Y-9382416D01*
X18831216Y-9382416D01*
X18831216Y-9438985D01*
X18887785Y-9438985D01*
X18887785Y-9692985D02*
X18887785Y-9636416D01*
X18831216Y-9636416D01*
X18831216Y-9692985D01*
X18887785Y-9692985D01*
X18887785Y-9946985D02*
X18887785Y-9890416D01*
X18831216Y-9890416D01*
X18831216Y-9946985D01*
X18887785Y-9946985D01*
X18887785Y-10200985D02*
X18887785Y-10144416D01*
X18831216Y-10144416D01*
X18831216Y-10200985D01*
X18887785Y-10200985D01*
X19137785Y-8981785D02*
X19137785Y-8925216D01*
X19081216Y-8925216D01*
X19081216Y-8981785D01*
X19137785Y-8981785D01*
X19463285Y-8791285D02*
X19463285Y-8734716D01*
X19406716Y-8734716D01*
X19406716Y-8791285D01*
X19463285Y-8791285D01*
X19649785Y-9438985D02*
X19649785Y-9382416D01*
X19593216Y-9382416D01*
X19593216Y-9438985D01*
X19649785Y-9438985D01*
X19649785Y-9692985D02*
X19649785Y-9636416D01*
X19593216Y-9636416D01*
X19593216Y-9692985D01*
X19649785Y-9692985D01*
X19649785Y-9946985D02*
X19649785Y-9890416D01*
X19593216Y-9890416D01*
X19593216Y-9946985D01*
X19649785Y-9946985D01*
X19649785Y-10200985D02*
X19649785Y-10144416D01*
X19593216Y-10144416D01*
X19593216Y-10200985D01*
X19649785Y-10200985D01*
X19713285Y-8791285D02*
X19713285Y-8734716D01*
X19656716Y-8734716D01*
X19656716Y-8791285D01*
X19713285Y-8791285D01*
X11366500Y-8178000D02*
X11416500Y-8128000D01*
X11366500Y-8078000D01*
X11316500Y-8128000D01*
X11366500Y-8178000D01*
X11366500Y-8813000D02*
X11416500Y-8763000D01*
X11366500Y-8713000D01*
X11316500Y-8763000D01*
X11366500Y-8813000D01*
X11366500Y-10337000D02*
X11416500Y-10287000D01*
X11366500Y-10237000D01*
X11316500Y-10287000D01*
X11366500Y-10337000D01*
X11366500Y-10908500D02*
X11416500Y-10858500D01*
X11366500Y-10808500D01*
X11316500Y-10858500D01*
X11366500Y-10908500D01*
X11620500Y-8178000D02*
X11670500Y-8128000D01*
X11620500Y-8078000D01*
X11570500Y-8128000D01*
X11620500Y-8178000D01*
X11620500Y-8813000D02*
X11670500Y-8763000D01*
X11620500Y-8713000D01*
X11570500Y-8763000D01*
X11620500Y-8813000D01*
X11620500Y-10337000D02*
X11670500Y-10287000D01*
X11620500Y-10237000D01*
X11570500Y-10287000D01*
X11620500Y-10337000D01*
X11620500Y-10908500D02*
X11670500Y-10858500D01*
X11620500Y-10808500D01*
X11570500Y-10858500D01*
X11620500Y-10908500D01*
X11874500Y-8178000D02*
X11924500Y-8128000D01*
X11874500Y-8078000D01*
X11824500Y-8128000D01*
X11874500Y-8178000D01*
X11874500Y-8813000D02*
X11924500Y-8763000D01*
X11874500Y-8713000D01*
X11824500Y-8763000D01*
X11874500Y-8813000D01*
X11874500Y-10337000D02*
X11924500Y-10287000D01*
X11874500Y-10237000D01*
X11824500Y-10287000D01*
X11874500Y-10337000D01*
X11874500Y-10908500D02*
X11924500Y-10858500D01*
X11874500Y-10808500D01*
X11824500Y-10858500D01*
X11874500Y-10908500D01*
X12128500Y-8178000D02*
X12178500Y-8128000D01*
X12128500Y-8078000D01*
X12078500Y-8128000D01*
X12128500Y-8178000D01*
X12128500Y-8813000D02*
X12178500Y-8763000D01*
X12128500Y-8713000D01*
X12078500Y-8763000D01*
X12128500Y-8813000D01*
X12128500Y-10337000D02*
X12178500Y-10287000D01*
X12128500Y-10237000D01*
X12078500Y-10287000D01*
X12128500Y-10337000D01*
X12128500Y-10908500D02*
X12178500Y-10858500D01*
X12128500Y-10808500D01*
X12078500Y-10858500D01*
X12128500Y-10908500D01*
X13081000Y-8178000D02*
X13131000Y-8128000D01*
X13081000Y-8078000D01*
X13031000Y-8128000D01*
X13081000Y-8178000D01*
X13081000Y-9194000D02*
X13131000Y-9144000D01*
X13081000Y-9094000D01*
X13031000Y-9144000D01*
X13081000Y-9194000D01*
X13081000Y-9448000D02*
X13131000Y-9398000D01*
X13081000Y-9348000D01*
X13031000Y-9398000D01*
X13081000Y-9448000D01*
X13081000Y-10908500D02*
X13131000Y-10858500D01*
X13081000Y-10808500D01*
X13031000Y-10858500D01*
X13081000Y-10908500D01*
X13335000Y-8178000D02*
X13385000Y-8128000D01*
X13335000Y-8078000D01*
X13285000Y-8128000D01*
X13335000Y-8178000D01*
X13335000Y-10908500D02*
X13385000Y-10858500D01*
X13335000Y-10808500D01*
X13285000Y-10858500D01*
X13335000Y-10908500D01*
X13589000Y-8178000D02*
X13639000Y-8128000D01*
X13589000Y-8078000D01*
X13539000Y-8128000D01*
X13589000Y-8178000D01*
X13589000Y-9194000D02*
X13639000Y-9144000D01*
X13589000Y-9094000D01*
X13539000Y-9144000D01*
X13589000Y-9194000D01*
X13589000Y-9448000D02*
X13639000Y-9398000D01*
X13589000Y-9348000D01*
X13539000Y-9398000D01*
X13589000Y-9448000D01*
X13589000Y-9702000D02*
X13639000Y-9652000D01*
X13589000Y-9602000D01*
X13539000Y-9652000D01*
X13589000Y-9702000D01*
X13589000Y-9956000D02*
X13639000Y-9906000D01*
X13589000Y-9856000D01*
X13539000Y-9906000D01*
X13589000Y-9956000D01*
X13589000Y-10908500D02*
X13639000Y-10858500D01*
X13589000Y-10808500D01*
X13539000Y-10858500D01*
X13589000Y-10908500D01*
X13843000Y-8178000D02*
X13893000Y-8128000D01*
X13843000Y-8078000D01*
X13793000Y-8128000D01*
X13843000Y-8178000D01*
X13843000Y-10908500D02*
X13893000Y-10858500D01*
X13843000Y-10808500D01*
X13793000Y-10858500D01*
X13843000Y-10908500D01*
X14097000Y-9194000D02*
X14147000Y-9144000D01*
X14097000Y-9094000D01*
X14047000Y-9144000D01*
X14097000Y-9194000D01*
X14097000Y-9448000D02*
X14147000Y-9398000D01*
X14097000Y-9348000D01*
X14047000Y-9398000D01*
X14097000Y-9448000D01*
X14478000Y-8178000D02*
X14528000Y-8128000D01*
X14478000Y-8078000D01*
X14428000Y-8128000D01*
X14478000Y-8178000D01*
X14478000Y-10908500D02*
X14528000Y-10858500D01*
X14478000Y-10808500D01*
X14428000Y-10858500D01*
X14478000Y-10908500D01*
X14554200Y-9448000D02*
X14604200Y-9398000D01*
X14554200Y-9348000D01*
X14504200Y-9398000D01*
X14554200Y-9448000D01*
X14554200Y-9702000D02*
X14604200Y-9652000D01*
X14554200Y-9602000D01*
X14504200Y-9652000D01*
X14554200Y-9702000D01*
X14554200Y-9956000D02*
X14604200Y-9906000D01*
X14554200Y-9856000D01*
X14504200Y-9906000D01*
X14554200Y-9956000D01*
X14732000Y-8178000D02*
X14782000Y-8128000D01*
X14732000Y-8078000D01*
X14682000Y-8128000D01*
X14732000Y-8178000D01*
X14732000Y-10908500D02*
X14782000Y-10858500D01*
X14732000Y-10808500D01*
X14682000Y-10858500D01*
X14732000Y-10908500D01*
X14986000Y-8178000D02*
X15036000Y-8128000D01*
X14986000Y-8078000D01*
X14936000Y-8128000D01*
X14986000Y-8178000D01*
X14986000Y-10908500D02*
X15036000Y-10858500D01*
X14986000Y-10808500D01*
X14936000Y-10858500D01*
X14986000Y-10908500D01*
X15240000Y-8178000D02*
X15290000Y-8128000D01*
X15240000Y-8078000D01*
X15190000Y-8128000D01*
X15240000Y-8178000D01*
X15240000Y-10908500D02*
X15290000Y-10858500D01*
X15240000Y-10808500D01*
X15190000Y-10858500D01*
X15240000Y-10908500D01*
X15875000Y-8178000D02*
X15925000Y-8128000D01*
X15875000Y-8078000D01*
X15825000Y-8128000D01*
X15875000Y-8178000D01*
X15875000Y-10908500D02*
X15925000Y-10858500D01*
X15875000Y-10808500D01*
X15825000Y-10858500D01*
X15875000Y-10908500D01*
X16129000Y-8178000D02*
X16179000Y-8128000D01*
X16129000Y-8078000D01*
X16079000Y-8128000D01*
X16129000Y-8178000D01*
X16129000Y-10908500D02*
X16179000Y-10858500D01*
X16129000Y-10808500D01*
X16079000Y-10858500D01*
X16129000Y-10908500D01*
X16383000Y-8178000D02*
X16433000Y-8128000D01*
X16383000Y-8078000D01*
X16333000Y-8128000D01*
X16383000Y-8178000D01*
X16383000Y-10146500D02*
X16433000Y-10096500D01*
X16383000Y-10046500D01*
X16333000Y-10096500D01*
X16383000Y-10146500D01*
X16383000Y-10400500D02*
X16433000Y-10350500D01*
X16383000Y-10300500D01*
X16333000Y-10350500D01*
X16383000Y-10400500D01*
X16383000Y-10908500D02*
X16433000Y-10858500D01*
X16383000Y-10808500D01*
X16333000Y-10858500D01*
X16383000Y-10908500D01*
X16637000Y-8178000D02*
X16687000Y-8128000D01*
X16637000Y-8078000D01*
X16587000Y-8128000D01*
X16637000Y-8178000D01*
X16637000Y-10146500D02*
X16687000Y-10096500D01*
X16637000Y-10046500D01*
X16587000Y-10096500D01*
X16637000Y-10146500D01*
X16637000Y-10400500D02*
X16687000Y-10350500D01*
X16637000Y-10300500D01*
X16587000Y-10350500D01*
X16637000Y-10400500D01*
X16637000Y-10908500D02*
X16687000Y-10858500D01*
X16637000Y-10808500D01*
X16587000Y-10858500D01*
X16637000Y-10908500D01*
X16891000Y-10146500D02*
X16941000Y-10096500D01*
X16891000Y-10046500D01*
X16841000Y-10096500D01*
X16891000Y-10146500D01*
X16891000Y-10400500D02*
X16941000Y-10350500D01*
X16891000Y-10300500D01*
X16841000Y-10350500D01*
X16891000Y-10400500D01*
X17018000Y-8749500D02*
X17068000Y-8699500D01*
X17018000Y-8649500D01*
X16968000Y-8699500D01*
X17018000Y-8749500D01*
X17272000Y-8178000D02*
X17322000Y-8128000D01*
X17272000Y-8078000D01*
X17222000Y-8128000D01*
X17272000Y-8178000D01*
X17272000Y-8749500D02*
X17322000Y-8699500D01*
X17272000Y-8649500D01*
X17222000Y-8699500D01*
X17272000Y-8749500D01*
X17272000Y-10908500D02*
X17322000Y-10858500D01*
X17272000Y-10808500D01*
X17222000Y-10858500D01*
X17272000Y-10908500D01*
X17526000Y-8178000D02*
X17576000Y-8128000D01*
X17526000Y-8078000D01*
X17476000Y-8128000D01*
X17526000Y-8178000D01*
X17526000Y-10908500D02*
X17576000Y-10858500D01*
X17526000Y-10808500D01*
X17476000Y-10858500D01*
X17526000Y-10908500D01*
X17716500Y-8749500D02*
X17766500Y-8699500D01*
X17716500Y-8649500D01*
X17666500Y-8699500D01*
X17716500Y-8749500D01*
X17716500Y-9003500D02*
X17766500Y-8953500D01*
X17716500Y-8903500D01*
X17666500Y-8953500D01*
X17716500Y-9003500D01*
X17780000Y-8178000D02*
X17830000Y-8128000D01*
X17780000Y-8078000D01*
X17730000Y-8128000D01*
X17780000Y-8178000D01*
X17780000Y-10908500D02*
X17830000Y-10858500D01*
X17780000Y-10808500D01*
X17730000Y-10858500D01*
X17780000Y-10908500D01*
X18034000Y-8178000D02*
X18084000Y-8128000D01*
X18034000Y-8078000D01*
X17984000Y-8128000D01*
X18034000Y-8178000D01*
X18034000Y-10908500D02*
X18084000Y-10858500D01*
X18034000Y-10808500D01*
X17984000Y-10858500D01*
X18034000Y-10908500D01*
D11*
X11258277Y-11413984D02*
X11258277Y-11213984D01*
X11258277Y-11213984D02*
X11305896Y-11213984D01*
X11305896Y-11213984D02*
X11334467Y-11223508D01*
X11334467Y-11223508D02*
X11353515Y-11242555D01*
X11353515Y-11242555D02*
X11363039Y-11261603D01*
X11363039Y-11261603D02*
X11372562Y-11299698D01*
X11372562Y-11299698D02*
X11372562Y-11328269D01*
X11372562Y-11328269D02*
X11363039Y-11366365D01*
X11363039Y-11366365D02*
X11353515Y-11385412D01*
X11353515Y-11385412D02*
X11334467Y-11404460D01*
X11334467Y-11404460D02*
X11305896Y-11413984D01*
X11305896Y-11413984D02*
X11258277Y-11413984D01*
X11458277Y-11413984D02*
X11458277Y-11280650D01*
X11458277Y-11318746D02*
X11467801Y-11299698D01*
X11467801Y-11299698D02*
X11477324Y-11290174D01*
X11477324Y-11290174D02*
X11496372Y-11280650D01*
X11496372Y-11280650D02*
X11515420Y-11280650D01*
X11582086Y-11413984D02*
X11582086Y-11280650D01*
X11582086Y-11213984D02*
X11572562Y-11223508D01*
X11572562Y-11223508D02*
X11582086Y-11233031D01*
X11582086Y-11233031D02*
X11591610Y-11223508D01*
X11591610Y-11223508D02*
X11582086Y-11213984D01*
X11582086Y-11213984D02*
X11582086Y-11233031D01*
X11705896Y-11413984D02*
X11686848Y-11404460D01*
X11686848Y-11404460D02*
X11677324Y-11385412D01*
X11677324Y-11385412D02*
X11677324Y-11213984D01*
X11810658Y-11413984D02*
X11791610Y-11404460D01*
X11791610Y-11404460D02*
X11782086Y-11385412D01*
X11782086Y-11385412D02*
X11782086Y-11213984D01*
X12039229Y-11413984D02*
X12039229Y-11213984D01*
X12039229Y-11213984D02*
X12105896Y-11356841D01*
X12105896Y-11356841D02*
X12172562Y-11213984D01*
X12172562Y-11213984D02*
X12172562Y-11413984D01*
X12353515Y-11413984D02*
X12353515Y-11309222D01*
X12353515Y-11309222D02*
X12343991Y-11290174D01*
X12343991Y-11290174D02*
X12324943Y-11280650D01*
X12324943Y-11280650D02*
X12286848Y-11280650D01*
X12286848Y-11280650D02*
X12267801Y-11290174D01*
X12353515Y-11404460D02*
X12334467Y-11413984D01*
X12334467Y-11413984D02*
X12286848Y-11413984D01*
X12286848Y-11413984D02*
X12267801Y-11404460D01*
X12267801Y-11404460D02*
X12258277Y-11385412D01*
X12258277Y-11385412D02*
X12258277Y-11366365D01*
X12258277Y-11366365D02*
X12267801Y-11347317D01*
X12267801Y-11347317D02*
X12286848Y-11337793D01*
X12286848Y-11337793D02*
X12334467Y-11337793D01*
X12334467Y-11337793D02*
X12353515Y-11328269D01*
X12448753Y-11280650D02*
X12448753Y-11480650D01*
X12448753Y-11290174D02*
X12467801Y-11280650D01*
X12467801Y-11280650D02*
X12505896Y-11280650D01*
X12505896Y-11280650D02*
X12524943Y-11290174D01*
X12524943Y-11290174D02*
X12534467Y-11299698D01*
X12534467Y-11299698D02*
X12543991Y-11318746D01*
X12543991Y-11318746D02*
X12543991Y-11375888D01*
X12543991Y-11375888D02*
X12534467Y-11394936D01*
X12534467Y-11394936D02*
X12524943Y-11404460D01*
X12524943Y-11404460D02*
X12505896Y-11413984D01*
X12505896Y-11413984D02*
X12467801Y-11413984D01*
X12467801Y-11413984D02*
X12448753Y-11404460D01*
X12629705Y-11394936D02*
X12639229Y-11404460D01*
X12639229Y-11404460D02*
X12629705Y-11413984D01*
X12629705Y-11413984D02*
X12620182Y-11404460D01*
X12620182Y-11404460D02*
X12629705Y-11394936D01*
X12629705Y-11394936D02*
X12629705Y-11413984D01*
X12629705Y-11290174D02*
X12639229Y-11299698D01*
X12639229Y-11299698D02*
X12629705Y-11309222D01*
X12629705Y-11309222D02*
X12620182Y-11299698D01*
X12620182Y-11299698D02*
X12629705Y-11290174D01*
X12629705Y-11290174D02*
X12629705Y-11309222D01*
D12*
X10967500Y-11727500D02*
X10997500Y-11757500D01*
X10997500Y-11727500D02*
X10967500Y-11757500D01*
D11*
X11296372Y-11633984D02*
X11315420Y-11633984D01*
X11315420Y-11633984D02*
X11334467Y-11643508D01*
X11334467Y-11643508D02*
X11343991Y-11653031D01*
X11343991Y-11653031D02*
X11353515Y-11672079D01*
X11353515Y-11672079D02*
X11363039Y-11710174D01*
X11363039Y-11710174D02*
X11363039Y-11757793D01*
X11363039Y-11757793D02*
X11353515Y-11795888D01*
X11353515Y-11795888D02*
X11343991Y-11814936D01*
X11343991Y-11814936D02*
X11334467Y-11824460D01*
X11334467Y-11824460D02*
X11315420Y-11833984D01*
X11315420Y-11833984D02*
X11296372Y-11833984D01*
X11296372Y-11833984D02*
X11277324Y-11824460D01*
X11277324Y-11824460D02*
X11267801Y-11814936D01*
X11267801Y-11814936D02*
X11258277Y-11795888D01*
X11258277Y-11795888D02*
X11248753Y-11757793D01*
X11248753Y-11757793D02*
X11248753Y-11710174D01*
X11248753Y-11710174D02*
X11258277Y-11672079D01*
X11258277Y-11672079D02*
X11267801Y-11653031D01*
X11267801Y-11653031D02*
X11277324Y-11643508D01*
X11277324Y-11643508D02*
X11296372Y-11633984D01*
X11448753Y-11814936D02*
X11458277Y-11824460D01*
X11458277Y-11824460D02*
X11448753Y-11833984D01*
X11448753Y-11833984D02*
X11439229Y-11824460D01*
X11439229Y-11824460D02*
X11448753Y-11814936D01*
X11448753Y-11814936D02*
X11448753Y-11833984D01*
X11524943Y-11633984D02*
X11648753Y-11633984D01*
X11648753Y-11633984D02*
X11582086Y-11710174D01*
X11582086Y-11710174D02*
X11610658Y-11710174D01*
X11610658Y-11710174D02*
X11629705Y-11719698D01*
X11629705Y-11719698D02*
X11639229Y-11729222D01*
X11639229Y-11729222D02*
X11648753Y-11748269D01*
X11648753Y-11748269D02*
X11648753Y-11795888D01*
X11648753Y-11795888D02*
X11639229Y-11814936D01*
X11639229Y-11814936D02*
X11629705Y-11824460D01*
X11629705Y-11824460D02*
X11610658Y-11833984D01*
X11610658Y-11833984D02*
X11553515Y-11833984D01*
X11553515Y-11833984D02*
X11534467Y-11824460D01*
X11534467Y-11824460D02*
X11524943Y-11814936D01*
X11772562Y-11633984D02*
X11791610Y-11633984D01*
X11791610Y-11633984D02*
X11810658Y-11643508D01*
X11810658Y-11643508D02*
X11820182Y-11653031D01*
X11820182Y-11653031D02*
X11829705Y-11672079D01*
X11829705Y-11672079D02*
X11839229Y-11710174D01*
X11839229Y-11710174D02*
X11839229Y-11757793D01*
X11839229Y-11757793D02*
X11829705Y-11795888D01*
X11829705Y-11795888D02*
X11820182Y-11814936D01*
X11820182Y-11814936D02*
X11810658Y-11824460D01*
X11810658Y-11824460D02*
X11791610Y-11833984D01*
X11791610Y-11833984D02*
X11772562Y-11833984D01*
X11772562Y-11833984D02*
X11753515Y-11824460D01*
X11753515Y-11824460D02*
X11743991Y-11814936D01*
X11743991Y-11814936D02*
X11734467Y-11795888D01*
X11734467Y-11795888D02*
X11724943Y-11757793D01*
X11724943Y-11757793D02*
X11724943Y-11710174D01*
X11724943Y-11710174D02*
X11734467Y-11672079D01*
X11734467Y-11672079D02*
X11743991Y-11653031D01*
X11743991Y-11653031D02*
X11753515Y-11643508D01*
X11753515Y-11643508D02*
X11772562Y-11633984D01*
X11963039Y-11633984D02*
X11982086Y-11633984D01*
X11982086Y-11633984D02*
X12001134Y-11643508D01*
X12001134Y-11643508D02*
X12010658Y-11653031D01*
X12010658Y-11653031D02*
X12020182Y-11672079D01*
X12020182Y-11672079D02*
X12029705Y-11710174D01*
X12029705Y-11710174D02*
X12029705Y-11757793D01*
X12029705Y-11757793D02*
X12020182Y-11795888D01*
X12020182Y-11795888D02*
X12010658Y-11814936D01*
X12010658Y-11814936D02*
X12001134Y-11824460D01*
X12001134Y-11824460D02*
X11982086Y-11833984D01*
X11982086Y-11833984D02*
X11963039Y-11833984D01*
X11963039Y-11833984D02*
X11943991Y-11824460D01*
X11943991Y-11824460D02*
X11934467Y-11814936D01*
X11934467Y-11814936D02*
X11924943Y-11795888D01*
X11924943Y-11795888D02*
X11915420Y-11757793D01*
X11915420Y-11757793D02*
X11915420Y-11710174D01*
X11915420Y-11710174D02*
X11924943Y-11672079D01*
X11924943Y-11672079D02*
X11934467Y-11653031D01*
X11934467Y-11653031D02*
X11943991Y-11643508D01*
X11943991Y-11643508D02*
X11963039Y-11633984D01*
X12115420Y-11833984D02*
X12115420Y-11700650D01*
X12115420Y-11719698D02*
X12124943Y-11710174D01*
X12124943Y-11710174D02*
X12143991Y-11700650D01*
X12143991Y-11700650D02*
X12172563Y-11700650D01*
X12172563Y-11700650D02*
X12191610Y-11710174D01*
X12191610Y-11710174D02*
X12201134Y-11729222D01*
X12201134Y-11729222D02*
X12201134Y-11833984D01*
X12201134Y-11729222D02*
X12210658Y-11710174D01*
X12210658Y-11710174D02*
X12229705Y-11700650D01*
X12229705Y-11700650D02*
X12258277Y-11700650D01*
X12258277Y-11700650D02*
X12277324Y-11710174D01*
X12277324Y-11710174D02*
X12286848Y-11729222D01*
X12286848Y-11729222D02*
X12286848Y-11833984D01*
X12382086Y-11833984D02*
X12382086Y-11700650D01*
X12382086Y-11719698D02*
X12391610Y-11710174D01*
X12391610Y-11710174D02*
X12410658Y-11700650D01*
X12410658Y-11700650D02*
X12439229Y-11700650D01*
X12439229Y-11700650D02*
X12458277Y-11710174D01*
X12458277Y-11710174D02*
X12467801Y-11729222D01*
X12467801Y-11729222D02*
X12467801Y-11833984D01*
X12467801Y-11729222D02*
X12477324Y-11710174D01*
X12477324Y-11710174D02*
X12496372Y-11700650D01*
X12496372Y-11700650D02*
X12524943Y-11700650D01*
X12524943Y-11700650D02*
X12543991Y-11710174D01*
X12543991Y-11710174D02*
X12553515Y-11729222D01*
X12553515Y-11729222D02*
X12553515Y-11833984D01*
X12943991Y-11624460D02*
X12772563Y-11881603D01*
X13201134Y-11633984D02*
X13220182Y-11633984D01*
X13220182Y-11633984D02*
X13239229Y-11643508D01*
X13239229Y-11643508D02*
X13248753Y-11653031D01*
X13248753Y-11653031D02*
X13258277Y-11672079D01*
X13258277Y-11672079D02*
X13267801Y-11710174D01*
X13267801Y-11710174D02*
X13267801Y-11757793D01*
X13267801Y-11757793D02*
X13258277Y-11795888D01*
X13258277Y-11795888D02*
X13248753Y-11814936D01*
X13248753Y-11814936D02*
X13239229Y-11824460D01*
X13239229Y-11824460D02*
X13220182Y-11833984D01*
X13220182Y-11833984D02*
X13201134Y-11833984D01*
X13201134Y-11833984D02*
X13182086Y-11824460D01*
X13182086Y-11824460D02*
X13172563Y-11814936D01*
X13172563Y-11814936D02*
X13163039Y-11795888D01*
X13163039Y-11795888D02*
X13153515Y-11757793D01*
X13153515Y-11757793D02*
X13153515Y-11710174D01*
X13153515Y-11710174D02*
X13163039Y-11672079D01*
X13163039Y-11672079D02*
X13172563Y-11653031D01*
X13172563Y-11653031D02*
X13182086Y-11643508D01*
X13182086Y-11643508D02*
X13201134Y-11633984D01*
X13353515Y-11814936D02*
X13363039Y-11824460D01*
X13363039Y-11824460D02*
X13353515Y-11833984D01*
X13353515Y-11833984D02*
X13343991Y-11824460D01*
X13343991Y-11824460D02*
X13353515Y-11814936D01*
X13353515Y-11814936D02*
X13353515Y-11833984D01*
X13486848Y-11633984D02*
X13505896Y-11633984D01*
X13505896Y-11633984D02*
X13524944Y-11643508D01*
X13524944Y-11643508D02*
X13534467Y-11653031D01*
X13534467Y-11653031D02*
X13543991Y-11672079D01*
X13543991Y-11672079D02*
X13553515Y-11710174D01*
X13553515Y-11710174D02*
X13553515Y-11757793D01*
X13553515Y-11757793D02*
X13543991Y-11795888D01*
X13543991Y-11795888D02*
X13534467Y-11814936D01*
X13534467Y-11814936D02*
X13524944Y-11824460D01*
X13524944Y-11824460D02*
X13505896Y-11833984D01*
X13505896Y-11833984D02*
X13486848Y-11833984D01*
X13486848Y-11833984D02*
X13467801Y-11824460D01*
X13467801Y-11824460D02*
X13458277Y-11814936D01*
X13458277Y-11814936D02*
X13448753Y-11795888D01*
X13448753Y-11795888D02*
X13439229Y-11757793D01*
X13439229Y-11757793D02*
X13439229Y-11710174D01*
X13439229Y-11710174D02*
X13448753Y-11672079D01*
X13448753Y-11672079D02*
X13458277Y-11653031D01*
X13458277Y-11653031D02*
X13467801Y-11643508D01*
X13467801Y-11643508D02*
X13486848Y-11633984D01*
X13743991Y-11833984D02*
X13629706Y-11833984D01*
X13686848Y-11833984D02*
X13686848Y-11633984D01*
X13686848Y-11633984D02*
X13667801Y-11662555D01*
X13667801Y-11662555D02*
X13648753Y-11681603D01*
X13648753Y-11681603D02*
X13629706Y-11691127D01*
X13934467Y-11833984D02*
X13820182Y-11833984D01*
X13877325Y-11833984D02*
X13877325Y-11633984D01*
X13877325Y-11633984D02*
X13858277Y-11662555D01*
X13858277Y-11662555D02*
X13839229Y-11681603D01*
X13839229Y-11681603D02*
X13820182Y-11691127D01*
X14048753Y-11719698D02*
X14029706Y-11710174D01*
X14029706Y-11710174D02*
X14020182Y-11700650D01*
X14020182Y-11700650D02*
X14010658Y-11681603D01*
X14010658Y-11681603D02*
X14010658Y-11672079D01*
X14010658Y-11672079D02*
X14020182Y-11653031D01*
X14020182Y-11653031D02*
X14029706Y-11643508D01*
X14029706Y-11643508D02*
X14048753Y-11633984D01*
X14048753Y-11633984D02*
X14086848Y-11633984D01*
X14086848Y-11633984D02*
X14105896Y-11643508D01*
X14105896Y-11643508D02*
X14115420Y-11653031D01*
X14115420Y-11653031D02*
X14124944Y-11672079D01*
X14124944Y-11672079D02*
X14124944Y-11681603D01*
X14124944Y-11681603D02*
X14115420Y-11700650D01*
X14115420Y-11700650D02*
X14105896Y-11710174D01*
X14105896Y-11710174D02*
X14086848Y-11719698D01*
X14086848Y-11719698D02*
X14048753Y-11719698D01*
X14048753Y-11719698D02*
X14029706Y-11729222D01*
X14029706Y-11729222D02*
X14020182Y-11738746D01*
X14020182Y-11738746D02*
X14010658Y-11757793D01*
X14010658Y-11757793D02*
X14010658Y-11795888D01*
X14010658Y-11795888D02*
X14020182Y-11814936D01*
X14020182Y-11814936D02*
X14029706Y-11824460D01*
X14029706Y-11824460D02*
X14048753Y-11833984D01*
X14048753Y-11833984D02*
X14086848Y-11833984D01*
X14086848Y-11833984D02*
X14105896Y-11824460D01*
X14105896Y-11824460D02*
X14115420Y-11814936D01*
X14115420Y-11814936D02*
X14124944Y-11795888D01*
X14124944Y-11795888D02*
X14124944Y-11757793D01*
X14124944Y-11757793D02*
X14115420Y-11738746D01*
X14115420Y-11738746D02*
X14105896Y-11729222D01*
X14105896Y-11729222D02*
X14086848Y-11719698D01*
X14201134Y-11633984D02*
X14201134Y-11672079D01*
X14277325Y-11633984D02*
X14277325Y-11672079D01*
X14572563Y-11910174D02*
X14563039Y-11900650D01*
X14563039Y-11900650D02*
X14543991Y-11872079D01*
X14543991Y-11872079D02*
X14534468Y-11853031D01*
X14534468Y-11853031D02*
X14524944Y-11824460D01*
X14524944Y-11824460D02*
X14515420Y-11776841D01*
X14515420Y-11776841D02*
X14515420Y-11738746D01*
X14515420Y-11738746D02*
X14524944Y-11691127D01*
X14524944Y-11691127D02*
X14534468Y-11662555D01*
X14534468Y-11662555D02*
X14543991Y-11643508D01*
X14543991Y-11643508D02*
X14563039Y-11614936D01*
X14563039Y-11614936D02*
X14572563Y-11605412D01*
X14734468Y-11700650D02*
X14734468Y-11833984D01*
X14686848Y-11624460D02*
X14639229Y-11767317D01*
X14639229Y-11767317D02*
X14763039Y-11767317D01*
X14943991Y-11833984D02*
X14829706Y-11833984D01*
X14886848Y-11833984D02*
X14886848Y-11633984D01*
X14886848Y-11633984D02*
X14867801Y-11662555D01*
X14867801Y-11662555D02*
X14848753Y-11681603D01*
X14848753Y-11681603D02*
X14829706Y-11691127D01*
X15182087Y-11833984D02*
X15182087Y-11633984D01*
X15267801Y-11833984D02*
X15267801Y-11729222D01*
X15267801Y-11729222D02*
X15258277Y-11710174D01*
X15258277Y-11710174D02*
X15239230Y-11700650D01*
X15239230Y-11700650D02*
X15210658Y-11700650D01*
X15210658Y-11700650D02*
X15191610Y-11710174D01*
X15191610Y-11710174D02*
X15182087Y-11719698D01*
X15391610Y-11833984D02*
X15372563Y-11824460D01*
X15372563Y-11824460D02*
X15363039Y-11814936D01*
X15363039Y-11814936D02*
X15353515Y-11795888D01*
X15353515Y-11795888D02*
X15353515Y-11738746D01*
X15353515Y-11738746D02*
X15363039Y-11719698D01*
X15363039Y-11719698D02*
X15372563Y-11710174D01*
X15372563Y-11710174D02*
X15391610Y-11700650D01*
X15391610Y-11700650D02*
X15420182Y-11700650D01*
X15420182Y-11700650D02*
X15439230Y-11710174D01*
X15439230Y-11710174D02*
X15448753Y-11719698D01*
X15448753Y-11719698D02*
X15458277Y-11738746D01*
X15458277Y-11738746D02*
X15458277Y-11795888D01*
X15458277Y-11795888D02*
X15448753Y-11814936D01*
X15448753Y-11814936D02*
X15439230Y-11824460D01*
X15439230Y-11824460D02*
X15420182Y-11833984D01*
X15420182Y-11833984D02*
X15391610Y-11833984D01*
X15572563Y-11833984D02*
X15553515Y-11824460D01*
X15553515Y-11824460D02*
X15543991Y-11805412D01*
X15543991Y-11805412D02*
X15543991Y-11633984D01*
X15724944Y-11824460D02*
X15705896Y-11833984D01*
X15705896Y-11833984D02*
X15667801Y-11833984D01*
X15667801Y-11833984D02*
X15648753Y-11824460D01*
X15648753Y-11824460D02*
X15639230Y-11805412D01*
X15639230Y-11805412D02*
X15639230Y-11729222D01*
X15639230Y-11729222D02*
X15648753Y-11710174D01*
X15648753Y-11710174D02*
X15667801Y-11700650D01*
X15667801Y-11700650D02*
X15705896Y-11700650D01*
X15705896Y-11700650D02*
X15724944Y-11710174D01*
X15724944Y-11710174D02*
X15734468Y-11729222D01*
X15734468Y-11729222D02*
X15734468Y-11748269D01*
X15734468Y-11748269D02*
X15639230Y-11767317D01*
X15810658Y-11824460D02*
X15829706Y-11833984D01*
X15829706Y-11833984D02*
X15867801Y-11833984D01*
X15867801Y-11833984D02*
X15886849Y-11824460D01*
X15886849Y-11824460D02*
X15896372Y-11805412D01*
X15896372Y-11805412D02*
X15896372Y-11795888D01*
X15896372Y-11795888D02*
X15886849Y-11776841D01*
X15886849Y-11776841D02*
X15867801Y-11767317D01*
X15867801Y-11767317D02*
X15839230Y-11767317D01*
X15839230Y-11767317D02*
X15820182Y-11757793D01*
X15820182Y-11757793D02*
X15810658Y-11738746D01*
X15810658Y-11738746D02*
X15810658Y-11729222D01*
X15810658Y-11729222D02*
X15820182Y-11710174D01*
X15820182Y-11710174D02*
X15839230Y-11700650D01*
X15839230Y-11700650D02*
X15867801Y-11700650D01*
X15867801Y-11700650D02*
X15886849Y-11710174D01*
X15963039Y-11910174D02*
X15972563Y-11900650D01*
X15972563Y-11900650D02*
X15991611Y-11872079D01*
X15991611Y-11872079D02*
X16001134Y-11853031D01*
X16001134Y-11853031D02*
X16010658Y-11824460D01*
X16010658Y-11824460D02*
X16020182Y-11776841D01*
X16020182Y-11776841D02*
X16020182Y-11738746D01*
X16020182Y-11738746D02*
X16010658Y-11691127D01*
X16010658Y-11691127D02*
X16001134Y-11662555D01*
X16001134Y-11662555D02*
X15991611Y-11643508D01*
X15991611Y-11643508D02*
X15972563Y-11614936D01*
X15972563Y-11614936D02*
X15963039Y-11605412D01*
D12*
X10997500Y-12006500D02*
G75*
G02*
X10928500Y-12006500I-34500J0D01*
G01*
X10928500Y-12006500D02*
G75*
G02*
X10997500Y-12006500I34500J0D01*
G01*
D11*
X11296372Y-11897984D02*
X11315420Y-11897984D01*
X11315420Y-11897984D02*
X11334467Y-11907508D01*
X11334467Y-11907508D02*
X11343991Y-11917031D01*
X11343991Y-11917031D02*
X11353515Y-11936079D01*
X11353515Y-11936079D02*
X11363039Y-11974174D01*
X11363039Y-11974174D02*
X11363039Y-12021793D01*
X11363039Y-12021793D02*
X11353515Y-12059888D01*
X11353515Y-12059888D02*
X11343991Y-12078936D01*
X11343991Y-12078936D02*
X11334467Y-12088460D01*
X11334467Y-12088460D02*
X11315420Y-12097984D01*
X11315420Y-12097984D02*
X11296372Y-12097984D01*
X11296372Y-12097984D02*
X11277324Y-12088460D01*
X11277324Y-12088460D02*
X11267801Y-12078936D01*
X11267801Y-12078936D02*
X11258277Y-12059888D01*
X11258277Y-12059888D02*
X11248753Y-12021793D01*
X11248753Y-12021793D02*
X11248753Y-11974174D01*
X11248753Y-11974174D02*
X11258277Y-11936079D01*
X11258277Y-11936079D02*
X11267801Y-11917031D01*
X11267801Y-11917031D02*
X11277324Y-11907508D01*
X11277324Y-11907508D02*
X11296372Y-11897984D01*
X11448753Y-12078936D02*
X11458277Y-12088460D01*
X11458277Y-12088460D02*
X11448753Y-12097984D01*
X11448753Y-12097984D02*
X11439229Y-12088460D01*
X11439229Y-12088460D02*
X11448753Y-12078936D01*
X11448753Y-12078936D02*
X11448753Y-12097984D01*
X11629705Y-11897984D02*
X11591610Y-11897984D01*
X11591610Y-11897984D02*
X11572562Y-11907508D01*
X11572562Y-11907508D02*
X11563039Y-11917031D01*
X11563039Y-11917031D02*
X11543991Y-11945603D01*
X11543991Y-11945603D02*
X11534467Y-11983698D01*
X11534467Y-11983698D02*
X11534467Y-12059888D01*
X11534467Y-12059888D02*
X11543991Y-12078936D01*
X11543991Y-12078936D02*
X11553515Y-12088460D01*
X11553515Y-12088460D02*
X11572562Y-12097984D01*
X11572562Y-12097984D02*
X11610658Y-12097984D01*
X11610658Y-12097984D02*
X11629705Y-12088460D01*
X11629705Y-12088460D02*
X11639229Y-12078936D01*
X11639229Y-12078936D02*
X11648753Y-12059888D01*
X11648753Y-12059888D02*
X11648753Y-12012269D01*
X11648753Y-12012269D02*
X11639229Y-11993222D01*
X11639229Y-11993222D02*
X11629705Y-11983698D01*
X11629705Y-11983698D02*
X11610658Y-11974174D01*
X11610658Y-11974174D02*
X11572562Y-11974174D01*
X11572562Y-11974174D02*
X11553515Y-11983698D01*
X11553515Y-11983698D02*
X11543991Y-11993222D01*
X11543991Y-11993222D02*
X11534467Y-12012269D01*
X11743991Y-12097984D02*
X11782086Y-12097984D01*
X11782086Y-12097984D02*
X11801134Y-12088460D01*
X11801134Y-12088460D02*
X11810658Y-12078936D01*
X11810658Y-12078936D02*
X11829705Y-12050365D01*
X11829705Y-12050365D02*
X11839229Y-12012269D01*
X11839229Y-12012269D02*
X11839229Y-11936079D01*
X11839229Y-11936079D02*
X11829705Y-11917031D01*
X11829705Y-11917031D02*
X11820182Y-11907508D01*
X11820182Y-11907508D02*
X11801134Y-11897984D01*
X11801134Y-11897984D02*
X11763039Y-11897984D01*
X11763039Y-11897984D02*
X11743991Y-11907508D01*
X11743991Y-11907508D02*
X11734467Y-11917031D01*
X11734467Y-11917031D02*
X11724943Y-11936079D01*
X11724943Y-11936079D02*
X11724943Y-11983698D01*
X11724943Y-11983698D02*
X11734467Y-12002746D01*
X11734467Y-12002746D02*
X11743991Y-12012269D01*
X11743991Y-12012269D02*
X11763039Y-12021793D01*
X11763039Y-12021793D02*
X11801134Y-12021793D01*
X11801134Y-12021793D02*
X11820182Y-12012269D01*
X11820182Y-12012269D02*
X11829705Y-12002746D01*
X11829705Y-12002746D02*
X11839229Y-11983698D01*
X11963039Y-11897984D02*
X11982086Y-11897984D01*
X11982086Y-11897984D02*
X12001134Y-11907508D01*
X12001134Y-11907508D02*
X12010658Y-11917031D01*
X12010658Y-11917031D02*
X12020182Y-11936079D01*
X12020182Y-11936079D02*
X12029705Y-11974174D01*
X12029705Y-11974174D02*
X12029705Y-12021793D01*
X12029705Y-12021793D02*
X12020182Y-12059888D01*
X12020182Y-12059888D02*
X12010658Y-12078936D01*
X12010658Y-12078936D02*
X12001134Y-12088460D01*
X12001134Y-12088460D02*
X11982086Y-12097984D01*
X11982086Y-12097984D02*
X11963039Y-12097984D01*
X11963039Y-12097984D02*
X11943991Y-12088460D01*
X11943991Y-12088460D02*
X11934467Y-12078936D01*
X11934467Y-12078936D02*
X11924943Y-12059888D01*
X11924943Y-12059888D02*
X11915420Y-12021793D01*
X11915420Y-12021793D02*
X11915420Y-11974174D01*
X11915420Y-11974174D02*
X11924943Y-11936079D01*
X11924943Y-11936079D02*
X11934467Y-11917031D01*
X11934467Y-11917031D02*
X11943991Y-11907508D01*
X11943991Y-11907508D02*
X11963039Y-11897984D01*
X12115420Y-12097984D02*
X12115420Y-11964650D01*
X12115420Y-11983698D02*
X12124943Y-11974174D01*
X12124943Y-11974174D02*
X12143991Y-11964650D01*
X12143991Y-11964650D02*
X12172563Y-11964650D01*
X12172563Y-11964650D02*
X12191610Y-11974174D01*
X12191610Y-11974174D02*
X12201134Y-11993222D01*
X12201134Y-11993222D02*
X12201134Y-12097984D01*
X12201134Y-11993222D02*
X12210658Y-11974174D01*
X12210658Y-11974174D02*
X12229705Y-11964650D01*
X12229705Y-11964650D02*
X12258277Y-11964650D01*
X12258277Y-11964650D02*
X12277324Y-11974174D01*
X12277324Y-11974174D02*
X12286848Y-11993222D01*
X12286848Y-11993222D02*
X12286848Y-12097984D01*
X12382086Y-12097984D02*
X12382086Y-11964650D01*
X12382086Y-11983698D02*
X12391610Y-11974174D01*
X12391610Y-11974174D02*
X12410658Y-11964650D01*
X12410658Y-11964650D02*
X12439229Y-11964650D01*
X12439229Y-11964650D02*
X12458277Y-11974174D01*
X12458277Y-11974174D02*
X12467801Y-11993222D01*
X12467801Y-11993222D02*
X12467801Y-12097984D01*
X12467801Y-11993222D02*
X12477324Y-11974174D01*
X12477324Y-11974174D02*
X12496372Y-11964650D01*
X12496372Y-11964650D02*
X12524943Y-11964650D01*
X12524943Y-11964650D02*
X12543991Y-11974174D01*
X12543991Y-11974174D02*
X12553515Y-11993222D01*
X12553515Y-11993222D02*
X12553515Y-12097984D01*
X12943991Y-11888460D02*
X12772563Y-12145603D01*
X13201134Y-11897984D02*
X13220182Y-11897984D01*
X13220182Y-11897984D02*
X13239229Y-11907508D01*
X13239229Y-11907508D02*
X13248753Y-11917031D01*
X13248753Y-11917031D02*
X13258277Y-11936079D01*
X13258277Y-11936079D02*
X13267801Y-11974174D01*
X13267801Y-11974174D02*
X13267801Y-12021793D01*
X13267801Y-12021793D02*
X13258277Y-12059888D01*
X13258277Y-12059888D02*
X13248753Y-12078936D01*
X13248753Y-12078936D02*
X13239229Y-12088460D01*
X13239229Y-12088460D02*
X13220182Y-12097984D01*
X13220182Y-12097984D02*
X13201134Y-12097984D01*
X13201134Y-12097984D02*
X13182086Y-12088460D01*
X13182086Y-12088460D02*
X13172563Y-12078936D01*
X13172563Y-12078936D02*
X13163039Y-12059888D01*
X13163039Y-12059888D02*
X13153515Y-12021793D01*
X13153515Y-12021793D02*
X13153515Y-11974174D01*
X13153515Y-11974174D02*
X13163039Y-11936079D01*
X13163039Y-11936079D02*
X13172563Y-11917031D01*
X13172563Y-11917031D02*
X13182086Y-11907508D01*
X13182086Y-11907508D02*
X13201134Y-11897984D01*
X13353515Y-12078936D02*
X13363039Y-12088460D01*
X13363039Y-12088460D02*
X13353515Y-12097984D01*
X13353515Y-12097984D02*
X13343991Y-12088460D01*
X13343991Y-12088460D02*
X13353515Y-12078936D01*
X13353515Y-12078936D02*
X13353515Y-12097984D01*
X13486848Y-11897984D02*
X13505896Y-11897984D01*
X13505896Y-11897984D02*
X13524944Y-11907508D01*
X13524944Y-11907508D02*
X13534467Y-11917031D01*
X13534467Y-11917031D02*
X13543991Y-11936079D01*
X13543991Y-11936079D02*
X13553515Y-11974174D01*
X13553515Y-11974174D02*
X13553515Y-12021793D01*
X13553515Y-12021793D02*
X13543991Y-12059888D01*
X13543991Y-12059888D02*
X13534467Y-12078936D01*
X13534467Y-12078936D02*
X13524944Y-12088460D01*
X13524944Y-12088460D02*
X13505896Y-12097984D01*
X13505896Y-12097984D02*
X13486848Y-12097984D01*
X13486848Y-12097984D02*
X13467801Y-12088460D01*
X13467801Y-12088460D02*
X13458277Y-12078936D01*
X13458277Y-12078936D02*
X13448753Y-12059888D01*
X13448753Y-12059888D02*
X13439229Y-12021793D01*
X13439229Y-12021793D02*
X13439229Y-11974174D01*
X13439229Y-11974174D02*
X13448753Y-11936079D01*
X13448753Y-11936079D02*
X13458277Y-11917031D01*
X13458277Y-11917031D02*
X13467801Y-11907508D01*
X13467801Y-11907508D02*
X13486848Y-11897984D01*
X13629706Y-11917031D02*
X13639229Y-11907508D01*
X13639229Y-11907508D02*
X13658277Y-11897984D01*
X13658277Y-11897984D02*
X13705896Y-11897984D01*
X13705896Y-11897984D02*
X13724944Y-11907508D01*
X13724944Y-11907508D02*
X13734467Y-11917031D01*
X13734467Y-11917031D02*
X13743991Y-11936079D01*
X13743991Y-11936079D02*
X13743991Y-11955127D01*
X13743991Y-11955127D02*
X13734467Y-11983698D01*
X13734467Y-11983698D02*
X13620182Y-12097984D01*
X13620182Y-12097984D02*
X13743991Y-12097984D01*
X13810658Y-11897984D02*
X13943991Y-11897984D01*
X13943991Y-11897984D02*
X13858277Y-12097984D01*
X14010658Y-11917031D02*
X14020182Y-11907508D01*
X14020182Y-11907508D02*
X14039229Y-11897984D01*
X14039229Y-11897984D02*
X14086848Y-11897984D01*
X14086848Y-11897984D02*
X14105896Y-11907508D01*
X14105896Y-11907508D02*
X14115420Y-11917031D01*
X14115420Y-11917031D02*
X14124944Y-11936079D01*
X14124944Y-11936079D02*
X14124944Y-11955127D01*
X14124944Y-11955127D02*
X14115420Y-11983698D01*
X14115420Y-11983698D02*
X14001134Y-12097984D01*
X14001134Y-12097984D02*
X14124944Y-12097984D01*
X14201134Y-11897984D02*
X14201134Y-11936079D01*
X14277325Y-11897984D02*
X14277325Y-11936079D01*
X14572563Y-12174174D02*
X14563039Y-12164650D01*
X14563039Y-12164650D02*
X14543991Y-12136079D01*
X14543991Y-12136079D02*
X14534468Y-12117031D01*
X14534468Y-12117031D02*
X14524944Y-12088460D01*
X14524944Y-12088460D02*
X14515420Y-12040841D01*
X14515420Y-12040841D02*
X14515420Y-12002746D01*
X14515420Y-12002746D02*
X14524944Y-11955127D01*
X14524944Y-11955127D02*
X14534468Y-11926555D01*
X14534468Y-11926555D02*
X14543991Y-11907508D01*
X14543991Y-11907508D02*
X14563039Y-11878936D01*
X14563039Y-11878936D02*
X14572563Y-11869412D01*
X14734468Y-11897984D02*
X14696372Y-11897984D01*
X14696372Y-11897984D02*
X14677325Y-11907508D01*
X14677325Y-11907508D02*
X14667801Y-11917031D01*
X14667801Y-11917031D02*
X14648753Y-11945603D01*
X14648753Y-11945603D02*
X14639229Y-11983698D01*
X14639229Y-11983698D02*
X14639229Y-12059888D01*
X14639229Y-12059888D02*
X14648753Y-12078936D01*
X14648753Y-12078936D02*
X14658277Y-12088460D01*
X14658277Y-12088460D02*
X14677325Y-12097984D01*
X14677325Y-12097984D02*
X14715420Y-12097984D01*
X14715420Y-12097984D02*
X14734468Y-12088460D01*
X14734468Y-12088460D02*
X14743991Y-12078936D01*
X14743991Y-12078936D02*
X14753515Y-12059888D01*
X14753515Y-12059888D02*
X14753515Y-12012269D01*
X14753515Y-12012269D02*
X14743991Y-11993222D01*
X14743991Y-11993222D02*
X14734468Y-11983698D01*
X14734468Y-11983698D02*
X14715420Y-11974174D01*
X14715420Y-11974174D02*
X14677325Y-11974174D01*
X14677325Y-11974174D02*
X14658277Y-11983698D01*
X14658277Y-11983698D02*
X14648753Y-11993222D01*
X14648753Y-11993222D02*
X14639229Y-12012269D01*
X14991610Y-12097984D02*
X14991610Y-11897984D01*
X15077325Y-12097984D02*
X15077325Y-11993222D01*
X15077325Y-11993222D02*
X15067801Y-11974174D01*
X15067801Y-11974174D02*
X15048753Y-11964650D01*
X15048753Y-11964650D02*
X15020182Y-11964650D01*
X15020182Y-11964650D02*
X15001134Y-11974174D01*
X15001134Y-11974174D02*
X14991610Y-11983698D01*
X15201134Y-12097984D02*
X15182087Y-12088460D01*
X15182087Y-12088460D02*
X15172563Y-12078936D01*
X15172563Y-12078936D02*
X15163039Y-12059888D01*
X15163039Y-12059888D02*
X15163039Y-12002746D01*
X15163039Y-12002746D02*
X15172563Y-11983698D01*
X15172563Y-11983698D02*
X15182087Y-11974174D01*
X15182087Y-11974174D02*
X15201134Y-11964650D01*
X15201134Y-11964650D02*
X15229706Y-11964650D01*
X15229706Y-11964650D02*
X15248753Y-11974174D01*
X15248753Y-11974174D02*
X15258277Y-11983698D01*
X15258277Y-11983698D02*
X15267801Y-12002746D01*
X15267801Y-12002746D02*
X15267801Y-12059888D01*
X15267801Y-12059888D02*
X15258277Y-12078936D01*
X15258277Y-12078936D02*
X15248753Y-12088460D01*
X15248753Y-12088460D02*
X15229706Y-12097984D01*
X15229706Y-12097984D02*
X15201134Y-12097984D01*
X15382087Y-12097984D02*
X15363039Y-12088460D01*
X15363039Y-12088460D02*
X15353515Y-12069412D01*
X15353515Y-12069412D02*
X15353515Y-11897984D01*
X15534468Y-12088460D02*
X15515420Y-12097984D01*
X15515420Y-12097984D02*
X15477325Y-12097984D01*
X15477325Y-12097984D02*
X15458277Y-12088460D01*
X15458277Y-12088460D02*
X15448753Y-12069412D01*
X15448753Y-12069412D02*
X15448753Y-11993222D01*
X15448753Y-11993222D02*
X15458277Y-11974174D01*
X15458277Y-11974174D02*
X15477325Y-11964650D01*
X15477325Y-11964650D02*
X15515420Y-11964650D01*
X15515420Y-11964650D02*
X15534468Y-11974174D01*
X15534468Y-11974174D02*
X15543991Y-11993222D01*
X15543991Y-11993222D02*
X15543991Y-12012269D01*
X15543991Y-12012269D02*
X15448753Y-12031317D01*
X15620182Y-12088460D02*
X15639230Y-12097984D01*
X15639230Y-12097984D02*
X15677325Y-12097984D01*
X15677325Y-12097984D02*
X15696372Y-12088460D01*
X15696372Y-12088460D02*
X15705896Y-12069412D01*
X15705896Y-12069412D02*
X15705896Y-12059888D01*
X15705896Y-12059888D02*
X15696372Y-12040841D01*
X15696372Y-12040841D02*
X15677325Y-12031317D01*
X15677325Y-12031317D02*
X15648753Y-12031317D01*
X15648753Y-12031317D02*
X15629706Y-12021793D01*
X15629706Y-12021793D02*
X15620182Y-12002746D01*
X15620182Y-12002746D02*
X15620182Y-11993222D01*
X15620182Y-11993222D02*
X15629706Y-11974174D01*
X15629706Y-11974174D02*
X15648753Y-11964650D01*
X15648753Y-11964650D02*
X15677325Y-11964650D01*
X15677325Y-11964650D02*
X15696372Y-11974174D01*
X15772563Y-12174174D02*
X15782087Y-12164650D01*
X15782087Y-12164650D02*
X15801134Y-12136079D01*
X15801134Y-12136079D02*
X15810658Y-12117031D01*
X15810658Y-12117031D02*
X15820182Y-12088460D01*
X15820182Y-12088460D02*
X15829706Y-12040841D01*
X15829706Y-12040841D02*
X15829706Y-12002746D01*
X15829706Y-12002746D02*
X15820182Y-11955127D01*
X15820182Y-11955127D02*
X15810658Y-11926555D01*
X15810658Y-11926555D02*
X15801134Y-11907508D01*
X15801134Y-11907508D02*
X15782087Y-11878936D01*
X15782087Y-11878936D02*
X15772563Y-11869412D01*
D12*
X10962500Y-12235500D02*
X10962500Y-12305500D01*
X10927500Y-12270500D02*
X10997500Y-12270500D01*
D11*
X11296372Y-12161984D02*
X11315420Y-12161984D01*
X11315420Y-12161984D02*
X11334467Y-12171508D01*
X11334467Y-12171508D02*
X11343991Y-12181031D01*
X11343991Y-12181031D02*
X11353515Y-12200079D01*
X11353515Y-12200079D02*
X11363039Y-12238174D01*
X11363039Y-12238174D02*
X11363039Y-12285793D01*
X11363039Y-12285793D02*
X11353515Y-12323888D01*
X11353515Y-12323888D02*
X11343991Y-12342936D01*
X11343991Y-12342936D02*
X11334467Y-12352460D01*
X11334467Y-12352460D02*
X11315420Y-12361984D01*
X11315420Y-12361984D02*
X11296372Y-12361984D01*
X11296372Y-12361984D02*
X11277324Y-12352460D01*
X11277324Y-12352460D02*
X11267801Y-12342936D01*
X11267801Y-12342936D02*
X11258277Y-12323888D01*
X11258277Y-12323888D02*
X11248753Y-12285793D01*
X11248753Y-12285793D02*
X11248753Y-12238174D01*
X11248753Y-12238174D02*
X11258277Y-12200079D01*
X11258277Y-12200079D02*
X11267801Y-12181031D01*
X11267801Y-12181031D02*
X11277324Y-12171508D01*
X11277324Y-12171508D02*
X11296372Y-12161984D01*
X11448753Y-12342936D02*
X11458277Y-12352460D01*
X11458277Y-12352460D02*
X11448753Y-12361984D01*
X11448753Y-12361984D02*
X11439229Y-12352460D01*
X11439229Y-12352460D02*
X11448753Y-12342936D01*
X11448753Y-12342936D02*
X11448753Y-12361984D01*
X11524943Y-12161984D02*
X11658277Y-12161984D01*
X11658277Y-12161984D02*
X11572562Y-12361984D01*
X11772562Y-12161984D02*
X11791610Y-12161984D01*
X11791610Y-12161984D02*
X11810658Y-12171508D01*
X11810658Y-12171508D02*
X11820182Y-12181031D01*
X11820182Y-12181031D02*
X11829705Y-12200079D01*
X11829705Y-12200079D02*
X11839229Y-12238174D01*
X11839229Y-12238174D02*
X11839229Y-12285793D01*
X11839229Y-12285793D02*
X11829705Y-12323888D01*
X11829705Y-12323888D02*
X11820182Y-12342936D01*
X11820182Y-12342936D02*
X11810658Y-12352460D01*
X11810658Y-12352460D02*
X11791610Y-12361984D01*
X11791610Y-12361984D02*
X11772562Y-12361984D01*
X11772562Y-12361984D02*
X11753515Y-12352460D01*
X11753515Y-12352460D02*
X11743991Y-12342936D01*
X11743991Y-12342936D02*
X11734467Y-12323888D01*
X11734467Y-12323888D02*
X11724943Y-12285793D01*
X11724943Y-12285793D02*
X11724943Y-12238174D01*
X11724943Y-12238174D02*
X11734467Y-12200079D01*
X11734467Y-12200079D02*
X11743991Y-12181031D01*
X11743991Y-12181031D02*
X11753515Y-12171508D01*
X11753515Y-12171508D02*
X11772562Y-12161984D01*
X11963039Y-12161984D02*
X11982086Y-12161984D01*
X11982086Y-12161984D02*
X12001134Y-12171508D01*
X12001134Y-12171508D02*
X12010658Y-12181031D01*
X12010658Y-12181031D02*
X12020182Y-12200079D01*
X12020182Y-12200079D02*
X12029705Y-12238174D01*
X12029705Y-12238174D02*
X12029705Y-12285793D01*
X12029705Y-12285793D02*
X12020182Y-12323888D01*
X12020182Y-12323888D02*
X12010658Y-12342936D01*
X12010658Y-12342936D02*
X12001134Y-12352460D01*
X12001134Y-12352460D02*
X11982086Y-12361984D01*
X11982086Y-12361984D02*
X11963039Y-12361984D01*
X11963039Y-12361984D02*
X11943991Y-12352460D01*
X11943991Y-12352460D02*
X11934467Y-12342936D01*
X11934467Y-12342936D02*
X11924943Y-12323888D01*
X11924943Y-12323888D02*
X11915420Y-12285793D01*
X11915420Y-12285793D02*
X11915420Y-12238174D01*
X11915420Y-12238174D02*
X11924943Y-12200079D01*
X11924943Y-12200079D02*
X11934467Y-12181031D01*
X11934467Y-12181031D02*
X11943991Y-12171508D01*
X11943991Y-12171508D02*
X11963039Y-12161984D01*
X12115420Y-12361984D02*
X12115420Y-12228650D01*
X12115420Y-12247698D02*
X12124943Y-12238174D01*
X12124943Y-12238174D02*
X12143991Y-12228650D01*
X12143991Y-12228650D02*
X12172563Y-12228650D01*
X12172563Y-12228650D02*
X12191610Y-12238174D01*
X12191610Y-12238174D02*
X12201134Y-12257222D01*
X12201134Y-12257222D02*
X12201134Y-12361984D01*
X12201134Y-12257222D02*
X12210658Y-12238174D01*
X12210658Y-12238174D02*
X12229705Y-12228650D01*
X12229705Y-12228650D02*
X12258277Y-12228650D01*
X12258277Y-12228650D02*
X12277324Y-12238174D01*
X12277324Y-12238174D02*
X12286848Y-12257222D01*
X12286848Y-12257222D02*
X12286848Y-12361984D01*
X12382086Y-12361984D02*
X12382086Y-12228650D01*
X12382086Y-12247698D02*
X12391610Y-12238174D01*
X12391610Y-12238174D02*
X12410658Y-12228650D01*
X12410658Y-12228650D02*
X12439229Y-12228650D01*
X12439229Y-12228650D02*
X12458277Y-12238174D01*
X12458277Y-12238174D02*
X12467801Y-12257222D01*
X12467801Y-12257222D02*
X12467801Y-12361984D01*
X12467801Y-12257222D02*
X12477324Y-12238174D01*
X12477324Y-12238174D02*
X12496372Y-12228650D01*
X12496372Y-12228650D02*
X12524943Y-12228650D01*
X12524943Y-12228650D02*
X12543991Y-12238174D01*
X12543991Y-12238174D02*
X12553515Y-12257222D01*
X12553515Y-12257222D02*
X12553515Y-12361984D01*
X12943991Y-12152460D02*
X12772563Y-12409603D01*
X13201134Y-12161984D02*
X13220182Y-12161984D01*
X13220182Y-12161984D02*
X13239229Y-12171508D01*
X13239229Y-12171508D02*
X13248753Y-12181031D01*
X13248753Y-12181031D02*
X13258277Y-12200079D01*
X13258277Y-12200079D02*
X13267801Y-12238174D01*
X13267801Y-12238174D02*
X13267801Y-12285793D01*
X13267801Y-12285793D02*
X13258277Y-12323888D01*
X13258277Y-12323888D02*
X13248753Y-12342936D01*
X13248753Y-12342936D02*
X13239229Y-12352460D01*
X13239229Y-12352460D02*
X13220182Y-12361984D01*
X13220182Y-12361984D02*
X13201134Y-12361984D01*
X13201134Y-12361984D02*
X13182086Y-12352460D01*
X13182086Y-12352460D02*
X13172563Y-12342936D01*
X13172563Y-12342936D02*
X13163039Y-12323888D01*
X13163039Y-12323888D02*
X13153515Y-12285793D01*
X13153515Y-12285793D02*
X13153515Y-12238174D01*
X13153515Y-12238174D02*
X13163039Y-12200079D01*
X13163039Y-12200079D02*
X13172563Y-12181031D01*
X13172563Y-12181031D02*
X13182086Y-12171508D01*
X13182086Y-12171508D02*
X13201134Y-12161984D01*
X13353515Y-12342936D02*
X13363039Y-12352460D01*
X13363039Y-12352460D02*
X13353515Y-12361984D01*
X13353515Y-12361984D02*
X13343991Y-12352460D01*
X13343991Y-12352460D02*
X13353515Y-12342936D01*
X13353515Y-12342936D02*
X13353515Y-12361984D01*
X13486848Y-12161984D02*
X13505896Y-12161984D01*
X13505896Y-12161984D02*
X13524944Y-12171508D01*
X13524944Y-12171508D02*
X13534467Y-12181031D01*
X13534467Y-12181031D02*
X13543991Y-12200079D01*
X13543991Y-12200079D02*
X13553515Y-12238174D01*
X13553515Y-12238174D02*
X13553515Y-12285793D01*
X13553515Y-12285793D02*
X13543991Y-12323888D01*
X13543991Y-12323888D02*
X13534467Y-12342936D01*
X13534467Y-12342936D02*
X13524944Y-12352460D01*
X13524944Y-12352460D02*
X13505896Y-12361984D01*
X13505896Y-12361984D02*
X13486848Y-12361984D01*
X13486848Y-12361984D02*
X13467801Y-12352460D01*
X13467801Y-12352460D02*
X13458277Y-12342936D01*
X13458277Y-12342936D02*
X13448753Y-12323888D01*
X13448753Y-12323888D02*
X13439229Y-12285793D01*
X13439229Y-12285793D02*
X13439229Y-12238174D01*
X13439229Y-12238174D02*
X13448753Y-12200079D01*
X13448753Y-12200079D02*
X13458277Y-12181031D01*
X13458277Y-12181031D02*
X13467801Y-12171508D01*
X13467801Y-12171508D02*
X13486848Y-12161984D01*
X13629706Y-12181031D02*
X13639229Y-12171508D01*
X13639229Y-12171508D02*
X13658277Y-12161984D01*
X13658277Y-12161984D02*
X13705896Y-12161984D01*
X13705896Y-12161984D02*
X13724944Y-12171508D01*
X13724944Y-12171508D02*
X13734467Y-12181031D01*
X13734467Y-12181031D02*
X13743991Y-12200079D01*
X13743991Y-12200079D02*
X13743991Y-12219127D01*
X13743991Y-12219127D02*
X13734467Y-12247698D01*
X13734467Y-12247698D02*
X13620182Y-12361984D01*
X13620182Y-12361984D02*
X13743991Y-12361984D01*
X13810658Y-12161984D02*
X13943991Y-12161984D01*
X13943991Y-12161984D02*
X13858277Y-12361984D01*
X14105896Y-12161984D02*
X14067801Y-12161984D01*
X14067801Y-12161984D02*
X14048753Y-12171508D01*
X14048753Y-12171508D02*
X14039229Y-12181031D01*
X14039229Y-12181031D02*
X14020182Y-12209603D01*
X14020182Y-12209603D02*
X14010658Y-12247698D01*
X14010658Y-12247698D02*
X14010658Y-12323888D01*
X14010658Y-12323888D02*
X14020182Y-12342936D01*
X14020182Y-12342936D02*
X14029706Y-12352460D01*
X14029706Y-12352460D02*
X14048753Y-12361984D01*
X14048753Y-12361984D02*
X14086848Y-12361984D01*
X14086848Y-12361984D02*
X14105896Y-12352460D01*
X14105896Y-12352460D02*
X14115420Y-12342936D01*
X14115420Y-12342936D02*
X14124944Y-12323888D01*
X14124944Y-12323888D02*
X14124944Y-12276269D01*
X14124944Y-12276269D02*
X14115420Y-12257222D01*
X14115420Y-12257222D02*
X14105896Y-12247698D01*
X14105896Y-12247698D02*
X14086848Y-12238174D01*
X14086848Y-12238174D02*
X14048753Y-12238174D01*
X14048753Y-12238174D02*
X14029706Y-12247698D01*
X14029706Y-12247698D02*
X14020182Y-12257222D01*
X14020182Y-12257222D02*
X14010658Y-12276269D01*
X14201134Y-12161984D02*
X14201134Y-12200079D01*
X14277325Y-12161984D02*
X14277325Y-12200079D01*
X14572563Y-12438174D02*
X14563039Y-12428650D01*
X14563039Y-12428650D02*
X14543991Y-12400079D01*
X14543991Y-12400079D02*
X14534468Y-12381031D01*
X14534468Y-12381031D02*
X14524944Y-12352460D01*
X14524944Y-12352460D02*
X14515420Y-12304841D01*
X14515420Y-12304841D02*
X14515420Y-12266746D01*
X14515420Y-12266746D02*
X14524944Y-12219127D01*
X14524944Y-12219127D02*
X14534468Y-12190555D01*
X14534468Y-12190555D02*
X14543991Y-12171508D01*
X14543991Y-12171508D02*
X14563039Y-12142936D01*
X14563039Y-12142936D02*
X14572563Y-12133412D01*
X14677325Y-12247698D02*
X14658277Y-12238174D01*
X14658277Y-12238174D02*
X14648753Y-12228650D01*
X14648753Y-12228650D02*
X14639229Y-12209603D01*
X14639229Y-12209603D02*
X14639229Y-12200079D01*
X14639229Y-12200079D02*
X14648753Y-12181031D01*
X14648753Y-12181031D02*
X14658277Y-12171508D01*
X14658277Y-12171508D02*
X14677325Y-12161984D01*
X14677325Y-12161984D02*
X14715420Y-12161984D01*
X14715420Y-12161984D02*
X14734468Y-12171508D01*
X14734468Y-12171508D02*
X14743991Y-12181031D01*
X14743991Y-12181031D02*
X14753515Y-12200079D01*
X14753515Y-12200079D02*
X14753515Y-12209603D01*
X14753515Y-12209603D02*
X14743991Y-12228650D01*
X14743991Y-12228650D02*
X14734468Y-12238174D01*
X14734468Y-12238174D02*
X14715420Y-12247698D01*
X14715420Y-12247698D02*
X14677325Y-12247698D01*
X14677325Y-12247698D02*
X14658277Y-12257222D01*
X14658277Y-12257222D02*
X14648753Y-12266746D01*
X14648753Y-12266746D02*
X14639229Y-12285793D01*
X14639229Y-12285793D02*
X14639229Y-12323888D01*
X14639229Y-12323888D02*
X14648753Y-12342936D01*
X14648753Y-12342936D02*
X14658277Y-12352460D01*
X14658277Y-12352460D02*
X14677325Y-12361984D01*
X14677325Y-12361984D02*
X14715420Y-12361984D01*
X14715420Y-12361984D02*
X14734468Y-12352460D01*
X14734468Y-12352460D02*
X14743991Y-12342936D01*
X14743991Y-12342936D02*
X14753515Y-12323888D01*
X14753515Y-12323888D02*
X14753515Y-12285793D01*
X14753515Y-12285793D02*
X14743991Y-12266746D01*
X14743991Y-12266746D02*
X14734468Y-12257222D01*
X14734468Y-12257222D02*
X14715420Y-12247698D01*
X14991610Y-12361984D02*
X14991610Y-12161984D01*
X15077325Y-12361984D02*
X15077325Y-12257222D01*
X15077325Y-12257222D02*
X15067801Y-12238174D01*
X15067801Y-12238174D02*
X15048753Y-12228650D01*
X15048753Y-12228650D02*
X15020182Y-12228650D01*
X15020182Y-12228650D02*
X15001134Y-12238174D01*
X15001134Y-12238174D02*
X14991610Y-12247698D01*
X15201134Y-12361984D02*
X15182087Y-12352460D01*
X15182087Y-12352460D02*
X15172563Y-12342936D01*
X15172563Y-12342936D02*
X15163039Y-12323888D01*
X15163039Y-12323888D02*
X15163039Y-12266746D01*
X15163039Y-12266746D02*
X15172563Y-12247698D01*
X15172563Y-12247698D02*
X15182087Y-12238174D01*
X15182087Y-12238174D02*
X15201134Y-12228650D01*
X15201134Y-12228650D02*
X15229706Y-12228650D01*
X15229706Y-12228650D02*
X15248753Y-12238174D01*
X15248753Y-12238174D02*
X15258277Y-12247698D01*
X15258277Y-12247698D02*
X15267801Y-12266746D01*
X15267801Y-12266746D02*
X15267801Y-12323888D01*
X15267801Y-12323888D02*
X15258277Y-12342936D01*
X15258277Y-12342936D02*
X15248753Y-12352460D01*
X15248753Y-12352460D02*
X15229706Y-12361984D01*
X15229706Y-12361984D02*
X15201134Y-12361984D01*
X15382087Y-12361984D02*
X15363039Y-12352460D01*
X15363039Y-12352460D02*
X15353515Y-12333412D01*
X15353515Y-12333412D02*
X15353515Y-12161984D01*
X15534468Y-12352460D02*
X15515420Y-12361984D01*
X15515420Y-12361984D02*
X15477325Y-12361984D01*
X15477325Y-12361984D02*
X15458277Y-12352460D01*
X15458277Y-12352460D02*
X15448753Y-12333412D01*
X15448753Y-12333412D02*
X15448753Y-12257222D01*
X15448753Y-12257222D02*
X15458277Y-12238174D01*
X15458277Y-12238174D02*
X15477325Y-12228650D01*
X15477325Y-12228650D02*
X15515420Y-12228650D01*
X15515420Y-12228650D02*
X15534468Y-12238174D01*
X15534468Y-12238174D02*
X15543991Y-12257222D01*
X15543991Y-12257222D02*
X15543991Y-12276269D01*
X15543991Y-12276269D02*
X15448753Y-12295317D01*
X15620182Y-12352460D02*
X15639230Y-12361984D01*
X15639230Y-12361984D02*
X15677325Y-12361984D01*
X15677325Y-12361984D02*
X15696372Y-12352460D01*
X15696372Y-12352460D02*
X15705896Y-12333412D01*
X15705896Y-12333412D02*
X15705896Y-12323888D01*
X15705896Y-12323888D02*
X15696372Y-12304841D01*
X15696372Y-12304841D02*
X15677325Y-12295317D01*
X15677325Y-12295317D02*
X15648753Y-12295317D01*
X15648753Y-12295317D02*
X15629706Y-12285793D01*
X15629706Y-12285793D02*
X15620182Y-12266746D01*
X15620182Y-12266746D02*
X15620182Y-12257222D01*
X15620182Y-12257222D02*
X15629706Y-12238174D01*
X15629706Y-12238174D02*
X15648753Y-12228650D01*
X15648753Y-12228650D02*
X15677325Y-12228650D01*
X15677325Y-12228650D02*
X15696372Y-12238174D01*
X15772563Y-12438174D02*
X15782087Y-12428650D01*
X15782087Y-12428650D02*
X15801134Y-12400079D01*
X15801134Y-12400079D02*
X15810658Y-12381031D01*
X15810658Y-12381031D02*
X15820182Y-12352460D01*
X15820182Y-12352460D02*
X15829706Y-12304841D01*
X15829706Y-12304841D02*
X15829706Y-12266746D01*
X15829706Y-12266746D02*
X15820182Y-12219127D01*
X15820182Y-12219127D02*
X15810658Y-12190555D01*
X15810658Y-12190555D02*
X15801134Y-12171508D01*
X15801134Y-12171508D02*
X15782087Y-12142936D01*
X15782087Y-12142936D02*
X15772563Y-12133412D01*
D12*
X10985785Y-12562784D02*
X10985785Y-12506215D01*
X10929216Y-12506215D01*
X10929216Y-12562784D01*
X10985785Y-12562784D01*
D11*
X11296372Y-12425984D02*
X11315420Y-12425984D01*
X11315420Y-12425984D02*
X11334467Y-12435508D01*
X11334467Y-12435508D02*
X11343991Y-12445031D01*
X11343991Y-12445031D02*
X11353515Y-12464079D01*
X11353515Y-12464079D02*
X11363039Y-12502174D01*
X11363039Y-12502174D02*
X11363039Y-12549793D01*
X11363039Y-12549793D02*
X11353515Y-12587888D01*
X11353515Y-12587888D02*
X11343991Y-12606936D01*
X11343991Y-12606936D02*
X11334467Y-12616460D01*
X11334467Y-12616460D02*
X11315420Y-12625984D01*
X11315420Y-12625984D02*
X11296372Y-12625984D01*
X11296372Y-12625984D02*
X11277324Y-12616460D01*
X11277324Y-12616460D02*
X11267801Y-12606936D01*
X11267801Y-12606936D02*
X11258277Y-12587888D01*
X11258277Y-12587888D02*
X11248753Y-12549793D01*
X11248753Y-12549793D02*
X11248753Y-12502174D01*
X11248753Y-12502174D02*
X11258277Y-12464079D01*
X11258277Y-12464079D02*
X11267801Y-12445031D01*
X11267801Y-12445031D02*
X11277324Y-12435508D01*
X11277324Y-12435508D02*
X11296372Y-12425984D01*
X11448753Y-12606936D02*
X11458277Y-12616460D01*
X11458277Y-12616460D02*
X11448753Y-12625984D01*
X11448753Y-12625984D02*
X11439229Y-12616460D01*
X11439229Y-12616460D02*
X11448753Y-12606936D01*
X11448753Y-12606936D02*
X11448753Y-12625984D01*
X11572562Y-12511698D02*
X11553515Y-12502174D01*
X11553515Y-12502174D02*
X11543991Y-12492650D01*
X11543991Y-12492650D02*
X11534467Y-12473603D01*
X11534467Y-12473603D02*
X11534467Y-12464079D01*
X11534467Y-12464079D02*
X11543991Y-12445031D01*
X11543991Y-12445031D02*
X11553515Y-12435508D01*
X11553515Y-12435508D02*
X11572562Y-12425984D01*
X11572562Y-12425984D02*
X11610658Y-12425984D01*
X11610658Y-12425984D02*
X11629705Y-12435508D01*
X11629705Y-12435508D02*
X11639229Y-12445031D01*
X11639229Y-12445031D02*
X11648753Y-12464079D01*
X11648753Y-12464079D02*
X11648753Y-12473603D01*
X11648753Y-12473603D02*
X11639229Y-12492650D01*
X11639229Y-12492650D02*
X11629705Y-12502174D01*
X11629705Y-12502174D02*
X11610658Y-12511698D01*
X11610658Y-12511698D02*
X11572562Y-12511698D01*
X11572562Y-12511698D02*
X11553515Y-12521222D01*
X11553515Y-12521222D02*
X11543991Y-12530746D01*
X11543991Y-12530746D02*
X11534467Y-12549793D01*
X11534467Y-12549793D02*
X11534467Y-12587888D01*
X11534467Y-12587888D02*
X11543991Y-12606936D01*
X11543991Y-12606936D02*
X11553515Y-12616460D01*
X11553515Y-12616460D02*
X11572562Y-12625984D01*
X11572562Y-12625984D02*
X11610658Y-12625984D01*
X11610658Y-12625984D02*
X11629705Y-12616460D01*
X11629705Y-12616460D02*
X11639229Y-12606936D01*
X11639229Y-12606936D02*
X11648753Y-12587888D01*
X11648753Y-12587888D02*
X11648753Y-12549793D01*
X11648753Y-12549793D02*
X11639229Y-12530746D01*
X11639229Y-12530746D02*
X11629705Y-12521222D01*
X11629705Y-12521222D02*
X11610658Y-12511698D01*
X11772562Y-12425984D02*
X11791610Y-12425984D01*
X11791610Y-12425984D02*
X11810658Y-12435508D01*
X11810658Y-12435508D02*
X11820182Y-12445031D01*
X11820182Y-12445031D02*
X11829705Y-12464079D01*
X11829705Y-12464079D02*
X11839229Y-12502174D01*
X11839229Y-12502174D02*
X11839229Y-12549793D01*
X11839229Y-12549793D02*
X11829705Y-12587888D01*
X11829705Y-12587888D02*
X11820182Y-12606936D01*
X11820182Y-12606936D02*
X11810658Y-12616460D01*
X11810658Y-12616460D02*
X11791610Y-12625984D01*
X11791610Y-12625984D02*
X11772562Y-12625984D01*
X11772562Y-12625984D02*
X11753515Y-12616460D01*
X11753515Y-12616460D02*
X11743991Y-12606936D01*
X11743991Y-12606936D02*
X11734467Y-12587888D01*
X11734467Y-12587888D02*
X11724943Y-12549793D01*
X11724943Y-12549793D02*
X11724943Y-12502174D01*
X11724943Y-12502174D02*
X11734467Y-12464079D01*
X11734467Y-12464079D02*
X11743991Y-12445031D01*
X11743991Y-12445031D02*
X11753515Y-12435508D01*
X11753515Y-12435508D02*
X11772562Y-12425984D01*
X11963039Y-12425984D02*
X11982086Y-12425984D01*
X11982086Y-12425984D02*
X12001134Y-12435508D01*
X12001134Y-12435508D02*
X12010658Y-12445031D01*
X12010658Y-12445031D02*
X12020182Y-12464079D01*
X12020182Y-12464079D02*
X12029705Y-12502174D01*
X12029705Y-12502174D02*
X12029705Y-12549793D01*
X12029705Y-12549793D02*
X12020182Y-12587888D01*
X12020182Y-12587888D02*
X12010658Y-12606936D01*
X12010658Y-12606936D02*
X12001134Y-12616460D01*
X12001134Y-12616460D02*
X11982086Y-12625984D01*
X11982086Y-12625984D02*
X11963039Y-12625984D01*
X11963039Y-12625984D02*
X11943991Y-12616460D01*
X11943991Y-12616460D02*
X11934467Y-12606936D01*
X11934467Y-12606936D02*
X11924943Y-12587888D01*
X11924943Y-12587888D02*
X11915420Y-12549793D01*
X11915420Y-12549793D02*
X11915420Y-12502174D01*
X11915420Y-12502174D02*
X11924943Y-12464079D01*
X11924943Y-12464079D02*
X11934467Y-12445031D01*
X11934467Y-12445031D02*
X11943991Y-12435508D01*
X11943991Y-12435508D02*
X11963039Y-12425984D01*
X12115420Y-12625984D02*
X12115420Y-12492650D01*
X12115420Y-12511698D02*
X12124943Y-12502174D01*
X12124943Y-12502174D02*
X12143991Y-12492650D01*
X12143991Y-12492650D02*
X12172563Y-12492650D01*
X12172563Y-12492650D02*
X12191610Y-12502174D01*
X12191610Y-12502174D02*
X12201134Y-12521222D01*
X12201134Y-12521222D02*
X12201134Y-12625984D01*
X12201134Y-12521222D02*
X12210658Y-12502174D01*
X12210658Y-12502174D02*
X12229705Y-12492650D01*
X12229705Y-12492650D02*
X12258277Y-12492650D01*
X12258277Y-12492650D02*
X12277324Y-12502174D01*
X12277324Y-12502174D02*
X12286848Y-12521222D01*
X12286848Y-12521222D02*
X12286848Y-12625984D01*
X12382086Y-12625984D02*
X12382086Y-12492650D01*
X12382086Y-12511698D02*
X12391610Y-12502174D01*
X12391610Y-12502174D02*
X12410658Y-12492650D01*
X12410658Y-12492650D02*
X12439229Y-12492650D01*
X12439229Y-12492650D02*
X12458277Y-12502174D01*
X12458277Y-12502174D02*
X12467801Y-12521222D01*
X12467801Y-12521222D02*
X12467801Y-12625984D01*
X12467801Y-12521222D02*
X12477324Y-12502174D01*
X12477324Y-12502174D02*
X12496372Y-12492650D01*
X12496372Y-12492650D02*
X12524943Y-12492650D01*
X12524943Y-12492650D02*
X12543991Y-12502174D01*
X12543991Y-12502174D02*
X12553515Y-12521222D01*
X12553515Y-12521222D02*
X12553515Y-12625984D01*
X12943991Y-12416460D02*
X12772563Y-12673603D01*
X13201134Y-12425984D02*
X13220182Y-12425984D01*
X13220182Y-12425984D02*
X13239229Y-12435508D01*
X13239229Y-12435508D02*
X13248753Y-12445031D01*
X13248753Y-12445031D02*
X13258277Y-12464079D01*
X13258277Y-12464079D02*
X13267801Y-12502174D01*
X13267801Y-12502174D02*
X13267801Y-12549793D01*
X13267801Y-12549793D02*
X13258277Y-12587888D01*
X13258277Y-12587888D02*
X13248753Y-12606936D01*
X13248753Y-12606936D02*
X13239229Y-12616460D01*
X13239229Y-12616460D02*
X13220182Y-12625984D01*
X13220182Y-12625984D02*
X13201134Y-12625984D01*
X13201134Y-12625984D02*
X13182086Y-12616460D01*
X13182086Y-12616460D02*
X13172563Y-12606936D01*
X13172563Y-12606936D02*
X13163039Y-12587888D01*
X13163039Y-12587888D02*
X13153515Y-12549793D01*
X13153515Y-12549793D02*
X13153515Y-12502174D01*
X13153515Y-12502174D02*
X13163039Y-12464079D01*
X13163039Y-12464079D02*
X13172563Y-12445031D01*
X13172563Y-12445031D02*
X13182086Y-12435508D01*
X13182086Y-12435508D02*
X13201134Y-12425984D01*
X13353515Y-12606936D02*
X13363039Y-12616460D01*
X13363039Y-12616460D02*
X13353515Y-12625984D01*
X13353515Y-12625984D02*
X13343991Y-12616460D01*
X13343991Y-12616460D02*
X13353515Y-12606936D01*
X13353515Y-12606936D02*
X13353515Y-12625984D01*
X13486848Y-12425984D02*
X13505896Y-12425984D01*
X13505896Y-12425984D02*
X13524944Y-12435508D01*
X13524944Y-12435508D02*
X13534467Y-12445031D01*
X13534467Y-12445031D02*
X13543991Y-12464079D01*
X13543991Y-12464079D02*
X13553515Y-12502174D01*
X13553515Y-12502174D02*
X13553515Y-12549793D01*
X13553515Y-12549793D02*
X13543991Y-12587888D01*
X13543991Y-12587888D02*
X13534467Y-12606936D01*
X13534467Y-12606936D02*
X13524944Y-12616460D01*
X13524944Y-12616460D02*
X13505896Y-12625984D01*
X13505896Y-12625984D02*
X13486848Y-12625984D01*
X13486848Y-12625984D02*
X13467801Y-12616460D01*
X13467801Y-12616460D02*
X13458277Y-12606936D01*
X13458277Y-12606936D02*
X13448753Y-12587888D01*
X13448753Y-12587888D02*
X13439229Y-12549793D01*
X13439229Y-12549793D02*
X13439229Y-12502174D01*
X13439229Y-12502174D02*
X13448753Y-12464079D01*
X13448753Y-12464079D02*
X13458277Y-12445031D01*
X13458277Y-12445031D02*
X13467801Y-12435508D01*
X13467801Y-12435508D02*
X13486848Y-12425984D01*
X13620182Y-12425984D02*
X13743991Y-12425984D01*
X13743991Y-12425984D02*
X13677325Y-12502174D01*
X13677325Y-12502174D02*
X13705896Y-12502174D01*
X13705896Y-12502174D02*
X13724944Y-12511698D01*
X13724944Y-12511698D02*
X13734467Y-12521222D01*
X13734467Y-12521222D02*
X13743991Y-12540269D01*
X13743991Y-12540269D02*
X13743991Y-12587888D01*
X13743991Y-12587888D02*
X13734467Y-12606936D01*
X13734467Y-12606936D02*
X13724944Y-12616460D01*
X13724944Y-12616460D02*
X13705896Y-12625984D01*
X13705896Y-12625984D02*
X13648753Y-12625984D01*
X13648753Y-12625984D02*
X13629706Y-12616460D01*
X13629706Y-12616460D02*
X13620182Y-12606936D01*
X13934467Y-12625984D02*
X13820182Y-12625984D01*
X13877325Y-12625984D02*
X13877325Y-12425984D01*
X13877325Y-12425984D02*
X13858277Y-12454555D01*
X13858277Y-12454555D02*
X13839229Y-12473603D01*
X13839229Y-12473603D02*
X13820182Y-12483127D01*
X14115420Y-12425984D02*
X14020182Y-12425984D01*
X14020182Y-12425984D02*
X14010658Y-12521222D01*
X14010658Y-12521222D02*
X14020182Y-12511698D01*
X14020182Y-12511698D02*
X14039229Y-12502174D01*
X14039229Y-12502174D02*
X14086848Y-12502174D01*
X14086848Y-12502174D02*
X14105896Y-12511698D01*
X14105896Y-12511698D02*
X14115420Y-12521222D01*
X14115420Y-12521222D02*
X14124944Y-12540269D01*
X14124944Y-12540269D02*
X14124944Y-12587888D01*
X14124944Y-12587888D02*
X14115420Y-12606936D01*
X14115420Y-12606936D02*
X14105896Y-12616460D01*
X14105896Y-12616460D02*
X14086848Y-12625984D01*
X14086848Y-12625984D02*
X14039229Y-12625984D01*
X14039229Y-12625984D02*
X14020182Y-12616460D01*
X14020182Y-12616460D02*
X14010658Y-12606936D01*
X14201134Y-12425984D02*
X14201134Y-12464079D01*
X14277325Y-12425984D02*
X14277325Y-12464079D01*
X14572563Y-12702174D02*
X14563039Y-12692650D01*
X14563039Y-12692650D02*
X14543991Y-12664079D01*
X14543991Y-12664079D02*
X14534468Y-12645031D01*
X14534468Y-12645031D02*
X14524944Y-12616460D01*
X14524944Y-12616460D02*
X14515420Y-12568841D01*
X14515420Y-12568841D02*
X14515420Y-12530746D01*
X14515420Y-12530746D02*
X14524944Y-12483127D01*
X14524944Y-12483127D02*
X14534468Y-12454555D01*
X14534468Y-12454555D02*
X14543991Y-12435508D01*
X14543991Y-12435508D02*
X14563039Y-12406936D01*
X14563039Y-12406936D02*
X14572563Y-12397412D01*
X14743991Y-12425984D02*
X14648753Y-12425984D01*
X14648753Y-12425984D02*
X14639229Y-12521222D01*
X14639229Y-12521222D02*
X14648753Y-12511698D01*
X14648753Y-12511698D02*
X14667801Y-12502174D01*
X14667801Y-12502174D02*
X14715420Y-12502174D01*
X14715420Y-12502174D02*
X14734468Y-12511698D01*
X14734468Y-12511698D02*
X14743991Y-12521222D01*
X14743991Y-12521222D02*
X14753515Y-12540269D01*
X14753515Y-12540269D02*
X14753515Y-12587888D01*
X14753515Y-12587888D02*
X14743991Y-12606936D01*
X14743991Y-12606936D02*
X14734468Y-12616460D01*
X14734468Y-12616460D02*
X14715420Y-12625984D01*
X14715420Y-12625984D02*
X14667801Y-12625984D01*
X14667801Y-12625984D02*
X14648753Y-12616460D01*
X14648753Y-12616460D02*
X14639229Y-12606936D01*
X14877325Y-12425984D02*
X14896372Y-12425984D01*
X14896372Y-12425984D02*
X14915420Y-12435508D01*
X14915420Y-12435508D02*
X14924944Y-12445031D01*
X14924944Y-12445031D02*
X14934468Y-12464079D01*
X14934468Y-12464079D02*
X14943991Y-12502174D01*
X14943991Y-12502174D02*
X14943991Y-12549793D01*
X14943991Y-12549793D02*
X14934468Y-12587888D01*
X14934468Y-12587888D02*
X14924944Y-12606936D01*
X14924944Y-12606936D02*
X14915420Y-12616460D01*
X14915420Y-12616460D02*
X14896372Y-12625984D01*
X14896372Y-12625984D02*
X14877325Y-12625984D01*
X14877325Y-12625984D02*
X14858277Y-12616460D01*
X14858277Y-12616460D02*
X14848753Y-12606936D01*
X14848753Y-12606936D02*
X14839229Y-12587888D01*
X14839229Y-12587888D02*
X14829706Y-12549793D01*
X14829706Y-12549793D02*
X14829706Y-12502174D01*
X14829706Y-12502174D02*
X14839229Y-12464079D01*
X14839229Y-12464079D02*
X14848753Y-12445031D01*
X14848753Y-12445031D02*
X14858277Y-12435508D01*
X14858277Y-12435508D02*
X14877325Y-12425984D01*
X15182087Y-12625984D02*
X15182087Y-12425984D01*
X15267801Y-12625984D02*
X15267801Y-12521222D01*
X15267801Y-12521222D02*
X15258277Y-12502174D01*
X15258277Y-12502174D02*
X15239230Y-12492650D01*
X15239230Y-12492650D02*
X15210658Y-12492650D01*
X15210658Y-12492650D02*
X15191610Y-12502174D01*
X15191610Y-12502174D02*
X15182087Y-12511698D01*
X15391610Y-12625984D02*
X15372563Y-12616460D01*
X15372563Y-12616460D02*
X15363039Y-12606936D01*
X15363039Y-12606936D02*
X15353515Y-12587888D01*
X15353515Y-12587888D02*
X15353515Y-12530746D01*
X15353515Y-12530746D02*
X15363039Y-12511698D01*
X15363039Y-12511698D02*
X15372563Y-12502174D01*
X15372563Y-12502174D02*
X15391610Y-12492650D01*
X15391610Y-12492650D02*
X15420182Y-12492650D01*
X15420182Y-12492650D02*
X15439230Y-12502174D01*
X15439230Y-12502174D02*
X15448753Y-12511698D01*
X15448753Y-12511698D02*
X15458277Y-12530746D01*
X15458277Y-12530746D02*
X15458277Y-12587888D01*
X15458277Y-12587888D02*
X15448753Y-12606936D01*
X15448753Y-12606936D02*
X15439230Y-12616460D01*
X15439230Y-12616460D02*
X15420182Y-12625984D01*
X15420182Y-12625984D02*
X15391610Y-12625984D01*
X15572563Y-12625984D02*
X15553515Y-12616460D01*
X15553515Y-12616460D02*
X15543991Y-12597412D01*
X15543991Y-12597412D02*
X15543991Y-12425984D01*
X15724944Y-12616460D02*
X15705896Y-12625984D01*
X15705896Y-12625984D02*
X15667801Y-12625984D01*
X15667801Y-12625984D02*
X15648753Y-12616460D01*
X15648753Y-12616460D02*
X15639230Y-12597412D01*
X15639230Y-12597412D02*
X15639230Y-12521222D01*
X15639230Y-12521222D02*
X15648753Y-12502174D01*
X15648753Y-12502174D02*
X15667801Y-12492650D01*
X15667801Y-12492650D02*
X15705896Y-12492650D01*
X15705896Y-12492650D02*
X15724944Y-12502174D01*
X15724944Y-12502174D02*
X15734468Y-12521222D01*
X15734468Y-12521222D02*
X15734468Y-12540269D01*
X15734468Y-12540269D02*
X15639230Y-12559317D01*
X15810658Y-12616460D02*
X15829706Y-12625984D01*
X15829706Y-12625984D02*
X15867801Y-12625984D01*
X15867801Y-12625984D02*
X15886849Y-12616460D01*
X15886849Y-12616460D02*
X15896372Y-12597412D01*
X15896372Y-12597412D02*
X15896372Y-12587888D01*
X15896372Y-12587888D02*
X15886849Y-12568841D01*
X15886849Y-12568841D02*
X15867801Y-12559317D01*
X15867801Y-12559317D02*
X15839230Y-12559317D01*
X15839230Y-12559317D02*
X15820182Y-12549793D01*
X15820182Y-12549793D02*
X15810658Y-12530746D01*
X15810658Y-12530746D02*
X15810658Y-12521222D01*
X15810658Y-12521222D02*
X15820182Y-12502174D01*
X15820182Y-12502174D02*
X15839230Y-12492650D01*
X15839230Y-12492650D02*
X15867801Y-12492650D01*
X15867801Y-12492650D02*
X15886849Y-12502174D01*
X15963039Y-12702174D02*
X15972563Y-12692650D01*
X15972563Y-12692650D02*
X15991611Y-12664079D01*
X15991611Y-12664079D02*
X16001134Y-12645031D01*
X16001134Y-12645031D02*
X16010658Y-12616460D01*
X16010658Y-12616460D02*
X16020182Y-12568841D01*
X16020182Y-12568841D02*
X16020182Y-12530746D01*
X16020182Y-12530746D02*
X16010658Y-12483127D01*
X16010658Y-12483127D02*
X16001134Y-12454555D01*
X16001134Y-12454555D02*
X15991611Y-12435508D01*
X15991611Y-12435508D02*
X15972563Y-12406936D01*
X15972563Y-12406936D02*
X15963039Y-12397412D01*
D12*
X10947500Y-12848500D02*
X10997500Y-12798500D01*
X10947500Y-12748500D01*
X10897500Y-12798500D01*
X10947500Y-12848500D01*
D11*
X11363039Y-12889984D02*
X11248753Y-12889984D01*
X11305896Y-12889984D02*
X11305896Y-12689984D01*
X11305896Y-12689984D02*
X11286848Y-12718555D01*
X11286848Y-12718555D02*
X11267801Y-12737603D01*
X11267801Y-12737603D02*
X11248753Y-12747127D01*
X11448753Y-12870936D02*
X11458277Y-12880460D01*
X11458277Y-12880460D02*
X11448753Y-12889984D01*
X11448753Y-12889984D02*
X11439229Y-12880460D01*
X11439229Y-12880460D02*
X11448753Y-12870936D01*
X11448753Y-12870936D02*
X11448753Y-12889984D01*
X11582086Y-12689984D02*
X11601134Y-12689984D01*
X11601134Y-12689984D02*
X11620182Y-12699508D01*
X11620182Y-12699508D02*
X11629705Y-12709031D01*
X11629705Y-12709031D02*
X11639229Y-12728079D01*
X11639229Y-12728079D02*
X11648753Y-12766174D01*
X11648753Y-12766174D02*
X11648753Y-12813793D01*
X11648753Y-12813793D02*
X11639229Y-12851888D01*
X11639229Y-12851888D02*
X11629705Y-12870936D01*
X11629705Y-12870936D02*
X11620182Y-12880460D01*
X11620182Y-12880460D02*
X11601134Y-12889984D01*
X11601134Y-12889984D02*
X11582086Y-12889984D01*
X11582086Y-12889984D02*
X11563039Y-12880460D01*
X11563039Y-12880460D02*
X11553515Y-12870936D01*
X11553515Y-12870936D02*
X11543991Y-12851888D01*
X11543991Y-12851888D02*
X11534467Y-12813793D01*
X11534467Y-12813793D02*
X11534467Y-12766174D01*
X11534467Y-12766174D02*
X11543991Y-12728079D01*
X11543991Y-12728079D02*
X11553515Y-12709031D01*
X11553515Y-12709031D02*
X11563039Y-12699508D01*
X11563039Y-12699508D02*
X11582086Y-12689984D01*
X11772562Y-12689984D02*
X11791610Y-12689984D01*
X11791610Y-12689984D02*
X11810658Y-12699508D01*
X11810658Y-12699508D02*
X11820182Y-12709031D01*
X11820182Y-12709031D02*
X11829705Y-12728079D01*
X11829705Y-12728079D02*
X11839229Y-12766174D01*
X11839229Y-12766174D02*
X11839229Y-12813793D01*
X11839229Y-12813793D02*
X11829705Y-12851888D01*
X11829705Y-12851888D02*
X11820182Y-12870936D01*
X11820182Y-12870936D02*
X11810658Y-12880460D01*
X11810658Y-12880460D02*
X11791610Y-12889984D01*
X11791610Y-12889984D02*
X11772562Y-12889984D01*
X11772562Y-12889984D02*
X11753515Y-12880460D01*
X11753515Y-12880460D02*
X11743991Y-12870936D01*
X11743991Y-12870936D02*
X11734467Y-12851888D01*
X11734467Y-12851888D02*
X11724943Y-12813793D01*
X11724943Y-12813793D02*
X11724943Y-12766174D01*
X11724943Y-12766174D02*
X11734467Y-12728079D01*
X11734467Y-12728079D02*
X11743991Y-12709031D01*
X11743991Y-12709031D02*
X11753515Y-12699508D01*
X11753515Y-12699508D02*
X11772562Y-12689984D01*
X11963039Y-12689984D02*
X11982086Y-12689984D01*
X11982086Y-12689984D02*
X12001134Y-12699508D01*
X12001134Y-12699508D02*
X12010658Y-12709031D01*
X12010658Y-12709031D02*
X12020182Y-12728079D01*
X12020182Y-12728079D02*
X12029705Y-12766174D01*
X12029705Y-12766174D02*
X12029705Y-12813793D01*
X12029705Y-12813793D02*
X12020182Y-12851888D01*
X12020182Y-12851888D02*
X12010658Y-12870936D01*
X12010658Y-12870936D02*
X12001134Y-12880460D01*
X12001134Y-12880460D02*
X11982086Y-12889984D01*
X11982086Y-12889984D02*
X11963039Y-12889984D01*
X11963039Y-12889984D02*
X11943991Y-12880460D01*
X11943991Y-12880460D02*
X11934467Y-12870936D01*
X11934467Y-12870936D02*
X11924943Y-12851888D01*
X11924943Y-12851888D02*
X11915420Y-12813793D01*
X11915420Y-12813793D02*
X11915420Y-12766174D01*
X11915420Y-12766174D02*
X11924943Y-12728079D01*
X11924943Y-12728079D02*
X11934467Y-12709031D01*
X11934467Y-12709031D02*
X11943991Y-12699508D01*
X11943991Y-12699508D02*
X11963039Y-12689984D01*
X12115420Y-12889984D02*
X12115420Y-12756650D01*
X12115420Y-12775698D02*
X12124943Y-12766174D01*
X12124943Y-12766174D02*
X12143991Y-12756650D01*
X12143991Y-12756650D02*
X12172563Y-12756650D01*
X12172563Y-12756650D02*
X12191610Y-12766174D01*
X12191610Y-12766174D02*
X12201134Y-12785222D01*
X12201134Y-12785222D02*
X12201134Y-12889984D01*
X12201134Y-12785222D02*
X12210658Y-12766174D01*
X12210658Y-12766174D02*
X12229705Y-12756650D01*
X12229705Y-12756650D02*
X12258277Y-12756650D01*
X12258277Y-12756650D02*
X12277324Y-12766174D01*
X12277324Y-12766174D02*
X12286848Y-12785222D01*
X12286848Y-12785222D02*
X12286848Y-12889984D01*
X12382086Y-12889984D02*
X12382086Y-12756650D01*
X12382086Y-12775698D02*
X12391610Y-12766174D01*
X12391610Y-12766174D02*
X12410658Y-12756650D01*
X12410658Y-12756650D02*
X12439229Y-12756650D01*
X12439229Y-12756650D02*
X12458277Y-12766174D01*
X12458277Y-12766174D02*
X12467801Y-12785222D01*
X12467801Y-12785222D02*
X12467801Y-12889984D01*
X12467801Y-12785222D02*
X12477324Y-12766174D01*
X12477324Y-12766174D02*
X12496372Y-12756650D01*
X12496372Y-12756650D02*
X12524943Y-12756650D01*
X12524943Y-12756650D02*
X12543991Y-12766174D01*
X12543991Y-12766174D02*
X12553515Y-12785222D01*
X12553515Y-12785222D02*
X12553515Y-12889984D01*
X12943991Y-12680460D02*
X12772563Y-12937603D01*
X13201134Y-12689984D02*
X13220182Y-12689984D01*
X13220182Y-12689984D02*
X13239229Y-12699508D01*
X13239229Y-12699508D02*
X13248753Y-12709031D01*
X13248753Y-12709031D02*
X13258277Y-12728079D01*
X13258277Y-12728079D02*
X13267801Y-12766174D01*
X13267801Y-12766174D02*
X13267801Y-12813793D01*
X13267801Y-12813793D02*
X13258277Y-12851888D01*
X13258277Y-12851888D02*
X13248753Y-12870936D01*
X13248753Y-12870936D02*
X13239229Y-12880460D01*
X13239229Y-12880460D02*
X13220182Y-12889984D01*
X13220182Y-12889984D02*
X13201134Y-12889984D01*
X13201134Y-12889984D02*
X13182086Y-12880460D01*
X13182086Y-12880460D02*
X13172563Y-12870936D01*
X13172563Y-12870936D02*
X13163039Y-12851888D01*
X13163039Y-12851888D02*
X13153515Y-12813793D01*
X13153515Y-12813793D02*
X13153515Y-12766174D01*
X13153515Y-12766174D02*
X13163039Y-12728079D01*
X13163039Y-12728079D02*
X13172563Y-12709031D01*
X13172563Y-12709031D02*
X13182086Y-12699508D01*
X13182086Y-12699508D02*
X13201134Y-12689984D01*
X13353515Y-12870936D02*
X13363039Y-12880460D01*
X13363039Y-12880460D02*
X13353515Y-12889984D01*
X13353515Y-12889984D02*
X13343991Y-12880460D01*
X13343991Y-12880460D02*
X13353515Y-12870936D01*
X13353515Y-12870936D02*
X13353515Y-12889984D01*
X13486848Y-12689984D02*
X13505896Y-12689984D01*
X13505896Y-12689984D02*
X13524944Y-12699508D01*
X13524944Y-12699508D02*
X13534467Y-12709031D01*
X13534467Y-12709031D02*
X13543991Y-12728079D01*
X13543991Y-12728079D02*
X13553515Y-12766174D01*
X13553515Y-12766174D02*
X13553515Y-12813793D01*
X13553515Y-12813793D02*
X13543991Y-12851888D01*
X13543991Y-12851888D02*
X13534467Y-12870936D01*
X13534467Y-12870936D02*
X13524944Y-12880460D01*
X13524944Y-12880460D02*
X13505896Y-12889984D01*
X13505896Y-12889984D02*
X13486848Y-12889984D01*
X13486848Y-12889984D02*
X13467801Y-12880460D01*
X13467801Y-12880460D02*
X13458277Y-12870936D01*
X13458277Y-12870936D02*
X13448753Y-12851888D01*
X13448753Y-12851888D02*
X13439229Y-12813793D01*
X13439229Y-12813793D02*
X13439229Y-12766174D01*
X13439229Y-12766174D02*
X13448753Y-12728079D01*
X13448753Y-12728079D02*
X13458277Y-12709031D01*
X13458277Y-12709031D02*
X13467801Y-12699508D01*
X13467801Y-12699508D02*
X13486848Y-12689984D01*
X13620182Y-12689984D02*
X13743991Y-12689984D01*
X13743991Y-12689984D02*
X13677325Y-12766174D01*
X13677325Y-12766174D02*
X13705896Y-12766174D01*
X13705896Y-12766174D02*
X13724944Y-12775698D01*
X13724944Y-12775698D02*
X13734467Y-12785222D01*
X13734467Y-12785222D02*
X13743991Y-12804269D01*
X13743991Y-12804269D02*
X13743991Y-12851888D01*
X13743991Y-12851888D02*
X13734467Y-12870936D01*
X13734467Y-12870936D02*
X13724944Y-12880460D01*
X13724944Y-12880460D02*
X13705896Y-12889984D01*
X13705896Y-12889984D02*
X13648753Y-12889984D01*
X13648753Y-12889984D02*
X13629706Y-12880460D01*
X13629706Y-12880460D02*
X13620182Y-12870936D01*
X13839229Y-12889984D02*
X13877325Y-12889984D01*
X13877325Y-12889984D02*
X13896372Y-12880460D01*
X13896372Y-12880460D02*
X13905896Y-12870936D01*
X13905896Y-12870936D02*
X13924944Y-12842365D01*
X13924944Y-12842365D02*
X13934467Y-12804269D01*
X13934467Y-12804269D02*
X13934467Y-12728079D01*
X13934467Y-12728079D02*
X13924944Y-12709031D01*
X13924944Y-12709031D02*
X13915420Y-12699508D01*
X13915420Y-12699508D02*
X13896372Y-12689984D01*
X13896372Y-12689984D02*
X13858277Y-12689984D01*
X13858277Y-12689984D02*
X13839229Y-12699508D01*
X13839229Y-12699508D02*
X13829706Y-12709031D01*
X13829706Y-12709031D02*
X13820182Y-12728079D01*
X13820182Y-12728079D02*
X13820182Y-12775698D01*
X13820182Y-12775698D02*
X13829706Y-12794746D01*
X13829706Y-12794746D02*
X13839229Y-12804269D01*
X13839229Y-12804269D02*
X13858277Y-12813793D01*
X13858277Y-12813793D02*
X13896372Y-12813793D01*
X13896372Y-12813793D02*
X13915420Y-12804269D01*
X13915420Y-12804269D02*
X13924944Y-12794746D01*
X13924944Y-12794746D02*
X13934467Y-12775698D01*
X14105896Y-12756650D02*
X14105896Y-12889984D01*
X14058277Y-12680460D02*
X14010658Y-12823317D01*
X14010658Y-12823317D02*
X14134467Y-12823317D01*
X14201134Y-12689984D02*
X14201134Y-12728079D01*
X14277325Y-12689984D02*
X14277325Y-12728079D01*
X14572563Y-12966174D02*
X14563039Y-12956650D01*
X14563039Y-12956650D02*
X14543991Y-12928079D01*
X14543991Y-12928079D02*
X14534468Y-12909031D01*
X14534468Y-12909031D02*
X14524944Y-12880460D01*
X14524944Y-12880460D02*
X14515420Y-12832841D01*
X14515420Y-12832841D02*
X14515420Y-12794746D01*
X14515420Y-12794746D02*
X14524944Y-12747127D01*
X14524944Y-12747127D02*
X14534468Y-12718555D01*
X14534468Y-12718555D02*
X14543991Y-12699508D01*
X14543991Y-12699508D02*
X14563039Y-12670936D01*
X14563039Y-12670936D02*
X14572563Y-12661412D01*
X14734468Y-12689984D02*
X14696372Y-12689984D01*
X14696372Y-12689984D02*
X14677325Y-12699508D01*
X14677325Y-12699508D02*
X14667801Y-12709031D01*
X14667801Y-12709031D02*
X14648753Y-12737603D01*
X14648753Y-12737603D02*
X14639229Y-12775698D01*
X14639229Y-12775698D02*
X14639229Y-12851888D01*
X14639229Y-12851888D02*
X14648753Y-12870936D01*
X14648753Y-12870936D02*
X14658277Y-12880460D01*
X14658277Y-12880460D02*
X14677325Y-12889984D01*
X14677325Y-12889984D02*
X14715420Y-12889984D01*
X14715420Y-12889984D02*
X14734468Y-12880460D01*
X14734468Y-12880460D02*
X14743991Y-12870936D01*
X14743991Y-12870936D02*
X14753515Y-12851888D01*
X14753515Y-12851888D02*
X14753515Y-12804269D01*
X14753515Y-12804269D02*
X14743991Y-12785222D01*
X14743991Y-12785222D02*
X14734468Y-12775698D01*
X14734468Y-12775698D02*
X14715420Y-12766174D01*
X14715420Y-12766174D02*
X14677325Y-12766174D01*
X14677325Y-12766174D02*
X14658277Y-12775698D01*
X14658277Y-12775698D02*
X14648753Y-12785222D01*
X14648753Y-12785222D02*
X14639229Y-12804269D01*
X14848753Y-12889984D02*
X14886848Y-12889984D01*
X14886848Y-12889984D02*
X14905896Y-12880460D01*
X14905896Y-12880460D02*
X14915420Y-12870936D01*
X14915420Y-12870936D02*
X14934468Y-12842365D01*
X14934468Y-12842365D02*
X14943991Y-12804269D01*
X14943991Y-12804269D02*
X14943991Y-12728079D01*
X14943991Y-12728079D02*
X14934468Y-12709031D01*
X14934468Y-12709031D02*
X14924944Y-12699508D01*
X14924944Y-12699508D02*
X14905896Y-12689984D01*
X14905896Y-12689984D02*
X14867801Y-12689984D01*
X14867801Y-12689984D02*
X14848753Y-12699508D01*
X14848753Y-12699508D02*
X14839229Y-12709031D01*
X14839229Y-12709031D02*
X14829706Y-12728079D01*
X14829706Y-12728079D02*
X14829706Y-12775698D01*
X14829706Y-12775698D02*
X14839229Y-12794746D01*
X14839229Y-12794746D02*
X14848753Y-12804269D01*
X14848753Y-12804269D02*
X14867801Y-12813793D01*
X14867801Y-12813793D02*
X14905896Y-12813793D01*
X14905896Y-12813793D02*
X14924944Y-12804269D01*
X14924944Y-12804269D02*
X14934468Y-12794746D01*
X14934468Y-12794746D02*
X14943991Y-12775698D01*
X15182087Y-12889984D02*
X15182087Y-12689984D01*
X15267801Y-12889984D02*
X15267801Y-12785222D01*
X15267801Y-12785222D02*
X15258277Y-12766174D01*
X15258277Y-12766174D02*
X15239230Y-12756650D01*
X15239230Y-12756650D02*
X15210658Y-12756650D01*
X15210658Y-12756650D02*
X15191610Y-12766174D01*
X15191610Y-12766174D02*
X15182087Y-12775698D01*
X15391610Y-12889984D02*
X15372563Y-12880460D01*
X15372563Y-12880460D02*
X15363039Y-12870936D01*
X15363039Y-12870936D02*
X15353515Y-12851888D01*
X15353515Y-12851888D02*
X15353515Y-12794746D01*
X15353515Y-12794746D02*
X15363039Y-12775698D01*
X15363039Y-12775698D02*
X15372563Y-12766174D01*
X15372563Y-12766174D02*
X15391610Y-12756650D01*
X15391610Y-12756650D02*
X15420182Y-12756650D01*
X15420182Y-12756650D02*
X15439230Y-12766174D01*
X15439230Y-12766174D02*
X15448753Y-12775698D01*
X15448753Y-12775698D02*
X15458277Y-12794746D01*
X15458277Y-12794746D02*
X15458277Y-12851888D01*
X15458277Y-12851888D02*
X15448753Y-12870936D01*
X15448753Y-12870936D02*
X15439230Y-12880460D01*
X15439230Y-12880460D02*
X15420182Y-12889984D01*
X15420182Y-12889984D02*
X15391610Y-12889984D01*
X15572563Y-12889984D02*
X15553515Y-12880460D01*
X15553515Y-12880460D02*
X15543991Y-12861412D01*
X15543991Y-12861412D02*
X15543991Y-12689984D01*
X15724944Y-12880460D02*
X15705896Y-12889984D01*
X15705896Y-12889984D02*
X15667801Y-12889984D01*
X15667801Y-12889984D02*
X15648753Y-12880460D01*
X15648753Y-12880460D02*
X15639230Y-12861412D01*
X15639230Y-12861412D02*
X15639230Y-12785222D01*
X15639230Y-12785222D02*
X15648753Y-12766174D01*
X15648753Y-12766174D02*
X15667801Y-12756650D01*
X15667801Y-12756650D02*
X15705896Y-12756650D01*
X15705896Y-12756650D02*
X15724944Y-12766174D01*
X15724944Y-12766174D02*
X15734468Y-12785222D01*
X15734468Y-12785222D02*
X15734468Y-12804269D01*
X15734468Y-12804269D02*
X15639230Y-12823317D01*
X15810658Y-12880460D02*
X15829706Y-12889984D01*
X15829706Y-12889984D02*
X15867801Y-12889984D01*
X15867801Y-12889984D02*
X15886849Y-12880460D01*
X15886849Y-12880460D02*
X15896372Y-12861412D01*
X15896372Y-12861412D02*
X15896372Y-12851888D01*
X15896372Y-12851888D02*
X15886849Y-12832841D01*
X15886849Y-12832841D02*
X15867801Y-12823317D01*
X15867801Y-12823317D02*
X15839230Y-12823317D01*
X15839230Y-12823317D02*
X15820182Y-12813793D01*
X15820182Y-12813793D02*
X15810658Y-12794746D01*
X15810658Y-12794746D02*
X15810658Y-12785222D01*
X15810658Y-12785222D02*
X15820182Y-12766174D01*
X15820182Y-12766174D02*
X15839230Y-12756650D01*
X15839230Y-12756650D02*
X15867801Y-12756650D01*
X15867801Y-12756650D02*
X15886849Y-12766174D01*
X15963039Y-12966174D02*
X15972563Y-12956650D01*
X15972563Y-12956650D02*
X15991611Y-12928079D01*
X15991611Y-12928079D02*
X16001134Y-12909031D01*
X16001134Y-12909031D02*
X16010658Y-12880460D01*
X16010658Y-12880460D02*
X16020182Y-12832841D01*
X16020182Y-12832841D02*
X16020182Y-12794746D01*
X16020182Y-12794746D02*
X16010658Y-12747127D01*
X16010658Y-12747127D02*
X16001134Y-12718555D01*
X16001134Y-12718555D02*
X15991611Y-12699508D01*
X15991611Y-12699508D02*
X15972563Y-12670936D01*
X15972563Y-12670936D02*
X15963039Y-12661412D01*
M02*
