M48
; DRILL file {KiCad 8.0.5} date 2024-10-16T23:13:16+0900
; FORMAT={-:-/ absolute / metric / decimal}
; #@! TF.CreationDate,2024-10-16T23:13:16+09:00
; #@! TF.GenerationSoftware,Kicad,Pcbnew,8.0.5
; #@! TF.FileFunction,Plated,1,2,PTH
FMAT,2
METRIC
; #@! TA.AperFunction,Plated,PTH,ViaDrill
T1C0.300
; #@! TA.AperFunction,Plated,PTH,ComponentDrill
T2C0.690
; #@! TA.AperFunction,Plated,PTH,ComponentDrill
T3C0.700
; #@! TA.AperFunction,Plated,PTH,ComponentDrill
T4C0.800
; #@! TA.AperFunction,Plated,PTH,ComponentDrill
T5C1.000
%
G90
G05
T1
X139.7Y-96.52
X139.7Y-100.838
X142.24Y-89.154
X142.24Y-96.52
X142.24Y-100.838
X142.748Y-92.71
X144.78Y-89.154
X147.32Y-92.71
X148.59Y-97.79
X149.86Y-100.838
X152.654Y-90.678
X152.908Y-100.838
X152.908Y-103.632
X157.48Y-89.154
X157.48Y-100.838
X157.48Y-103.632
X159.004Y-98.298
X160.274Y-100.33
X160.274Y-103.632
X161.036Y-86.106
X161.036Y-89.916
X168.91Y-98.044
X171.45Y-101.092
X171.45Y-103.632
X171.704Y-93.726
X173.228Y-90.932
X173.736Y-98.298
X175.006Y-86.106
X177.546Y-100.076
X178.816Y-103.632
X182.372Y-103.632
X186.69Y-86.995
X188.722Y-103.632
X189.738Y-87.884
X191.008Y-85.852
X193.04Y-103.632
X194.31Y-91.44
X198.12Y-103.632
X198.882Y-86.36
X198.882Y-91.44
X198.882Y-100.33
T2
X162.56Y-93.98
X165.1Y-91.44
X167.64Y-93.98
X180.34Y-90.17
X182.88Y-87.63
X185.42Y-90.17
T3
X170.18Y-91.44
X170.18Y-96.52
X180.34Y-95.758
X180.34Y-98.806
X180.34Y-101.854
X185.42Y-95.758
X185.42Y-98.806
X185.42Y-101.854
T4
X113.665Y-91.44
X113.665Y-99.06
X116.205Y-91.44
X116.205Y-99.06
X118.745Y-91.44
X118.745Y-99.06
X121.285Y-91.44
X121.285Y-99.06
X130.81Y-87.376
X130.81Y-102.616
X133.35Y-87.376
X133.35Y-102.616
X135.89Y-87.376
X135.89Y-102.616
X138.43Y-87.376
X138.43Y-102.616
X140.97Y-87.376
X140.97Y-102.616
X143.51Y-87.376
X143.51Y-102.616
X146.05Y-87.376
X146.05Y-102.616
X148.59Y-87.376
X148.59Y-102.616
X151.13Y-87.376
X151.13Y-102.616
X156.25Y-94.615
X156.25Y-102.235
X156.257Y-86.995
X158.75Y-94.615
X158.75Y-102.235
X158.757Y-86.995
X163.195Y-86.995
X165.695Y-86.995
X173.99Y-94.615
X173.99Y-102.235
X176.49Y-94.615
X176.49Y-102.235
X188.595Y-89.535
X188.595Y-94.107
X188.595Y-96.647
X188.595Y-99.187
X188.595Y-101.727
X191.095Y-89.535
X194.35Y-87.63
X196.215Y-94.107
X196.215Y-96.647
X196.215Y-99.187
X196.215Y-101.727
X196.85Y-87.63
T5
X113.665Y-81.28
X113.665Y-87.63
X113.665Y-102.87
X113.665Y-108.585
X116.205Y-81.28
X116.205Y-87.63
X116.205Y-102.87
X116.205Y-108.585
X118.745Y-81.28
X118.745Y-87.63
X118.745Y-102.87
X118.745Y-108.585
X121.285Y-81.28
X121.285Y-87.63
X121.285Y-102.87
X121.285Y-108.585
X130.81Y-81.28
X130.81Y-91.44
X130.81Y-93.98
X130.81Y-108.585
X133.35Y-81.28
X133.35Y-108.585
X135.89Y-81.28
X135.89Y-91.44
X135.89Y-93.98
X135.89Y-96.52
X135.89Y-99.06
X135.89Y-108.585
X138.43Y-81.28
X138.43Y-108.585
X140.97Y-91.44
X140.97Y-93.98
X144.78Y-81.28
X144.78Y-108.585
X145.542Y-93.98
X145.542Y-96.52
X145.542Y-99.06
X147.32Y-81.28
X147.32Y-108.585
X149.86Y-81.28
X149.86Y-108.585
X152.4Y-81.28
X152.4Y-108.585
X158.75Y-81.28
X158.75Y-108.585
X161.29Y-81.28
X161.29Y-108.585
X163.83Y-81.28
X163.83Y-100.965
X163.83Y-103.505
X163.83Y-108.585
X166.37Y-81.28
X166.37Y-100.965
X166.37Y-103.505
X166.37Y-108.585
X168.91Y-100.965
X168.91Y-103.505
X170.18Y-86.995
X172.72Y-81.28
X172.72Y-86.995
X172.72Y-108.585
X175.26Y-81.28
X175.26Y-108.585
X177.165Y-86.995
X177.165Y-89.535
X177.8Y-81.28
X177.8Y-108.585
X180.34Y-81.28
X180.34Y-108.585
M30
